<svg width="120" height="120" viewBox="0 0 120 120" fill="none" xmlns="http://www.w3.org/2000/svg">
<path d="M16.418 66.5091C15.2248 66.5091 14.1389 66.2015 13.1601 65.5862C12.1906 64.9617 11.4216 64.0947 10.8529 62.9855C10.2843 61.8669 10 60.5711 10 59.0983C10 57.6441 10.2703 56.3763 10.811 55.295C11.3517 54.2044 12.0834 53.3561 13.0063 52.7502C13.9291 52.1443 14.9638 51.8413 16.1104 51.8413C17.1451 51.8413 18.026 52.0883 18.7531 52.5824C19.4802 53.0671 20.0302 53.8035 20.4031 54.7916C20.7853 55.7704 20.9764 57.0009 20.9764 58.4831H19.7319C19.7319 57.961 19.6154 57.5089 19.3823 57.1267C19.1586 56.7352 18.8603 56.4323 18.4874 56.2179C18.1146 56.0035 17.6998 55.8963 17.243 55.8963C16.6557 55.8963 16.1524 56.0361 15.7329 56.3158C15.3227 56.5954 15.0104 56.9776 14.796 57.4623C14.5816 57.9471 14.4744 58.4924 14.4744 59.0983C14.4744 59.7322 14.5816 60.3008 14.796 60.8042C15.0198 61.3075 15.3367 61.7037 15.7469 61.9927C16.157 62.2817 16.6371 62.4262 17.1871 62.4262C17.6252 62.4262 18.0353 62.305 18.4175 62.0626C18.809 61.8109 19.126 61.48 19.3684 61.0698C19.6107 60.6597 19.7319 60.2122 19.7319 59.7275H20.9764C20.9764 61.2842 20.762 62.566 20.3332 63.5727C19.9137 64.5702 19.3544 65.3112 18.6552 65.796C17.9654 66.2714 17.2197 66.5091 16.418 66.5091ZM20.6128 66.0616L19.7319 62.4681V46.7656H24.2623V66.0616H20.6128Z" fill="#0B1A48"/>
<path d="M26.0582 66.0616V52.2049H30.5326V66.0616H26.0582Z" fill="#0B1A48"/>
<path d="M38.0797 73.2347C36.3272 73.2347 34.8451 72.997 33.6332 72.5216C32.4307 72.0555 31.5172 71.4449 30.8926 70.6899C30.2774 69.9441 29.9698 69.1518 29.9698 68.3128C29.9698 67.4273 30.2867 66.7328 30.9206 66.2294C31.5545 65.7261 32.3282 65.4744 33.2417 65.4744L36.9192 66.5231C36.1082 66.5231 35.4836 66.6536 35.0455 66.9146C34.6074 67.1849 34.3883 67.5671 34.3883 68.0611C34.3883 68.6205 34.7332 69.0306 35.423 69.2916C36.1221 69.5526 37.0077 69.6831 38.0797 69.6831C38.8348 69.6831 39.478 69.562 40.0093 69.3196C40.5406 69.0865 40.9415 68.7836 41.2118 68.4107C41.4915 68.0378 41.6313 67.651 41.6313 67.2502C41.6313 67.0078 41.5614 66.826 41.4216 66.7048C41.291 66.5837 41.0813 66.5231 40.7923 66.5231H36.9192C35.9963 66.5231 35.1107 66.3646 34.2625 66.0477C33.4142 65.7307 32.7197 65.2973 32.179 64.7473C31.6477 64.188 31.382 63.5587 31.382 62.8596C31.382 62.2817 31.5405 61.7736 31.8574 61.3355C32.1744 60.8974 32.6218 60.5571 33.1998 60.3148C33.787 60.0724 34.4675 59.9512 35.2412 59.9512L36.5276 61.3355C36.2666 61.3355 36.0289 61.3775 35.8145 61.4614C35.6094 61.5452 35.4463 61.6711 35.3251 61.8389C35.204 61.9974 35.1434 62.1978 35.1434 62.4401C35.1434 62.7571 35.2832 63.0041 35.5628 63.1812C35.8425 63.349 36.2946 63.4329 36.9192 63.4329H40.7923C42.433 63.4329 43.7194 63.6986 44.6515 64.2299C45.5837 64.7519 46.0498 65.6468 46.0498 66.9146C46.0498 67.9959 45.7189 69.0166 45.057 69.9768C44.3952 70.9462 43.4677 71.7293 42.2745 72.3258C41.0813 72.9318 39.683 73.2347 38.0797 73.2347ZM38.0098 61.5732C36.8912 61.5732 35.8518 61.3775 34.8917 60.9859C33.9409 60.5851 33.1718 60.0258 32.5845 59.308C31.9973 58.5809 31.7036 57.7233 31.7036 56.7352C31.7036 55.7192 31.9973 54.8476 32.5845 54.1205C33.1718 53.3841 33.9409 52.8201 34.8917 52.4286C35.8518 52.0371 36.8912 51.8413 38.0098 51.8413C39.1098 51.8413 40.1398 52.0371 41.1 52.4286C42.0601 52.8201 42.8385 53.3841 43.4351 54.1205C44.0316 54.8476 44.3299 55.7192 44.3299 56.7352C44.3299 57.7233 44.0316 58.5809 43.4351 59.308C42.8385 60.0258 42.0601 60.5851 41.1 60.9859C40.1398 61.3775 39.1098 61.5732 38.0098 61.5732ZM38.0657 58.511C38.7462 58.511 39.2263 58.3386 39.5059 57.9937C39.7949 57.6488 39.9394 57.2293 39.9394 56.7352C39.9394 56.1573 39.7949 55.7052 39.5059 55.3789C39.217 55.0433 38.7182 54.8755 38.0098 54.8755C37.3666 54.8755 36.8912 55.0433 36.5836 55.3789C36.276 55.7052 36.1221 56.1573 36.1221 56.7352C36.1221 57.2293 36.276 57.6488 36.5836 57.9937C36.9005 58.3386 37.3946 58.511 38.0657 58.511ZM43.2673 54.0785L41.2538 52.7502C41.2538 51.9019 41.4775 51.1655 41.9249 50.5409C42.3724 49.9164 42.9457 49.4316 43.6448 49.0867C44.3439 48.7418 45.0617 48.5694 45.7981 48.5694L45.6303 52.7921C44.8566 52.7921 44.2693 52.8993 43.8685 53.1137C43.4677 53.3188 43.2673 53.6404 43.2673 54.0785Z" fill="#0B1A48"/>
<path d="M46.192 66.0616V52.2049H50.6665V66.0616H46.192Z" fill="#0B1A48"/>
<path d="M70.5043 66.0616V58.0356C70.5043 57.3085 70.3272 56.7725 69.973 56.4276C69.6281 56.0734 69.1946 55.8963 68.6726 55.8963C67.9082 55.8963 67.2836 56.2272 66.7989 56.889C66.3142 57.5416 66.0718 58.6648 66.0718 60.2589H64.31C64.31 58.6089 64.4592 57.2433 64.7574 56.1619C65.0557 55.0713 65.4659 54.2137 65.9879 53.5891C66.5099 52.9553 67.1065 52.5078 67.7777 52.2468C68.4582 51.9765 69.1806 51.8413 69.945 51.8413C71.1195 51.8413 72.0797 52.107 72.8254 52.6383C73.5805 53.1697 74.1351 53.9014 74.4893 54.8336C74.8529 55.7658 75.0347 56.8331 75.0347 58.0356V66.0616H70.5043ZM52.4527 66.0616V52.2888H56.3958L56.8713 54.2323C57.3467 53.4027 57.9386 52.7968 58.647 52.4146C59.3648 52.0324 60.1432 51.8413 60.9821 51.8413C62.166 51.8413 63.1308 52.107 63.8765 52.6383C64.6316 53.1697 65.1862 53.9014 65.5405 54.8336C65.8947 55.7658 66.0718 56.8331 66.0718 58.0356V66.0616H61.5694V58.0356C61.5694 57.3085 61.3923 56.7725 61.0381 56.4276C60.6838 56.0734 60.255 55.8963 59.7517 55.8963C59.239 55.8963 58.7682 56.0408 58.3394 56.3297C57.9106 56.6187 57.5657 57.0848 57.3047 57.728C57.053 58.3619 56.9272 59.2055 56.9272 60.2589V66.0616H52.4527Z" fill="#0B1A48"/>
<path d="M85.0571 66.0616L84.4839 62.3842V57.2246C84.4839 56.5348 84.358 55.9988 84.1063 55.6166C83.8546 55.2344 83.3186 55.0433 82.4983 55.0433C82.0136 55.0433 81.6174 55.1179 81.3098 55.2671C81.0115 55.4069 80.7878 55.598 80.6386 55.8403C80.4988 56.0734 80.4289 56.3297 80.4289 56.6094H75.5909C75.5909 55.5281 75.8473 54.6378 76.36 53.9387C76.8727 53.2303 77.6417 52.7036 78.6671 52.3587C79.6925 52.0138 80.9696 51.8413 82.4983 51.8413C83.8313 51.8413 84.9779 52.0464 85.938 52.4566C86.9075 52.8667 87.6533 53.4819 88.1753 54.3023C88.6973 55.1226 88.9583 56.1526 88.9583 57.3924V66.0616H85.0571ZM80.7225 66.5091C79.4921 66.5091 78.4527 66.304 77.6044 65.8938C76.7654 65.4744 76.1316 64.9104 75.7028 64.2019C75.274 63.4935 75.0596 62.7105 75.0596 61.8529C75.0596 61.0419 75.2833 60.3427 75.7307 59.7555C76.1782 59.1589 76.84 58.6975 77.7163 58.3712C78.6018 58.0449 79.6878 57.8818 80.9742 57.8818C81.7572 57.8818 82.4471 57.9238 83.0436 58.0076C83.6496 58.0915 84.2695 58.1941 84.9033 58.3153V60.8321C84.4372 60.7296 83.9525 60.6504 83.4491 60.5944C82.9551 60.5385 82.4704 60.5105 81.995 60.5105C81.3331 60.5105 80.8064 60.6177 80.4149 60.8321C80.0327 61.0372 79.8416 61.3775 79.8416 61.8529C79.8416 62.1978 80.0141 62.5007 80.359 62.7617C80.7039 63.0134 81.2492 63.1393 81.995 63.1393C82.6288 63.1393 83.1275 63.0134 83.4911 62.7617C83.8546 62.51 84.111 62.1931 84.2601 61.8109C84.4093 61.4287 84.4839 61.0512 84.4839 60.6783H85.5326C85.5326 61.741 85.3648 62.7151 85.0292 63.6007C84.6936 64.4863 84.1716 65.1947 83.4631 65.7261C82.7547 66.2481 81.8411 66.5091 80.7225 66.5091Z" fill="#0B1A48"/>
<path d="M95.1273 66.5091C94.251 66.5091 93.4307 66.3506 92.6663 66.0337C91.9112 65.7167 91.3007 65.2227 90.8346 64.5515C90.3778 63.871 90.1494 62.9994 90.1494 61.9368V48.8071H94.6518V61.769C94.6518 62.6079 95.0667 63.0274 95.8963 63.0274C96.1573 63.0274 96.4323 62.9994 96.7213 62.9435C97.0196 62.8783 97.3645 62.7757 97.756 62.6359L98.4132 65.754C97.8445 65.9591 97.2992 66.1362 96.7772 66.2854C96.2645 66.4345 95.7145 66.5091 95.1273 66.5091ZM88.5135 55.1832V52.2888H97.784V55.1832H88.5135Z" fill="#0B1A48"/>
<path d="M103.77 66.5091C102.614 66.5091 101.528 66.2108 100.512 65.6142C99.4962 65.0176 98.6713 64.1647 98.0374 63.0554C97.4128 61.9461 97.1005 60.6317 97.1005 59.1123C97.1005 57.5928 97.4128 56.2924 98.0374 55.2111C98.6619 54.1205 99.4823 53.2862 100.498 52.7082C101.514 52.1303 102.605 51.8413 103.77 51.8413C104.926 51.8413 105.933 52.0744 106.79 52.5404C107.648 52.9972 108.338 53.6171 108.86 54.4001C109.391 55.1832 109.736 56.0687 109.895 57.0568C110.062 58.0356 110.03 59.047 109.797 60.0911H100.638V57.8259H106.525L105.882 58.2454C105.91 57.9191 105.896 57.5882 105.84 57.2526C105.793 56.917 105.695 56.6094 105.546 56.3297C105.397 56.0408 105.183 55.8124 104.903 55.6446C104.633 55.4675 104.283 55.3789 103.854 55.3789C103.379 55.3789 102.964 55.4954 102.61 55.7285C102.265 55.9522 101.994 56.2831 101.799 56.7212C101.612 57.15 101.519 57.6767 101.519 58.3013V60.0631C101.519 60.6504 101.603 61.1584 101.771 61.5872C101.939 62.016 102.186 62.3516 102.512 62.5939C102.847 62.827 103.267 62.9435 103.77 62.9435C104.18 62.9435 104.539 62.8596 104.847 62.6918C105.155 62.524 105.369 62.2584 105.49 61.8948H109.937C109.797 62.7524 109.452 63.5308 108.902 64.2299C108.361 64.929 107.653 65.4837 106.777 65.8938C105.91 66.304 104.908 66.5091 103.77 66.5091Z" fill="#0B1A48"/>
</svg>
