<svg width="120" height="120" viewBox="0 0 120 120" fill="none" xmlns="http://www.w3.org/2000/svg">
<path d="M67.9492 51.8352C69.73 52.2374 71.1375 53.1278 72.1715 54.5065C73.2343 55.8565 73.7656 57.4075 73.7656 59.1597C73.7656 61.7447 72.8752 63.7697 71.0944 65.2346C69.3135 66.6995 66.8146 67.4319 63.5976 67.4319H42.0983V37.0571H63.1237C66.2258 37.0571 68.6529 37.7465 70.405 39.1252C72.1859 40.5039 73.0763 42.4427 73.0763 44.9417C73.0763 46.7225 72.6023 48.2161 71.6545 49.4225C70.7353 50.6001 69.5002 51.4044 67.9492 51.8352ZM50.5429 49.1209H61.271C63.3965 49.1209 64.4593 48.2448 64.4593 46.4927C64.4593 44.6831 63.3965 43.7784 61.271 43.7784H50.5429V49.1209ZM61.9173 60.6245C64.0428 60.6245 65.1056 59.7341 65.1056 57.9533C65.1056 57.0341 64.8183 56.3304 64.2439 55.8421C63.6981 55.3538 62.9082 55.1097 61.8742 55.1097H50.5429V60.6245H61.9173Z" fill="#0B1A48"/>
<path d="M31.7578 37.0571V57.1778C31.7578 60.5958 30.8243 63.2096 28.9573 65.0192C27.119 66.8288 24.577 67.7335 21.3313 67.7335C17.8845 67.7335 15.1271 66.7713 13.059 64.8469C11.0197 62.9224 10 60.1506 10 56.5315H18.3585C18.3872 58.9155 19.2632 60.1075 20.9866 60.1075C22.5377 60.1075 23.3132 59.1309 23.3132 57.1778V37.0571H31.7578Z" fill="#0B1A48"/>
<path d="M92.5506 43.8215V48.7762H110V55.1959H92.5506V60.6676H110V67.4319H84.106V37.0571H110V43.8215H92.5506Z" fill="#0B1A48"/>
<rect x="10.5171" y="75.187" width="20.6807" height="7.75527" fill="#0B1A48"/>
</svg>
