<svg width="32" height="32" viewBox="0 0 32 32" fill="none" xmlns="http://www.w3.org/2000/svg">
<path d="M24.29 19.2899L21 22.5899L19.71 21.2899C19.5217 21.1016 19.2663 20.9958 19 20.9958C18.7337 20.9958 18.4783 21.1016 18.29 21.2899C18.1017 21.4782 17.9959 21.7336 17.9959 21.9999C17.9959 22.2662 18.1017 22.5216 18.29 22.7099L20.29 24.7099C20.383 24.8037 20.4936 24.8781 20.6154 24.9288C20.7373 24.9796 20.868 25.0057 21 25.0057C21.132 25.0057 21.2627 24.9796 21.3846 24.9288C21.5064 24.8781 21.617 24.8037 21.71 24.7099L25.71 20.7099C25.8032 20.6167 25.8772 20.506 25.9277 20.3842C25.9781 20.2624 26.0041 20.1318 26.0041 19.9999C26.0041 19.8681 25.9781 19.7375 25.9277 19.6157C25.8772 19.4939 25.8032 19.3832 25.71 19.2899C25.6168 19.1967 25.5061 19.1227 25.3843 19.0723C25.2624 19.0218 25.1319 18.9958 25 18.9958C24.8681 18.9958 24.7376 19.0218 24.6158 19.0723C24.4939 19.1227 24.3832 19.1967 24.29 19.2899Z" fill="#0B1A48"/>
<path d="M22 14C20.4178 14 18.871 14.4692 17.5554 15.3482C16.2398 16.2273 15.2145 17.4767 14.609 18.9385C14.0035 20.4003 13.845 22.0089 14.1537 23.5607C14.4624 25.1126 15.2243 26.538 16.3431 27.6569C17.462 28.7757 18.8874 29.5376 20.4393 29.8463C21.9911 30.155 23.5997 29.9965 25.0615 29.391C26.5233 28.7855 27.7727 27.7602 28.6518 26.4446C29.5308 25.129 30 23.5823 30 22C30 19.8783 29.1571 17.8434 27.6569 16.3431C26.1566 14.8429 24.1217 14 22 14ZM22 28C20.8133 28 19.6533 27.6481 18.6666 26.9888C17.6799 26.3295 16.9109 25.3925 16.4567 24.2961C16.0026 23.1997 15.8838 21.9933 16.1153 20.8295C16.3468 19.6656 16.9182 18.5965 17.7574 17.7574C18.5965 16.9182 19.6656 16.3468 20.8295 16.1153C21.9933 15.8838 23.1997 16.0026 24.2961 16.4567C25.3925 16.9108 26.3295 17.6799 26.9888 18.6666C27.6481 19.6533 28 20.8133 28 22C28 23.5913 27.3679 25.1174 26.2426 26.2426C25.1174 27.3679 23.5913 28 22 28Z" fill="#0B1A48"/>
<path d="M26 2H6C4.93913 2 3.92172 2.42143 3.17157 3.17157C2.42143 3.92172 2 4.93913 2 6V26C2 27.0609 2.42143 28.0783 3.17157 28.8284C3.92172 29.5786 4.93913 30 6 30H14C14.2652 30 14.5196 29.8946 14.7071 29.7071C14.8946 29.5196 15 29.2652 15 29C15 28.7348 14.8946 28.4804 14.7071 28.2929C14.5196 28.1054 14.2652 28 14 28H6C5.46957 28 4.96086 27.7893 4.58579 27.4142C4.21071 27.0391 4 26.5304 4 26V6C4 5.46957 4.21071 4.96086 4.58579 4.58579C4.96086 4.21071 5.46957 4 6 4H11V11C11.001 11.1974 11.0604 11.3901 11.1707 11.5539C11.2811 11.7176 11.4374 11.845 11.62 11.92C11.8021 11.9966 12.0028 12.0175 12.1968 11.9801C12.3908 11.9428 12.5694 11.8488 12.71 11.71L14 10.41L15.29 11.71C15.383 11.8037 15.4936 11.8781 15.6154 11.9289C15.7373 11.9797 15.868 12.0058 16 12.0058C16.132 12.0058 16.2627 11.9797 16.3846 11.9289C16.5064 11.8781 16.617 11.8037 16.71 11.71L18 10.41L19.29 11.71C19.3834 11.8027 19.4943 11.876 19.6161 11.9258C19.7379 11.9755 19.8684 12.0008 20 12C20.1312 12.0034 20.2613 11.976 20.38 11.92C20.5626 11.845 20.7189 11.7176 20.8293 11.5539C20.9396 11.3901 20.999 11.1974 21 11V4H26C26.5304 4 27.0391 4.21071 27.4142 4.58579C27.7893 4.96086 28 5.46957 28 6V14C28 14.2652 28.1054 14.5196 28.2929 14.7071C28.4804 14.8946 28.7348 15 29 15C29.2652 15 29.5196 14.8946 29.7071 14.7071C29.8946 14.5196 30 14.2652 30 14V6C30 4.93913 29.5786 3.92172 28.8284 3.17157C28.0783 2.42143 27.0609 2 26 2ZM19 8.59L18.71 8.29C18.617 8.19627 18.5064 8.12188 18.3846 8.07111C18.2627 8.02034 18.132 7.9942 18 7.9942C17.868 7.9942 17.7373 8.02034 17.6154 8.07111C17.4936 8.12188 17.383 8.19627 17.29 8.29L16 9.59L14.71 8.29C14.617 8.19627 14.5064 8.12188 14.3846 8.07111C14.2627 8.02034 14.132 7.9942 14 7.9942C13.868 7.9942 13.7373 8.02034 13.6154 8.07111C13.4936 8.12188 13.383 8.19627 13.29 8.29L13 8.59V4H19V8.59Z" fill="#0B1A48"/>
</svg>
