<svg width="48" height="48" viewBox="0 0 48 48" fill="none" xmlns="http://www.w3.org/2000/svg">
<rect width="48" height="48" rx="6" fill="white" fill-opacity="0.2"/>
<path d="M36.5521 22.6979C36.9836 22.6979 37.3334 22.3481 37.3334 21.9167C37.3334 21.4852 36.9836 21.1354 36.5521 21.1354H33.1146V18.5313H36.5521C36.9836 18.5313 37.3334 18.1815 37.3334 17.75C37.3334 17.3186 36.9836 16.9688 36.5521 16.9688H33.1146V16.4479C33.1146 15.5864 32.4137 14.8854 31.5521 14.8854H31.0313V11.4479C31.0313 11.0165 30.6815 10.6667 30.25 10.6667C29.8186 10.6667 29.4688 11.0165 29.4688 11.4479V14.8854H26.8646V11.4479C26.8646 11.0165 26.5148 10.6667 26.0834 10.6667C25.6519 10.6667 25.3021 11.0165 25.3021 11.4479V14.8854H22.6979V11.4479C22.6979 11.0165 22.3481 10.6667 21.9167 10.6667C21.4852 10.6667 21.1354 11.0165 21.1354 11.4479V14.8854H18.5313V11.4479C18.5313 11.0165 18.1815 10.6667 17.75 10.6667C17.3186 10.6667 16.9688 11.0165 16.9688 11.4479V14.8854H16.4479C15.5864 14.8854 14.8854 15.5864 14.8854 16.4479V16.9688H11.4479C11.0165 16.9688 10.6667 17.3186 10.6667 17.75C10.6667 18.1815 11.0165 18.5313 11.4479 18.5313H14.8854V21.1354H11.4479C11.0165 21.1354 10.6667 21.4852 10.6667 21.9167C10.6667 22.3481 11.0165 22.6979 11.4479 22.6979H14.8854V25.3021H11.4479C11.0165 25.3021 10.6667 25.6519 10.6667 26.0834C10.6667 26.5148 11.0165 26.8646 11.4479 26.8646H14.8854V29.4688H11.4479C11.0165 29.4688 10.6667 29.8186 10.6667 30.25C10.6667 30.6815 11.0165 31.0313 11.4479 31.0313H14.8854V31.5521C14.8854 32.4137 15.5864 33.1146 16.4479 33.1146H16.9688V36.5521C16.9688 36.9836 17.3186 37.3334 17.75 37.3334C18.1815 37.3334 18.5313 36.9836 18.5313 36.5521V33.1146H21.1354V36.5521C21.1354 36.9836 21.4852 37.3334 21.9167 37.3334C22.3481 37.3334 22.6979 36.9836 22.6979 36.5521V33.1146H25.3021V36.5521C25.3021 36.9836 25.6519 37.3334 26.0834 37.3334C26.5148 37.3334 26.8646 36.9836 26.8646 36.5521V33.1146H29.4688V36.5521C29.4688 36.9836 29.8186 37.3334 30.25 37.3334C30.6815 37.3334 31.0313 36.9836 31.0313 36.5521V33.1146H31.5521C32.4137 33.1146 33.1146 32.4137 33.1146 31.5521V31.0313H36.5521C36.9836 31.0313 37.3334 30.6815 37.3334 30.25C37.3334 29.8186 36.9836 29.4688 36.5521 29.4688H33.1146V26.8646H36.5521C36.9836 26.8646 37.3334 26.5148 37.3334 26.0834C37.3334 25.6519 36.9836 25.3021 36.5521 25.3021H33.1146V22.6979H36.5521ZM31.5521 31.5521H16.4479V16.4479H31.5521C31.5531 31.9718 31.5573 31.5521 31.5521 31.5521Z" fill="white"/>
<path d="M27.1566 19.281C27.0101 19.1345 26.8114 19.0521 26.6042 19.0521H21.3959C21.1887 19.0521 20.99 19.1345 20.8435 19.281L19.281 20.8435C19.1345 20.99 19.0521 21.1887 19.0521 21.3959V26.6042C19.0521 26.8114 19.1345 27.0101 19.281 27.1566L20.8435 28.7191C20.99 28.8656 21.1887 28.948 21.3959 28.948H26.6042C26.8114 28.948 27.0101 28.8656 27.1566 28.7191L28.7191 27.1566C28.8656 27.0101 28.948 26.8114 28.948 26.6042V21.3959C28.948 21.1887 28.8656 20.99 28.7191 20.8435L27.1566 19.281ZM27.3855 26.2806L26.2806 27.3855H21.7195L20.6146 26.2806V21.7195L21.7195 20.6146H26.2806L27.3855 21.7195V26.2806Z" fill="white"/>
</svg>
