<svg width="239" height="238" viewBox="0 0 239 238" fill="none" xmlns="http://www.w3.org/2000/svg">
<path d="M127.295 49.5834H80.417C56.8079 49.5834 36.8383 67.0449 33.6885 90.4429L24.657 157.534C22.4567 173.88 35.1681 188.417 51.6608 188.417V188.417C62.469 188.417 72.2555 182.028 76.6048 172.134L82.7968 158.047" stroke="#F7F7F7" stroke-width="14.875"/>
<path d="M127.294 49.5834H159.237C181.715 49.5834 200.98 65.648 205.02 87.7593L218.356 160.759C220.986 175.156 209.929 188.417 195.294 188.417V188.417C185.675 188.417 177.032 182.541 173.493 173.597L167.342 158.047" stroke="#F7F7F7" stroke-width="14.875"/>
<circle cx="89.9166" cy="138.833" r="19.8333" stroke="#F7F7F7" stroke-width="14.875"/>
<circle cx="159.333" cy="138.833" r="19.8333" stroke="#F7F7F7" stroke-width="14.875"/>
</svg>
