<svg width="117" height="120" viewBox="0 0 117 120" fill="none" xmlns="http://www.w3.org/2000/svg">
<path d="M87.4459 44C87.2718 44 87.0951 43.9626 86.9288 43.8827C86.3338 43.5992 86.0843 42.8904 86.3701 42.3002L92.3077 30.0706C93.0326 28.5757 92.396 26.7741 90.8889 26.055L69.1202 15.6695C68.39 15.3215 67.5663 15.2752 66.8023 15.5419C66.0371 15.8074 65.4226 16.3525 65.0718 17.0767L55.269 37.0037C54.9793 37.5926 54.2647 37.8362 53.671 37.5488C53.0785 37.2615 52.8317 36.5527 53.1214 35.9637L62.9202 16.0419C64.213 13.3743 67.4611 12.2455 70.1557 13.5316L91.9244 23.9171C93.2301 24.5395 94.2123 25.6298 94.6917 26.9855C95.1712 28.3412 95.0893 29.8012 94.4605 31.0964L88.5217 43.326C88.3164 43.75 87.889 43.9974 87.4446 43.9974L87.4459 44Z" fill="#0B1A48"/>
<path d="M64.865 84C64.0823 84 63.288 83.8342 62.5363 83.4826L51.673 78.4032C51.0815 78.1269 50.8335 77.4362 51.1177 76.8624C51.4018 76.2872 52.1122 76.0449 52.7024 76.3224L63.5657 81.4019C64.2915 81.7409 65.1104 81.7861 65.8698 81.5262C66.6305 81.2675 67.2415 80.7363 67.5902 80.0306L72.7422 69.6531C73.0276 69.0793 73.738 68.8382 74.3282 69.1144C74.9185 69.3919 75.1664 70.0826 74.8823 70.6565L69.7316 81.0327C68.8055 82.9062 66.8734 84 64.865 84V84Z" fill="#0B1A48"/>
<path d="M70.8247 77.9987C70.6537 77.9987 70.4815 77.9612 70.3169 77.8811L54.6649 70.2585C54.0805 69.9743 53.8355 69.2637 54.1162 68.6733C54.397 68.0815 55.0987 67.8335 55.6831 68.1177L71.3351 75.7403C71.9195 76.0246 72.1645 76.7352 71.8838 77.3269C71.6822 77.7519 71.2624 78 70.8247 78V77.9987Z" fill="#0B1A48"/>
<path d="M92.7891 33C92.6127 33 92.4351 32.9622 92.2653 32.8815L63.6858 19.2769C63.083 18.9904 62.8304 18.274 63.1199 17.6787C63.4094 17.0822 64.1333 16.8321 64.7347 17.1187L93.3142 30.7232C93.917 31.0098 94.1696 31.7262 93.8801 32.3214C93.6722 32.7499 93.2392 33 92.7878 33H92.7891Z" fill="#0B1A48"/>
<path d="M56.8942 76C56.7331 76 56.5709 75.9608 56.4158 75.8769L53.6263 74.367C53.0758 74.0694 52.8451 73.3253 53.1095 72.7056C53.3739 72.086 54.0349 71.8248 54.5842 72.1238L57.3737 73.6337C57.9242 73.9314 58.1549 74.6755 57.8905 75.2951C57.7006 75.7402 57.3052 76 56.893 76H56.8942Z" fill="#0B1A48"/>
<path d="M22.1848 94C22.0121 94 21.838 93.9626 21.6718 93.8827C21.0813 93.599 20.8338 92.8898 21.1174 92.2993L29.5546 74.7528L32.9385 55.8963C33.0248 52.5283 34.7174 49.3731 37.4787 47.439L55.4422 34.9793C56.6579 34.1322 58.13 33.8188 59.588 34.1012C61.046 34.3823 62.2964 35.2217 63.1098 36.4635C64.6864 38.8669 64.1166 42.0969 61.8143 43.817L49.1025 53.3136C50.3323 54.7345 52.4928 57.57 53.9379 61.366C55.878 66.4567 56.8345 74.2615 50.3825 82.537C49.9803 83.0541 49.2352 83.1457 48.7183 82.7434C48.2014 82.3411 48.1099 81.5958 48.5121 81.0787C53.1283 75.159 54.2176 68.8357 51.7503 62.2867C49.8733 57.3057 46.5449 54.0344 46.5114 54.0022C46.2626 53.7597 46.1311 53.4206 46.1543 53.0738C46.1762 52.7269 46.349 52.4071 46.6274 52.1995L60.3937 41.9151C61.6944 40.9442 62.0154 39.1197 61.1246 37.7619C60.6644 37.0605 59.958 36.5872 59.1355 36.4286C58.3131 36.27 57.4803 36.4467 56.7932 36.9251L38.8322 49.3835C36.6691 50.8985 35.3491 53.3858 35.3053 56.033C35.3053 56.0962 35.2975 56.1607 35.2872 56.2225L31.8582 75.3305C31.8389 75.4362 31.8066 75.5381 31.7602 75.6348L23.2535 93.3269C23.0498 93.7511 22.6257 93.9987 22.1835 93.9987L22.1848 94Z" fill="#0B1A48"/>
<path d="M83.075 54C80.8533 54 78.8094 52.5675 78.186 50.3842C77.4364 47.7623 79.0206 45.0352 81.7149 44.307L89.5688 42.1827C90.8748 41.8292 92.2426 41.9922 93.4223 42.6414C94.6021 43.2906 95.4508 44.3471 95.814 45.6167C96.5636 48.2386 94.9794 50.9658 92.2851 51.6939L84.4312 53.8183C83.9791 53.9411 83.5232 53.9987 83.075 53.9987V54ZM90.9314 44.307C90.688 44.307 90.4433 44.3396 90.2037 44.4048L82.3499 46.5291C80.9138 46.9176 80.0702 48.3702 80.4695 49.7689C80.8688 51.1663 82.3628 51.9872 83.7988 51.5999L91.6527 49.4756C93.0887 49.0871 93.9323 47.6345 93.5331 46.2358C93.3399 45.559 92.8865 44.9951 92.258 44.6491C91.8472 44.4236 91.3925 44.307 90.9314 44.307V44.307Z" fill="#0B1A48"/>
<path d="M81.0742 62C78.8527 62 76.8088 60.5673 76.1855 58.3837C75.4373 55.7602 77.0201 53.0339 79.7142 52.3056L87.5675 50.181C90.263 49.4515 93.0641 50.9933 93.8123 53.6155C94.1755 54.8865 94.0081 56.2177 93.341 57.3659C92.6739 58.5141 91.5882 59.3401 90.2823 59.6936L82.429 61.8183C81.977 61.9411 81.5211 61.9988 81.0729 61.9988L81.0742 62ZM78.4676 57.767C78.8668 59.1647 80.3607 59.9857 81.7967 59.5984L89.65 57.4737C91.0859 57.0851 91.9295 55.6324 91.5302 54.2335C91.3371 53.5566 90.8837 52.9925 90.2553 52.6478C89.6268 52.3019 88.8979 52.2154 88.2012 52.4034L80.3479 54.5281C78.9119 54.9166 78.0684 56.3694 78.4676 57.7683V57.767Z" fill="#0B1A48"/>
<path d="M77.076 72C74.8546 72 72.811 70.5675 72.1877 68.3842C71.8245 67.1134 71.9919 65.7824 72.659 64.6344C73.3261 63.4863 74.4116 62.6604 75.7174 62.307L83.5702 60.1827C84.8747 59.8292 86.2435 59.9922 87.4231 60.6414C88.6027 61.2906 89.4526 62.3471 89.8145 63.6167C90.5627 66.2386 88.98 68.9658 86.286 69.6939L78.4333 71.8183C77.9813 71.9411 77.5254 71.9987 77.0773 71.9987L77.076 72ZM74.4696 67.7676C74.8688 69.165 76.3613 69.9859 77.7984 69.5987L85.6512 67.4743C87.087 67.0858 87.9305 65.6332 87.5313 64.2346C87.3381 63.5578 86.8848 62.9938 86.2564 62.6479C85.628 62.302 84.8978 62.2155 84.2024 62.4035L76.3497 64.5278C74.9139 64.9164 74.0704 66.3689 74.4696 67.7676Z" fill="#0B1A48"/>
<path d="M42.2168 107C42.0394 107 41.8607 106.963 41.6899 106.883C41.0835 106.599 40.8294 105.889 41.1206 105.298L49.3076 88.7112C49.5142 88.2919 49.955 88.0287 50.4329 88.039C53.9453 88.1164 57.0842 87.2211 59.7559 85.3775C61.7682 83.9893 62.7532 82.5495 62.7638 82.5354C63.1331 81.9896 63.8864 81.8348 64.4478 82.1935C65.0091 82.5508 65.1693 83.2823 64.8039 83.8306C64.6238 84.1003 60.4072 90.2748 51.169 90.4141L43.3143 106.327C43.1051 106.751 42.6696 106.999 42.2155 106.999L42.2168 107Z" fill="#0B1A48"/>
<path d="M30.1745 18C29.7789 18 29.3922 17.8013 29.1714 17.4419C28.8345 16.8927 29.0093 16.1764 29.5632 15.8423C38.0572 10.712 47.8299 8 57.8259 8C58.4742 8 59 8.52139 59 9.16426C59 9.80714 58.4742 10.3285 57.8259 10.3285C48.2613 10.3285 38.9097 12.9228 30.7845 17.8304C30.5943 17.9456 30.3825 18 30.1745 18Z" fill="#0B1A48"/>
<path d="M5.60559 76.9987C5.06929 76.9987 4.58316 76.6232 4.45455 76.0677C3.48999 71.8778 3 67.5513 3 63.2078C3 57.2715 3.9054 51.4258 5.69175 45.8335C5.89367 45.1993 6.56243 44.8527 7.1836 45.0601C7.80478 45.2663 8.1443 45.9491 7.9411 46.5833C6.23191 51.9326 5.36509 57.5262 5.36509 63.2078C5.36509 67.3649 5.83322 71.5062 6.75663 75.5149C6.90581 76.1636 6.51227 76.8149 5.87566 76.9672C5.78435 76.9895 5.69304 77 5.6043 77L5.60559 76.9987Z" fill="#0B1A48"/>
<path d="M58.0762 119C49.3364 119 40.978 116.98 33.2339 112.999C25.8479 109.202 19.2818 103.649 14.244 96.943C13.8457 96.4118 13.9453 95.6531 14.4677 95.2481C14.9901 94.8431 15.7362 94.9444 16.1344 95.4756C20.9563 101.893 27.2405 107.207 34.3071 110.841C41.7164 114.65 49.7139 116.582 58.0762 116.582C61.2752 116.582 64.4781 116.289 67.597 115.71C68.2422 115.591 68.8629 116.026 68.9805 116.683C69.0982 117.341 68.6702 117.97 68.0237 118.09C64.7652 118.694 61.4174 119 58.0762 119V119Z" fill="#0B1A48"/>
<path d="M109.361 80C109.242 80 109.12 79.9865 109 79.9594C108.276 79.7935 107.85 79.1714 108.049 78.569C108.552 77.0494 108.972 75.4917 109.299 73.9365C109.428 73.3218 110.134 72.9099 110.873 73.0169C111.613 73.1239 112.108 73.7103 111.98 74.325C111.638 75.9503 111.199 77.5793 110.673 79.1665C110.508 79.6681 109.959 79.9975 109.363 79.9975L109.361 80Z" fill="#0B1A48"/>
<path d="M110.758 53C110.185 53 109.67 52.6143 109.546 52.0513C107.937 44.7445 104.806 37.9668 100.238 31.9045C99.8348 31.3689 99.9561 30.6196 100.51 30.2299C101.064 29.8403 101.84 29.9576 102.243 30.4932C107.017 36.8291 110.291 43.9144 111.972 51.5522C112.115 52.1999 111.688 52.8358 111.018 52.9739C110.93 52.9922 110.844 53 110.759 53H110.758Z" fill="#0B1A48"/>
<path d="M113.82 103H71.1805C70.5286 103 70 102.457 70 101.787V96.2131C70 95.5433 70.5286 95 71.1805 95H113.82C114.471 95 115 95.5433 115 96.2131V101.787C115 102.457 114.471 103 113.82 103V103ZM72.3609 100.575H112.64V97.4276H72.3609V100.575Z" fill="#0B1A48"/>
<path d="M107.984 120H78.0139C77.4624 120 76.9842 119.621 76.8608 119.087L73.0299 102.44C72.8847 101.807 73.2819 101.176 73.9182 101.03C74.5546 100.886 75.1883 101.281 75.3349 101.914L78.9562 117.646H107.043L110.665 101.914C110.81 101.281 111.445 100.884 112.081 101.03C112.718 101.175 113.116 101.807 112.97 102.44L109.139 119.087C109.015 119.621 108.537 120 107.986 120H107.984Z" fill="#0B1A48"/>
<path d="M93 116C92.4356 116 92 115.464 92 114.804V106.196C92 105.536 92.4356 105 93 105C93.5644 105 94 105.536 94 106.196V114.804C94 115.464 93.5644 116 93 116Z" fill="#0B1A48"/>
<path d="M98.0315 116C97.9878 116 97.9453 115.997 97.9005 115.991C97.3363 115.908 96.9367 115.311 97.0083 114.657L97.9487 106.044C98.0203 105.39 98.5353 104.928 99.0995 105.009C99.6637 105.092 100.063 105.69 99.9917 106.344L99.0513 114.956C98.9853 115.56 98.542 116 98.0315 116V116Z" fill="#0B1A48"/>
<path d="M103.307 116C103.201 116 103.093 115.988 102.986 115.964C102.288 115.801 101.863 115.152 102.04 114.514L104.427 105.901C104.604 105.263 105.315 104.875 106.014 105.037C106.712 105.199 107.137 105.848 106.96 106.487L104.573 115.099C104.424 115.64 103.891 116 103.307 116V116Z" fill="#0B1A48"/>
<path d="M86.9685 116C86.4569 116 86.0147 115.559 85.9487 114.956L85.0083 106.344C84.9367 105.69 85.3363 105.093 85.9005 105.01C86.4647 104.927 86.9797 105.39 87.0513 106.044L87.9917 114.657C88.0633 115.311 87.6637 115.908 87.0995 115.991C87.0558 115.997 87.0122 116 86.9685 116V116Z" fill="#0B1A48"/>
<path d="M82.6925 116C82.1087 116 81.5774 115.639 81.4268 115.099L79.0405 106.487C78.8629 105.848 79.2862 105.198 79.9865 105.037C80.6854 104.875 81.397 105.262 81.5732 105.901L83.9595 114.514C84.1371 115.152 83.7138 115.803 83.0135 115.964C82.9056 115.988 82.7976 116 82.6925 116V116Z" fill="#0B1A48"/>
<path d="M73.2107 96.9987C72.9525 96.9987 72.693 96.9202 72.473 96.7569C71.9422 96.3644 71.8434 95.6338 72.2517 95.1236L79.1923 86.4544C79.5914 85.9555 80.3317 85.8517 80.8626 86.2214L85.498 89.4424C86.0407 89.8198 86.1619 90.5478 85.7706 91.0682C85.3781 91.5898 84.6207 91.7063 84.0793 91.3302L80.3963 88.7714L74.1736 96.5455C73.9352 96.843 73.5756 97 73.212 97L73.2107 96.9987Z" fill="#0B1A48"/>
<path d="M109.795 97C109.228 97 108.724 96.6146 108.615 96.0614L107.126 88.4502L101.377 89.2649C100.721 89.3575 100.11 88.9233 100.013 88.295C99.9163 87.6668 100.37 87.0811 101.026 86.9885L107.919 86.0124C108.558 85.9223 109.158 86.3315 109.277 86.9385L110.979 95.6372C111.102 96.2617 110.672 96.8636 110.019 96.98C109.944 96.9937 109.87 97 109.797 97H109.795Z" fill="#0B1A48"/>
<path d="M85.0095 96.9987C84.5663 96.9987 84.1424 96.7464 83.9426 96.3177C83.3176 94.9774 83 93.5419 83 92.0524C83 86.5086 87.4864 82 93 82C98.5136 82 103 86.5099 103 92.0524C103 93.4093 102.735 94.7251 102.214 95.9662C101.96 96.5687 101.27 96.8507 100.67 96.5957C100.071 96.3408 99.7905 95.6456 100.044 95.0444C100.442 94.0981 100.645 93.0913 100.645 92.0536C100.645 87.8167 97.2149 84.3689 93 84.3689C88.7851 84.3689 85.3553 87.8167 85.3553 92.0536C85.3553 93.1943 85.5973 94.2912 86.0751 95.3135C86.3517 95.9057 86.0981 96.6112 85.509 96.888C85.3476 96.964 85.1773 97 85.0095 97V96.9987Z" fill="#0B1A48"/>
<path d="M30.4219 37C30.1093 37 29.807 36.879 29.5822 36.6573L11.9954 19.3126L2.33257 20.4808C1.76159 20.5496 1.22419 20.2069 1.05367 19.6655C0.883149 19.1241 1.12989 18.5406 1.63886 18.2795L9.70628 14.1328C10.0331 13.9647 10.4207 13.9557 10.7552 14.1086L35.3115 25.3345C35.9057 25.6059 36.1641 26.3002 35.8915 26.8862L31.5019 36.3172C31.3391 36.6662 31.0149 36.9134 30.6325 36.9822C30.5627 36.9949 30.493 37 30.4232 37H30.4219ZM14.3762 18.347L30.055 33.8088L33.2381 26.9703L14.3762 18.347ZM10.2863 16.4769L8.55269 17.3686L11.4657 17.017L10.2863 16.4781V16.4769Z" fill="#0B1A48"/>
<path d="M20.3751 50C20.0728 50 19.7693 49.8842 19.539 49.654L0.346878 30.4629C0.0896271 30.2057 -0.0351394 29.8456 0.00859322 29.4842L1.23696 19.3285C1.30256 18.7896 1.72574 18.3651 2.26339 18.297L12.4788 17.0095C12.8415 16.9632 13.2043 17.088 13.4628 17.3465L32.6537 36.5363C33.1154 36.998 33.1154 37.7479 32.6537 38.2096L21.2099 49.6527C20.9784 49.8842 20.6761 49.9987 20.3738 49.9987L20.3751 50ZM2.42803 29.1973L20.3751 47.1434L30.1455 37.3736L12.201 19.4301L3.47504 20.5298L2.42675 29.1986L2.42803 29.1973Z" fill="#0B1A48"/>
<path d="M7.56057 22.4394C8.14648 23.0253 8.14648 23.9747 7.56057 24.5606C6.97467 25.1465 6.02533 25.1465 5.43943 24.5606C4.85352 23.9747 4.85352 23.0253 5.43943 22.4394C6.02533 21.8535 6.97467 21.8535 7.56057 22.4394Z" fill="#0B1A48"/>
<path d="M6.5006 26C5.83193 26 5.20415 25.7403 4.73151 25.2677C3.75616 24.2926 3.75616 22.7065 4.73151 21.7314C5.70685 20.7562 7.29315 20.7562 8.26849 21.7314C9.24384 22.7065 9.24384 24.2926 8.26849 25.2677C7.79585 25.7403 7.16807 26 6.4994 26H6.5006ZM6.5006 23.2104C6.44648 23.2104 6.36591 23.2248 6.29615 23.2945C6.1831 23.4076 6.1831 23.5903 6.29615 23.7034C6.36591 23.7731 6.44528 23.7875 6.5006 23.7875C6.55592 23.7875 6.6353 23.7731 6.70505 23.7034C6.8181 23.5903 6.8181 23.4076 6.70505 23.2945C6.6353 23.2248 6.55592 23.2104 6.5006 23.2104Z" fill="#0B1A48"/>
<path d="M5.78572 24C5.47564 24 5.16423 23.8827 4.92804 23.6493L1.16876 19.9355C-0.389585 18.396 -0.389585 15.8905 1.16876 14.351C1.64246 13.883 2.41173 13.883 2.88544 14.351C3.35914 14.819 3.35914 15.5789 2.88544 16.0469C2.27319 16.6518 2.27319 17.6347 2.88544 18.2395L6.64472 21.9534C7.11843 22.4214 7.11843 23.1814 6.64472 23.6493C6.40721 23.884 6.09713 24 5.78704 24H5.78572Z" fill="#0B1A48"/>
<path d="M6.88889 88H5.11111C4.49758 88 4 87.3021 4 86.5C4 85.6979 4.49758 85 5.11111 85H6.88889C7.50242 85 8 85.6979 8 86.5C8 87.3021 7.50242 88 6.88889 88V88Z" fill="#FFB300"/>
<path d="M14.6842 88H12.3158C11.5892 88 11 87.3021 11 86.5C11 85.6979 11.5892 85 12.3158 85H14.6842C15.4108 85 16 85.6979 16 86.5C16 87.3021 15.4108 88 14.6842 88Z" fill="#FFB300"/>
<path d="M10 92C9.43556 92 9 91.5024 9 90.8889V89.1111C9 88.4976 9.43556 88 10 88C10.5644 88 11 88.4976 11 89.1111V90.8889C11 91.5024 10.5644 92 10 92Z" fill="#FFB300"/>
<path d="M10 85C9.43556 85 9 84.4108 9 83.6842V81.3158C9 80.5892 9.43556 80 10 80C10.5644 80 11 80.5892 11 81.3158V83.6842C11 84.4108 10.5644 85 10 85Z" fill="#FFB300"/>
<path d="M107.889 64H106.111C105.498 64 105 63.5644 105 63C105 62.4356 105.498 62 106.111 62H107.889C108.502 62 109 62.4356 109 63C109 63.5644 108.502 64 107.889 64Z" fill="#FFB300"/>
<path d="M115.684 64H113.316C112.589 64 112 63.5644 112 63C112 62.4356 112.589 62 113.316 62H115.684C116.411 62 117 62.4356 117 63C117 63.5644 116.411 64 115.684 64Z" fill="#FFB300"/>
<path d="M111.5 69C110.698 69 110 68.5024 110 67.8889V66.1111C110 65.4976 110.698 65 111.5 65C112.302 65 113 65.4976 113 66.1111V67.8889C113 68.5024 112.302 69 111.5 69Z" fill="#FFB300"/>
<path d="M111.5 62C110.698 62 110 61.4108 110 60.6842V58.3158C110 57.5892 110.698 57 111.5 57C112.302 57 113 57.5892 113 58.3158V60.6842C113 61.4108 112.302 62 111.5 62Z" fill="#FFB300"/>
<path d="M88.8889 8H87.1111C86.4976 8 86 7.30211 86 6.5C86 5.69789 86.4976 5 87.1111 5H88.8889C89.5024 5 90 5.69789 90 6.5C90 7.30211 89.5024 8 88.8889 8Z" fill="#FFB300"/>
<path d="M96.6842 8H94.3158C93.5892 8 93 7.30211 93 6.5C93 5.69789 93.5892 5 94.3158 5H96.6842C97.4108 5 98 5.69789 98 6.5C98 7.30211 97.4108 8 96.6842 8Z" fill="#FFB300"/>
<path d="M92.5 12C91.6979 12 91 11.5024 91 10.8889V9.11111C91 8.49758 91.6979 8 92.5 8C93.3021 8 94 8.49758 94 9.11111V10.8889C94 11.5024 93.3021 12 92.5 12Z" fill="#FFB300"/>
<path d="M92.5 5C91.6979 5 91 4.41076 91 3.68421V1.31579C91 0.589245 91.6979 0 92.5 0C93.3021 0 94 0.589245 94 1.31579V3.68421C94 4.41076 93.3021 5 92.5 5Z" fill="#FFB300"/>
<path d="M18 70C16.3455 70 15 68.6545 15 67C15 65.3455 16.3455 64 18 64C19.6545 64 21 65.3455 21 67C21 68.6545 19.6545 70 18 70ZM18 66.2384C17.5803 66.2384 17.2384 66.5803 17.2384 67C17.2384 67.4197 17.5803 67.7616 18 67.7616C18.4197 67.7616 18.7616 67.4197 18.7616 67C18.7616 66.5803 18.4197 66.2384 18 66.2384Z" fill="#0B1A48"/>
<path d="M102 21C100.345 21 99 19.6545 99 18C99 16.3455 100.345 15 102 15C103.655 15 105 16.3455 105 18C105 19.6545 103.655 21 102 21ZM102 17.2384C101.58 17.2384 101.238 17.5803 101.238 18C101.238 18.4197 101.58 18.7616 102 18.7616C102.42 18.7616 102.762 18.4197 102.762 18C102.762 17.5803 102.42 17.2384 102 17.2384Z" fill="#0B1A48"/>
</svg>
