<svg width="48" height="48" viewBox="0 0 48 48" fill="none" xmlns="http://www.w3.org/2000/svg">
<rect width="48" height="48" rx="6" fill="white" fill-opacity="0.2"/>
<path d="M37.1036 20.9999L35.9374 19.8336L36.0825 19.6886C36.6931 19.078 36.6933 18.0896 36.0825 17.479C35.2924 16.6888 32.2939 13.6903 30.9377 12.3341L31.2707 12.0011C31.5758 11.6961 31.5758 11.2015 31.2707 10.8964C30.9657 10.5913 30.471 10.5913 30.1659 10.8964C29.3263 11.736 11.7574 29.3049 10.8964 30.1659C10.4028 30.6595 10.7591 31.4995 11.4487 31.4995C11.6487 31.4995 11.8486 31.4232 12.0011 31.2706L12.3341 30.9376L17.479 36.0825C18.088 36.6915 19.0793 36.6917 19.6885 36.0825L19.8336 35.9373L20.9999 37.1036C21.1524 37.2561 21.3524 37.3324 21.5522 37.3324C22.2419 37.3324 22.5982 36.4924 22.1046 35.9989L20.9383 34.8326L22.3334 33.4375L23.4476 34.5517C23.6001 34.7043 23.8001 34.7806 23.9999 34.7806C24.6896 34.7806 25.0459 33.9405 24.5523 33.447L23.4381 32.3328L27.333 28.4379L28.4471 29.5521C28.5997 29.7047 28.7996 29.781 28.9995 29.781C29.6892 29.781 30.0455 28.9409 29.5519 28.4474L28.4377 27.3332L29.8328 25.9381L30.9469 27.0523C31.0995 27.2049 31.2994 27.2812 31.4993 27.2812C32.189 27.2812 32.5453 26.4411 32.0516 25.9476L30.9375 24.8334L32.3326 23.4384L33.4467 24.5526C33.5992 24.7051 33.7992 24.7814 33.9991 24.7814C34.6888 24.7814 35.045 23.9413 34.5514 23.4478L33.4373 22.3336L34.8323 20.9386L35.9986 22.1049C36.1511 22.2574 36.351 22.3337 36.5509 22.3337C37.241 22.3335 37.5973 21.4935 37.1036 20.9999V20.9999ZM31.4364 15.0424L29.208 17.2707L27.6046 15.6673L29.833 13.439L31.4364 15.0424ZM22.7501 20.5218L24.3535 22.1252L22.1251 24.3536L20.5217 22.7502C21.3013 21.9707 21.9706 21.3013 22.7501 20.5218V20.5218ZM13.4389 29.833L15.6673 27.6047L17.2706 29.2081L15.0423 31.4364L13.4389 29.833ZM16.1471 32.5412L18.9278 29.7604C19.2329 29.4554 19.2329 28.9608 18.9278 28.6557L16.772 26.4999L19.417 23.8549L21.5728 26.0107C21.8779 26.3158 22.3724 26.3158 22.6775 26.0107L26.0106 22.6776C26.3157 22.3725 26.3157 21.8779 26.0106 21.5728L23.8548 19.417L26.4998 16.772L28.6556 18.9278C28.9607 19.233 29.4553 19.2329 29.7604 18.9278L32.5411 16.1471L34.9778 18.5837L18.5837 34.9779L16.1471 32.5412Z" fill="white"/>
</svg>
