<svg width="53" height="53" viewBox="0 0 53 53" fill="none" xmlns="http://www.w3.org/2000/svg">
<path d="M13.4068 13.0815C20.6315 5.85678 32.3451 5.85678 39.5698 13.0815C46.7945 20.3062 46.7945 32.0197 39.5698 39.2444L26.4883 52.3259L13.4068 39.2444C6.18211 32.0197 6.18211 20.3062 13.4068 13.0815Z" fill="#0B1A48"/>
<path d="M21.4198 34V32.64L25.5398 28.18C26.3532 27.3133 26.9998 26.6 27.4798 26.04C27.9732 25.48 28.3332 24.98 28.5598 24.54C28.7865 24.1 28.8998 23.6333 28.8998 23.14C28.8998 22.3267 28.6598 21.7 28.1798 21.26C27.6998 20.82 27.0665 20.6 26.2798 20.6C25.4798 20.6 24.7998 20.8333 24.2398 21.3C23.6798 21.7533 23.2932 22.4 23.0798 23.24L21.2998 22.78C21.4732 21.98 21.7932 21.2867 22.2598 20.7C22.7265 20.1133 23.3065 19.66 23.9998 19.34C24.6932 19.02 25.4532 18.86 26.2798 18.86C27.1865 18.86 27.9798 19.04 28.6598 19.4C29.3532 19.7467 29.8932 20.2333 30.2798 20.86C30.6798 21.4867 30.8798 22.2133 30.8798 23.04C30.8798 23.5867 30.7665 24.12 30.5398 24.64C30.3132 25.16 29.9798 25.7133 29.5398 26.3C29.0998 26.8733 28.5265 27.54 27.8198 28.3L24.1398 32.3H31.1998V34H21.4198Z" fill="white"/>
</svg>
