<svg width="228" height="458" viewBox="0 0 228 458" fill="none" xmlns="http://www.w3.org/2000/svg">
<path d="M223.659 31.3995V426.6C223.659 427.988 223.554 429.357 223.352 430.695C223.297 431.026 223.242 431.362 223.181 431.68C222.862 433.342 222.391 434.95 221.785 436.49C221.668 436.808 221.534 437.126 221.399 437.431C220.542 439.375 219.458 441.203 218.19 442.884C218.068 443.037 217.939 443.208 217.817 443.36C216.941 444.479 215.961 445.512 214.926 446.484C214.504 446.875 214.069 447.248 213.622 447.609C213.469 447.743 213.303 447.871 213.144 447.988C212.666 448.36 212.177 448.715 211.668 449.057C211.638 449.082 211.607 449.106 211.576 449.125C211.264 449.32 210.952 449.522 210.646 449.711C210.297 449.925 209.941 450.127 209.586 450.329C209.225 450.518 208.864 450.714 208.496 450.891C208.319 450.977 208.129 451.068 207.951 451.154C207.767 451.246 207.578 451.331 207.394 451.411C206.83 451.661 206.255 451.881 205.673 452.095C205.287 452.236 204.895 452.37 204.503 452.486C204.307 452.548 204.105 452.609 203.909 452.664C203.309 452.823 202.697 452.981 202.085 453.104C201.889 453.147 201.68 453.189 201.466 453.226C201.252 453.263 201.05 453.299 200.841 453.33C200.425 453.397 200.002 453.458 199.58 453.501C199.28 453.544 198.986 453.562 198.686 453.587C198.435 453.605 198.19 453.617 197.939 453.629C197.473 453.654 197.014 453.666 196.543 453.666H31.4703C30.9927 453.666 30.5273 453.654 30.0619 453.629C29.8108 453.617 29.5658 453.605 29.3148 453.587C28.831 453.55 28.3533 453.507 27.8634 453.452C28.0472 453.47 28.2309 453.483 28.4146 453.501C14.8872 451.979 4.33594 440.494 4.33594 426.594V31.3995C4.33594 16.9435 15.7445 5.09757 30.0557 4.35796H30.0741C30.5334 4.33351 30.9927 4.32129 31.4642 4.32129H196.536C197.008 4.32129 197.461 4.33351 197.927 4.35796H197.933C198.184 4.37019 198.429 4.38241 198.68 4.40075C198.919 4.41909 199.164 4.44354 199.408 4.46188C213.015 5.90441 223.665 17.4325 223.665 31.3933L223.659 31.3995Z" fill="white" stroke="#D1D1D1" stroke-miterlimit="10"/>
<path d="M196.537 0.611328H31.4648C14.4285 0.611328 0.613281 14.3949 0.613281 31.3998V426.6C0.613281 443.605 14.4285 457.389 31.4648 457.389H196.537C213.573 457.389 227.389 443.605 227.389 426.6V31.3998C227.389 14.3949 213.573 0.611328 196.537 0.611328ZM214.927 446.49C214.504 446.882 214.069 447.254 213.622 447.615C213.469 447.75 213.304 447.878 213.145 447.994C212.667 448.367 212.177 448.721 211.669 449.064C211.638 449.088 211.608 449.113 211.577 449.131C211.265 449.327 210.952 449.528 210.646 449.718C210.297 449.932 209.942 450.133 209.587 450.335C209.225 450.525 208.864 450.72 208.497 450.897C208.319 450.983 208.129 451.075 207.952 451.16C207.768 451.252 207.578 451.338 207.394 451.417C206.831 451.668 206.255 451.888 205.674 452.102C205.288 452.242 204.896 452.377 204.504 452.493C204.308 452.554 204.106 452.615 203.91 452.67C203.31 452.829 202.698 452.988 202.085 453.11C201.889 453.153 201.681 453.196 201.467 453.232C201.252 453.269 201.05 453.306 200.842 453.336C200.426 453.404 200.003 453.465 199.581 453.507C199.28 453.55 198.987 453.569 198.686 453.593C198.435 453.611 198.19 453.624 197.939 453.636C197.474 453.66 197.015 453.672 196.543 453.672H31.4709C30.9933 453.672 30.5279 453.66 30.0625 453.636C29.8114 453.624 29.5664 453.611 29.3154 453.593C28.8316 453.556 28.3539 453.514 27.864 453.459C28.0477 453.477 28.2315 453.489 28.4152 453.507C14.8878 451.985 4.33653 440.5 4.33653 426.6V31.3998C4.33653 16.9438 15.7451 5.09787 30.0563 4.35826H30.0747C30.534 4.33381 30.9933 4.32159 31.4648 4.32159H196.537C197.009 4.32159 197.462 4.33381 197.927 4.35826H197.933C198.184 4.37049 198.429 4.38271 198.68 4.40105C198.919 4.41939 199.164 4.44384 199.409 4.46217C213.016 5.90471 223.665 17.4328 223.665 31.3936V426.6C223.665 427.988 223.561 429.357 223.359 430.696C223.304 431.026 223.249 431.362 223.188 431.68C222.869 433.342 222.398 434.95 221.791 436.49C221.675 436.808 221.54 437.126 221.406 437.432C220.548 439.375 219.464 441.203 218.197 442.884C218.074 443.037 217.946 443.208 217.823 443.361C216.948 444.479 215.968 445.512 214.933 446.484L214.927 446.49Z" fill="white" stroke="#D1D1D1" stroke-miterlimit="10"/>
<path d="M125.397 16.6748H101.221C100.622 16.6748 100.137 17.1592 100.137 17.7567V18.3557C100.137 18.9532 100.622 19.4376 101.221 19.4376H125.397C125.996 19.4376 126.481 18.9532 126.481 18.3557V17.7567C126.481 17.1592 125.996 16.6748 125.397 16.6748Z" fill="white" stroke="#D1D1D1" stroke-miterlimit="10"/>
<path d="M197.632 14.939H197.485L197.265 14.9146C197.001 14.9023 196.762 14.9023 196.536 14.9023H172.72C171.355 14.9696 170.259 16.0209 170.118 17.3657C170.118 17.4573 170.106 17.549 170.106 17.6468V17.6835C169.781 24.6517 164.019 30.1957 156.964 30.1957H71.0354C63.9808 30.1957 58.2183 24.6517 57.8938 17.6835V17.6468C57.8938 17.549 57.8938 17.4573 57.8815 17.3657C57.7468 16.0209 56.6445 14.9696 55.2789 14.9023H31.4697C31.2493 14.9023 31.0043 14.9023 30.741 14.9146L30.5205 14.939H30.3736C21.7023 15.5075 14.9355 22.7079 14.9355 31.406V426.601C14.9355 435.152 21.6227 442.383 30.1592 443.049C30.245 443.049 30.3123 443.061 30.3797 443.067H30.5818L30.6185 443.08C30.9063 443.092 31.188 443.104 31.4758 443.104H196.53C196.817 443.104 197.105 443.092 197.387 443.08H197.522L197.565 443.067H197.62C197.687 443.067 197.754 443.055 197.84 443.049C206.371 442.383 213.064 435.152 213.064 426.601V31.406C213.064 22.7079 206.297 15.5014 197.626 14.939H197.632Z" fill="white" stroke="#D1D1D1" stroke-miterlimit="10"/>
</svg>
