<svg width="20" height="20" viewBox="0 0 20 20" fill="none" xmlns="http://www.w3.org/2000/svg">
<path d="M10.0016 9.05825L17.8849 4.43325C17.6579 4.09747 17.3528 3.82189 16.9956 3.63026C16.6385 3.43863 16.2402 3.3367 15.8349 3.33325H4.16823C3.76088 3.33307 3.35965 3.43244 2.99947 3.6227C2.63928 3.81296 2.33104 4.08835 2.10156 4.42492L10.0016 9.05825Z" fill="#2A27E9"/>
<path d="M10.8346 10.4915C10.5814 10.6384 10.294 10.716 10.0013 10.7165C9.70934 10.7185 9.42197 10.6438 9.16797 10.4998L1.66797 6.10815V14.1665C1.66797 14.8295 1.93136 15.4654 2.4002 15.9343C2.86904 16.4031 3.50493 16.6665 4.16797 16.6665H15.8346C16.4977 16.6665 17.1336 16.4031 17.6024 15.9343C18.0712 15.4654 18.3346 14.8295 18.3346 14.1665V6.10815L10.8346 10.4915Z" fill="#2A27E9"/>
</svg>
