<svg width="33" height="32" viewBox="0 0 33 32" fill="none" xmlns="http://www.w3.org/2000/svg">
<path d="M27.8 8H26.24C26.6036 7.39601 26.7971 6.70496 26.8 6C26.8 4.93913 26.3786 3.92172 25.6285 3.17157C24.8783 2.42143 23.8609 2 22.8 2C21.5906 2.00161 20.4021 2.31658 19.3506 2.91419C18.2991 3.51181 17.4203 4.37169 16.8 5.41C16.1798 4.37169 15.301 3.51181 14.2495 2.91419C13.198 2.31658 12.0095 2.00161 10.8 2C9.73918 2 8.72177 2.42143 7.97162 3.17157C7.22148 3.92172 6.80005 4.93913 6.80005 6C6.803 6.70496 6.9965 7.39601 7.36005 8H5.80005C5.0044 8 4.24134 8.31607 3.67873 8.87868C3.11612 9.44129 2.80005 10.2044 2.80005 11V15C2.80005 15.2652 2.90541 15.5196 3.09294 15.7071C3.28048 15.8946 3.53483 16 3.80005 16H4.80005V27C4.80005 27.7956 5.11612 28.5587 5.67873 29.1213C6.24134 29.6839 7.0044 30 7.80005 30H25.8C26.5957 30 27.3588 29.6839 27.9214 29.1213C28.484 28.5587 28.8 27.7956 28.8 27V16H29.8C30.0653 16 30.3196 15.8946 30.5072 15.7071C30.6947 15.5196 30.8 15.2652 30.8 15V11C30.8 10.2044 30.484 9.44129 29.9214 8.87868C29.3588 8.31607 28.5957 8 27.8 8ZM22.8 4C23.3305 4 23.8392 4.21071 24.2143 4.58579C24.5893 4.96086 24.8 5.46957 24.8 6C24.8 6.53043 24.5893 7.03914 24.2143 7.41421C23.8392 7.78929 23.3305 8 22.8 8H17.9C18.1306 6.87064 18.7442 5.8556 19.6371 5.12669C20.5301 4.39778 21.6474 3.99976 22.8 4ZM14.8 10H18.8V28H14.8V10ZM8.80005 6C8.80005 5.46957 9.01076 4.96086 9.38584 4.58579C9.76091 4.21071 10.2696 4 10.8 4C11.9527 3.99976 13.07 4.39778 13.963 5.12669C14.8559 5.8556 15.4695 6.87064 15.7 8H10.8C10.2696 8 9.76091 7.78929 9.38584 7.41421C9.01076 7.03914 8.80005 6.53043 8.80005 6ZM4.80005 11C4.80005 10.7348 4.90541 10.4804 5.09294 10.2929C5.28048 10.1054 5.53483 10 5.80005 10H12.8V14H4.80005V11ZM6.80005 27V16H12.8V28H7.80005C7.53483 28 7.28048 27.8946 7.09294 27.7071C6.90541 27.5196 6.80005 27.2652 6.80005 27ZM26.8 27C26.8 27.2652 26.6947 27.5196 26.5072 27.7071C26.3196 27.8946 26.0653 28 25.8 28H20.8V16H26.8V27ZM28.8 14H20.8V10H27.8C28.0653 10 28.3196 10.1054 28.5072 10.2929C28.6947 10.4804 28.8 10.7348 28.8 11V14Z" fill="#0B1A48"/>
</svg>
