<svg width="24" height="24" viewBox="0 0 24 24" fill="none" xmlns="http://www.w3.org/2000/svg">
<path d="M12.7692 5H8.04207C5.66133 5 3.64758 6.76083 3.32996 9.12029L2.41922 15.8858C2.19734 17.5341 3.47916 19 5.14229 19V19C6.2322 19 7.21907 18.3558 7.65765 17.358L8.28205 15.9375" stroke="#0B1A48" stroke-width="1.5"/>
<path d="M12.7692 5H15.9905C18.2571 5 20.1998 6.61996 20.6072 8.84967L21.952 16.211C22.2172 17.6628 21.1022 19 19.6264 19V19C18.6564 19 17.7848 18.4075 17.428 17.5056L16.8077 15.9375" stroke="#0B1A48" stroke-width="1.5"/>
<circle cx="9" cy="14" r="2" stroke="#0B1A48" stroke-width="1.5"/>
<circle cx="16" cy="14" r="2" stroke="#0B1A48" stroke-width="1.5"/>
</svg>
