<svg width="120" height="120" viewBox="0 0 120 120" fill="none" xmlns="http://www.w3.org/2000/svg">
<path d="M19.2143 72.4284V53.0066H22.3593L22.6904 54.9653H22.8835C23.3617 54.1745 23.987 53.5951 24.7595 53.2273C25.5319 52.8594 26.3871 52.6755 27.3251 52.6755C28.539 52.6755 29.5781 52.9422 30.4425 53.4756C31.3254 54.0089 31.9967 54.8366 32.4565 55.9585C32.9346 57.0804 33.1737 58.5241 33.1737 60.2898C33.1737 62.0002 32.9346 63.4164 32.4565 64.5383C31.9783 65.6602 31.307 66.497 30.4425 67.0488C29.5965 67.5821 28.6034 67.8488 27.4631 67.8488C26.8377 67.8488 26.2584 67.7753 25.725 67.6281C25.1917 67.4994 24.7135 67.2879 24.2905 66.9936C23.8675 66.6993 23.5088 66.3407 23.2145 65.9177H23.049V72.4284H19.2143ZM26.1388 64.7038C26.9113 64.7038 27.5182 64.5567 27.9596 64.2624C28.4194 63.9497 28.7505 63.49 28.9528 62.883C29.1551 62.2577 29.2563 61.4944 29.2563 60.5932V59.9587C29.2563 59.0391 29.1551 58.2759 28.9528 57.6689C28.7505 57.0436 28.4194 56.5838 27.9596 56.2895C27.5182 55.9769 26.9113 55.8205 26.1388 55.8205C25.4216 55.8205 24.833 55.9861 24.3732 56.3171C23.9134 56.6482 23.5732 57.1264 23.3525 57.7517C23.1318 58.377 23.0214 59.1311 23.0214 60.0139V60.4829C23.0214 61.1266 23.0858 61.7151 23.2145 62.2485C23.3433 62.7635 23.5272 63.2049 23.7663 63.5727C24.0238 63.9406 24.3456 64.2256 24.7319 64.4279C25.1181 64.6119 25.5871 64.7038 26.1388 64.7038Z" fill="#0B1A48"/>
<path d="M34.8952 67.5178V47.5718H38.7299V54.6067H38.923C39.2357 54.2204 39.6035 53.8894 40.0265 53.6135C40.4679 53.3192 40.9553 53.0893 41.4887 52.9238C42.0404 52.7583 42.6382 52.6755 43.2819 52.6755C44.2383 52.6755 45.0751 52.8502 45.7924 53.1997C46.5097 53.5491 47.0614 54.1009 47.4476 54.855C47.8523 55.609 48.0546 56.593 48.0546 57.8069V67.5178H44.2199V58.4138C44.2199 57.954 44.1647 57.5678 44.0543 57.2551C43.944 56.924 43.7785 56.6574 43.5578 56.4551C43.3554 56.2344 43.098 56.078 42.7853 55.9861C42.4726 55.8941 42.1232 55.8481 41.737 55.8481C41.1668 55.8481 40.6518 55.9861 40.192 56.2619C39.7322 56.5378 39.3736 56.9149 39.1161 57.393C38.8586 57.8712 38.7299 58.423 38.7299 59.0483V67.5178H34.8952Z" fill="#0B1A48"/>
<path d="M57.0637 67.8488C55.482 67.8488 54.1394 67.5821 53.0359 67.0488C51.9324 66.497 51.0956 65.6602 50.5254 64.5383C49.9553 63.398 49.6702 61.9726 49.6702 60.2622C49.6702 58.5149 49.9553 57.0896 50.5254 55.9861C51.0956 54.8642 51.9324 54.0365 53.0359 53.5032C54.1394 52.9514 55.482 52.6755 57.0637 52.6755C58.6822 52.6755 60.034 52.9514 61.1191 53.5032C62.2226 54.0365 63.0595 54.8642 63.6296 55.9861C64.1998 57.0896 64.4848 58.5149 64.4848 60.2622C64.4848 61.9726 64.1998 63.398 63.6296 64.5383C63.0595 65.6602 62.2226 66.497 61.1191 67.0488C60.034 67.5821 58.6822 67.8488 57.0637 67.8488ZM57.0637 64.8693C57.9097 64.8693 58.581 64.713 59.0776 64.4003C59.5926 64.0877 59.9696 63.6095 60.2087 62.9658C60.4478 62.3221 60.5674 61.5312 60.5674 60.5932V59.9311C60.5674 58.9931 60.4478 58.2023 60.2087 57.5586C59.9696 56.9149 59.5926 56.4367 59.0776 56.124C58.581 55.7929 57.9097 55.6274 57.0637 55.6274C56.2361 55.6274 55.5648 55.7929 55.0498 56.124C54.5532 56.4367 54.1854 56.9149 53.9463 57.5586C53.7072 58.2023 53.5877 58.9931 53.5877 59.9311V60.5932C53.5877 61.5312 53.7072 62.3221 53.9463 62.9658C54.1854 63.6095 54.5532 64.0877 55.0498 64.4003C55.5648 64.713 56.2361 64.8693 57.0637 64.8693Z" fill="#0B1A48"/>
<path d="M66.203 67.5178V53.0066H69.3756L69.6791 54.9929H69.8722C70.2033 54.5147 70.5987 54.1009 71.0585 53.7515C71.5367 53.402 72.0701 53.1353 72.6586 52.9514C73.2471 52.7675 73.8909 52.6755 74.5897 52.6755C75.5461 52.6755 76.3829 52.8502 77.1002 53.1997C77.8175 53.5491 78.3693 54.1009 78.7555 54.855C79.1601 55.609 79.3624 56.593 79.3624 57.8069V67.5178H75.5277V58.4138C75.5277 57.954 75.4726 57.5678 75.3622 57.2551C75.2519 56.924 75.0863 56.6574 74.8656 56.4551C74.6633 56.2344 74.4058 56.078 74.0932 55.9861C73.7805 55.8941 73.4311 55.8481 73.0448 55.8481C72.4747 55.8481 71.9597 55.9861 71.4999 56.2619C71.0401 56.5378 70.6815 56.9149 70.424 57.393C70.1665 57.8712 70.0377 58.423 70.0377 59.0483V67.5178H66.203Z" fill="#0B1A48"/>
<path d="M88.2888 67.8488C86.6887 67.8488 85.3461 67.5821 84.261 67.0488C83.1759 66.497 82.3574 65.6602 81.8057 64.5383C81.2539 63.4164 80.9781 61.991 80.9781 60.2622C80.9781 58.5149 81.2539 57.0896 81.8057 55.9861C82.3574 54.8642 83.1667 54.0365 84.2334 53.5032C85.3185 52.9514 86.6427 52.6755 88.2061 52.6755C89.6774 52.6755 90.9189 52.9422 91.9304 53.4756C92.942 53.9905 93.7052 54.7998 94.2202 55.9033C94.7352 56.9884 94.9927 58.3954 94.9927 60.1242V61.1174H84.8679C84.9047 61.9634 85.0335 62.6807 85.2542 63.2692C85.4933 63.8578 85.8519 64.2992 86.3301 64.5935C86.8267 64.8693 87.4796 65.0073 88.2888 65.0073C88.7302 65.0073 89.1256 64.9521 89.4751 64.8418C89.8429 64.7314 90.1556 64.5659 90.4131 64.3452C90.6706 64.1245 90.8729 63.8486 91.02 63.5175C91.1672 63.1865 91.2407 62.8095 91.2407 62.3864H94.9927C94.9927 63.306 94.8271 64.1061 94.4961 64.7866C94.165 65.4671 93.7052 66.0372 93.1167 66.497C92.5281 66.9384 91.8201 67.2787 90.9924 67.5178C90.1832 67.7385 89.282 67.8488 88.2888 67.8488ZM84.9231 58.6897H91.0476C91.0476 58.1379 90.974 57.6597 90.8269 57.2551C90.6982 56.8505 90.5142 56.5194 90.2751 56.2619C90.036 56.0045 89.7418 55.8205 89.3923 55.7102C89.0613 55.5814 88.6842 55.5171 88.2612 55.5171C87.5623 55.5171 86.9738 55.6366 86.4956 55.8757C86.0358 56.0964 85.6772 56.4459 85.4197 56.924C85.1806 57.3838 85.0151 57.9724 84.9231 58.6897Z" fill="#0B1A48"/>
<path d="M103.296 67.8488C101.696 67.8488 100.353 67.5821 99.2683 67.0488C98.1832 66.497 97.3648 65.6602 96.813 64.5383C96.2613 63.4164 95.9854 61.991 95.9854 60.2622C95.9854 58.5149 96.2613 57.0896 96.813 55.9861C97.3648 54.8642 98.174 54.0365 99.2408 53.5032C100.326 52.9514 101.65 52.6755 103.213 52.6755C104.685 52.6755 105.926 52.9422 106.938 53.4756C107.949 53.9905 108.713 54.7998 109.228 55.9033C109.743 56.9884 110 58.3954 110 60.1242V61.1174H99.8753C99.9121 61.9634 100.041 62.6807 100.262 63.2692C100.501 63.8578 100.859 64.2992 101.337 64.5935C101.834 64.8693 102.487 65.0073 103.296 65.0073C103.738 65.0073 104.133 64.9521 104.482 64.8418C104.85 64.7314 105.163 64.5659 105.42 64.3452C105.678 64.1245 105.88 63.8486 106.027 63.5175C106.174 63.1865 106.248 62.8095 106.248 62.3864H110C110 63.306 109.834 64.1061 109.503 64.7866C109.172 65.4671 108.713 66.0372 108.124 66.497C107.535 66.9384 106.827 67.2787 106 67.5178C105.191 67.7385 104.289 67.8488 103.296 67.8488ZM99.9305 58.6897H106.055C106.055 58.1379 105.981 57.6597 105.834 57.2551C105.705 56.8505 105.522 56.5194 105.282 56.2619C105.043 56.0045 104.749 55.8205 104.4 55.7102C104.069 55.5814 103.692 55.5171 103.269 55.5171C102.57 55.5171 101.981 55.6366 101.503 55.8757C101.043 56.0964 100.685 56.4459 100.427 56.924C100.188 57.3838 100.022 57.9724 99.9305 58.6897Z" fill="#0B1A48"/>
<path d="M15.7934 64.6207C15.7934 66.2205 14.4965 67.5174 12.8967 67.5174C11.2969 67.5174 10 66.2205 10 64.6207C10 63.0209 11.2969 61.724 12.8967 61.724C14.4965 61.724 15.7934 63.0209 15.7934 64.6207Z" fill="#0B1A48"/>
</svg>
