<svg width="127" height="38" viewBox="0 0 127 38" fill="none" xmlns="http://www.w3.org/2000/svg">
<rect y="5.5" width="47" height="31" rx="5" fill="#2A27E9"/>
<path d="M14.36 32.884C13.016 32.884 11.7893 32.6067 10.68 32.052C9.592 31.4973 8.74933 30.6973 8.152 29.652L8.568 28.98V32.5H5.112V8.276H8.728V18.772L8.152 17.94C8.792 16.9587 9.64533 16.1907 10.712 15.636C11.7787 15.0813 12.9947 14.804 14.36 14.804C16.0027 14.804 17.4747 15.1987 18.776 15.988C20.0987 16.7773 21.1333 17.8547 21.88 19.22C22.648 20.5853 23.032 22.1213 23.032 23.828C23.032 25.5347 22.648 27.0707 21.88 28.436C21.1333 29.8013 20.1093 30.8893 18.808 31.7C17.5067 32.4893 16.024 32.884 14.36 32.884ZM14.008 29.524C15.032 29.524 15.9387 29.2787 16.728 28.788C17.5173 28.2973 18.136 27.6253 18.584 26.772C19.0533 25.8973 19.288 24.916 19.288 23.828C19.288 22.74 19.0533 21.7693 18.584 20.916C18.136 20.0627 17.5173 19.3907 16.728 18.9C15.9387 18.4093 15.032 18.164 14.008 18.164C13.0053 18.164 12.0987 18.4093 11.288 18.9C10.4987 19.3907 9.86933 20.0627 9.4 20.916C8.952 21.7693 8.728 22.74 8.728 23.828C8.728 24.916 8.952 25.8973 9.4 26.772C9.86933 27.6253 10.4987 28.2973 11.288 28.788C12.0987 29.2787 13.0053 29.524 14.008 29.524ZM33.3975 32.884C31.6695 32.884 30.1335 32.4893 28.7895 31.7C27.4668 30.8893 26.4322 29.8013 25.6855 28.436C24.9388 27.0493 24.5655 25.5027 24.5655 23.796C24.5655 22.0467 24.9388 20.5 25.6855 19.156C26.4535 17.812 27.4775 16.756 28.7575 15.988C30.0375 15.1987 31.4882 14.804 33.1095 14.804C34.4108 14.804 35.5735 15.028 36.5975 15.476C37.6215 15.924 38.4855 16.5427 39.1895 17.332C39.8935 18.1 40.4268 18.9853 40.7895 19.988C41.1735 20.9907 41.3655 22.0573 41.3655 23.188C41.3655 23.4653 41.3548 23.7533 41.3335 24.052C41.3122 24.3507 41.2695 24.628 41.2055 24.884H27.4135V22.004H39.1575L37.4295 23.316C37.6428 22.2707 37.5682 21.3427 37.2055 20.532C36.8642 19.7 36.3308 19.0493 35.6055 18.58C34.9015 18.0893 34.0695 17.844 33.1095 17.844C32.1495 17.844 31.2962 18.0893 30.5495 18.58C29.8028 19.0493 29.2268 19.732 28.8215 20.628C28.4162 21.5027 28.2562 22.5693 28.3415 23.828C28.2348 25.0013 28.3948 26.0253 28.8215 26.9C29.2695 27.7747 29.8882 28.4573 30.6775 28.948C31.4882 29.4387 32.4055 29.684 33.4295 29.684C34.4748 29.684 35.3602 29.4493 36.0855 28.98C36.8322 28.5107 37.4188 27.9027 37.8455 27.156L40.7895 28.596C40.4482 29.4067 39.9148 30.1427 39.1895 30.804C38.4855 31.444 37.6322 31.956 36.6295 32.34C35.6482 32.7027 34.5708 32.884 33.3975 32.884Z" fill="white"/>
<path d="M58.512 32.884C56.7413 32.884 55.184 32.4467 53.84 31.572C52.5173 30.6973 51.5893 29.524 51.056 28.052L53.84 26.74C54.3093 27.7213 54.9493 28.5 55.76 29.076C56.592 29.652 57.5093 29.94 58.512 29.94C59.3653 29.94 60.0587 29.748 60.592 29.364C61.1253 28.98 61.392 28.4573 61.392 27.796C61.392 27.3693 61.2747 27.028 61.04 26.772C60.8053 26.4947 60.5067 26.2707 60.144 26.1C59.8027 25.9293 59.4507 25.8013 59.088 25.716L56.368 24.948C54.8747 24.5213 53.7547 23.8813 53.008 23.028C52.2827 22.1533 51.92 21.14 51.92 19.988C51.92 18.9427 52.1867 18.036 52.72 17.268C53.2533 16.4787 53.9893 15.8707 54.928 15.444C55.8667 15.0173 56.9227 14.804 58.096 14.804C59.6747 14.804 61.0827 15.1987 62.32 15.988C63.5573 16.756 64.432 17.8333 64.944 19.22L62.16 20.532C61.8187 19.7 61.2747 19.0387 60.528 18.548C59.8027 18.0573 58.9813 17.812 58.064 17.812C57.2747 17.812 56.6453 18.004 56.176 18.388C55.7067 18.7507 55.472 19.2307 55.472 19.828C55.472 20.2333 55.5787 20.5747 55.792 20.852C56.0053 21.108 56.2827 21.3213 56.624 21.492C56.9653 21.6413 57.3173 21.7693 57.68 21.876L60.496 22.708C61.9253 23.1133 63.024 23.7533 63.792 24.628C64.56 25.4813 64.944 26.5053 64.944 27.7C64.944 28.724 64.6667 29.6307 64.112 30.42C63.5787 31.188 62.832 31.796 61.872 32.244C60.912 32.6707 59.792 32.884 58.512 32.884ZM74.695 32.692C72.8817 32.692 71.4737 32.18 70.471 31.156C69.4683 30.132 68.967 28.692 68.967 26.836V18.452H65.927V15.188H66.407C67.2177 15.188 67.847 14.9533 68.295 14.484C68.743 14.0147 68.967 13.3747 68.967 12.564V11.22H72.583V15.188H76.519V18.452H72.583V26.676C72.583 27.2733 72.679 27.7853 72.871 28.212C73.063 28.6173 73.3723 28.9373 73.799 29.172C74.2257 29.3853 74.7803 29.492 75.463 29.492C75.6337 29.492 75.8257 29.4813 76.039 29.46C76.2523 29.4387 76.455 29.4173 76.647 29.396V32.5C76.3483 32.5427 76.0177 32.5853 75.655 32.628C75.2923 32.6707 74.9723 32.692 74.695 32.692ZM86.9353 32.884C85.2713 32.884 83.7459 32.4893 82.3593 31.7C80.9939 30.9107 79.9059 29.8333 79.0953 28.468C78.2846 27.1027 77.8793 25.556 77.8793 23.828C77.8793 22.0787 78.2846 20.532 79.0953 19.188C79.9059 17.8227 80.9939 16.756 82.3593 15.988C83.7246 15.1987 85.2499 14.804 86.9353 14.804C88.6419 14.804 90.1673 15.1987 91.5113 15.988C92.8766 16.756 93.9539 17.8227 94.7433 19.188C95.5539 20.532 95.9593 22.0787 95.9593 23.828C95.9593 25.5773 95.5539 27.1347 94.7433 28.5C93.9326 29.8653 92.8446 30.9427 91.4793 31.732C90.1139 32.5 88.5993 32.884 86.9353 32.884ZM86.9353 29.524C87.9593 29.524 88.8659 29.2787 89.6553 28.788C90.4446 28.2973 91.0633 27.6253 91.5113 26.772C91.9806 25.8973 92.2153 24.916 92.2153 23.828C92.2153 22.74 91.9806 21.7693 91.5113 20.916C91.0633 20.0627 90.4446 19.3907 89.6553 18.9C88.8659 18.4093 87.9593 18.164 86.9353 18.164C85.9326 18.164 85.0259 18.4093 84.2153 18.9C83.4259 19.3907 82.7966 20.0627 82.3273 20.916C81.8793 21.7693 81.6553 22.74 81.6553 23.828C81.6553 24.916 81.8793 25.8973 82.3273 26.772C82.7966 27.6253 83.4259 28.2973 84.2153 28.788C85.0259 29.2787 85.9326 29.524 86.9353 29.524ZM98.2095 32.5V15.188H101.666V18.676L101.345 18.164C101.73 17.0333 102.348 16.2227 103.202 15.732C104.055 15.22 105.079 14.964 106.274 14.964H107.33V18.26H105.826C104.631 18.26 103.66 18.6333 102.914 19.38C102.188 20.1053 101.826 21.1507 101.826 22.516V32.5H98.2095ZM116.651 32.884C114.923 32.884 113.387 32.4893 112.043 31.7C110.721 30.8893 109.686 29.8013 108.939 28.436C108.193 27.0493 107.819 25.5027 107.819 23.796C107.819 22.0467 108.193 20.5 108.939 19.156C109.707 17.812 110.731 16.756 112.011 15.988C113.291 15.1987 114.742 14.804 116.363 14.804C117.665 14.804 118.827 15.028 119.851 15.476C120.875 15.924 121.739 16.5427 122.443 17.332C123.147 18.1 123.681 18.9853 124.043 19.988C124.427 20.9907 124.619 22.0573 124.619 23.188C124.619 23.4653 124.609 23.7533 124.587 24.052C124.566 24.3507 124.523 24.628 124.459 24.884H110.667V22.004H122.411L120.683 23.316C120.897 22.2707 120.822 21.3427 120.459 20.532C120.118 19.7 119.585 19.0493 118.859 18.58C118.155 18.0893 117.323 17.844 116.363 17.844C115.403 17.844 114.55 18.0893 113.803 18.58C113.057 19.0493 112.481 19.732 112.075 20.628C111.67 21.5027 111.51 22.5693 111.595 23.828C111.489 25.0013 111.649 26.0253 112.075 26.9C112.523 27.7747 113.142 28.4573 113.931 28.948C114.742 29.4387 115.659 29.684 116.683 29.684C117.729 29.684 118.614 29.4493 119.339 28.98C120.086 28.5107 120.673 27.9027 121.099 27.156L124.043 28.596C123.702 29.4067 123.169 30.1427 122.443 30.804C121.739 31.444 120.886 31.956 119.883 32.34C118.902 32.7027 117.825 32.884 116.651 32.884Z" fill="#2A27E9"/>
</svg>
