<svg width="100" height="46" viewBox="0 0 100 46" fill="none" xmlns="http://www.w3.org/2000/svg">
<path d="M57.9491 14.7781C59.7299 15.1802 61.1373 16.0706 62.1714 17.4494C63.2341 18.7994 63.7655 20.3504 63.7655 22.1025C63.7655 24.6876 62.8751 26.7126 61.0943 28.1775C59.3134 29.6424 56.8145 30.3748 53.5975 30.3748H32.0981V0H53.1236C56.2257 0 58.6528 0.689358 60.4049 2.06807C62.1857 3.44679 63.0762 5.38561 63.0762 7.88453C63.0762 9.66537 62.6022 11.159 61.6544 12.3654C60.7352 13.543 59.5001 14.3473 57.9491 14.7781ZM40.5428 12.0638H51.2709C53.3964 12.0638 54.4592 11.1877 54.4592 9.43558C54.4592 7.62602 53.3964 6.72124 51.2709 6.72124H40.5428V12.0638ZM51.9172 23.5674C54.0427 23.5674 55.1055 22.677 55.1055 20.8962C55.1055 19.977 54.8182 19.2733 54.2438 18.785C53.698 18.2967 52.9081 18.0526 51.8741 18.0526H40.5428V23.5674H51.9172Z" fill="#501E12"/>
<path d="M21.7578 0V20.1206C21.7578 23.5387 20.8243 26.1525 18.9573 27.9621C17.119 29.7716 14.577 30.6764 11.3313 30.6764C7.88453 30.6764 5.1271 29.7142 3.05902 27.7897C1.01968 25.8653 0 23.0935 0 19.4744H8.35846C8.38718 21.8584 9.26324 23.0504 10.9866 23.0504C12.5377 23.0504 13.3132 22.0738 13.3132 20.1206V0H21.7578Z" fill="#501E12"/>
<path d="M82.5506 6.76432V11.7191H100V18.1387H82.5506V23.6105H100V30.3748H74.106V0H100V6.76432H82.5506Z" fill="#501E12"/>
<rect x="0.51709" y="38.1301" width="20.6807" height="7.75527" fill="#501E12"/>
</svg>
