<svg width="33" height="32" viewBox="0 0 33 32" fill="none" xmlns="http://www.w3.org/2000/svg">
<path d="M21.6 24H4.59998V5C4.59998 4.73478 4.70533 4.48043 4.89287 4.29289C5.08041 4.10536 5.33476 4 5.59998 4H19.6C19.8652 4 20.1195 4.10536 20.3071 4.29289C20.4946 4.48043 20.6 4.73478 20.6 5C20.6 5.26522 20.7053 5.51957 20.8929 5.70711C21.0804 5.89464 21.3348 6 21.6 6C21.8652 6 22.1195 5.89464 22.3071 5.70711C22.4946 5.51957 22.6 5.26522 22.6 5C22.6 4.20435 22.2839 3.44129 21.7213 2.87868C21.1587 2.31607 20.3956 2 19.6 2H5.59998C4.80433 2 4.04126 2.31607 3.47866 2.87868C2.91605 3.44129 2.59998 4.20435 2.59998 5V27C2.59998 27.7956 2.91605 28.5587 3.47866 29.1213C4.04126 29.6839 4.80433 30 5.59998 30H19.6C20.3956 30 21.1587 29.6839 21.7213 29.1213C22.2839 28.5587 22.6 27.7956 22.6 27V25C22.6 24.7348 22.4946 24.4804 22.3071 24.2929C22.1195 24.1054 21.8652 24 21.6 24ZM20.6 27C20.6 27.2652 20.4946 27.5196 20.3071 27.7071C20.1195 27.8946 19.8652 28 19.6 28H5.59998C5.33476 28 5.08041 27.8946 4.89287 27.7071C4.70533 27.5196 4.59998 27.2652 4.59998 27V26H20.6V27Z" fill="#0B1A48"/>
<path d="M27.6 8H13.6C12.8043 8 12.0413 8.31607 11.4787 8.87868C10.916 9.44129 10.6 10.2044 10.6 11V19C10.6 19.7956 10.916 20.5587 11.4787 21.1213C12.0413 21.6839 12.8043 22 13.6 22H27.6C28.3956 22 29.1587 21.6839 29.7213 21.1213C30.2839 20.5587 30.6 19.7956 30.6 19V11C30.6 10.2044 30.2839 9.44129 29.7213 8.87868C29.1587 8.31607 28.3956 8 27.6 8ZM13.6 10H27.6C27.8652 10 28.1195 10.1054 28.3071 10.2929C28.4946 10.4804 28.6 10.7348 28.6 11V12H12.6V11C12.6 10.7348 12.7053 10.4804 12.8929 10.2929C13.0804 10.1054 13.3348 10 13.6 10ZM27.6 20H13.6C13.3348 20 13.0804 19.8946 12.8929 19.7071C12.7053 19.5196 12.6 19.2652 12.6 19V14H28.6V19C28.6 19.2652 28.4946 19.5196 28.3071 19.7071C28.1195 19.8946 27.8652 20 27.6 20Z" fill="#0B1A48"/>
<path d="M25.6 16H21.6C21.3348 16 21.0804 16.1054 20.8929 16.2929C20.7053 16.4804 20.6 16.7348 20.6 17C20.6 17.2652 20.7053 17.5196 20.8929 17.7071C21.0804 17.8946 21.3348 18 21.6 18H25.6C25.8652 18 26.1195 17.8946 26.3071 17.7071C26.4946 17.5196 26.6 17.2652 26.6 17C26.6 16.7348 26.4946 16.4804 26.3071 16.2929C26.1195 16.1054 25.8652 16 25.6 16Z" fill="#0B1A48"/>
</svg>
