<svg width="48" height="48" viewBox="0 0 48 48" fill="none" xmlns="http://www.w3.org/2000/svg">
<path d="M24 3C14.1 3 6 11.1 6 21V31.5C6 34.05 7.95 36 10.5 36H16.5C17.4 36 18 35.4 18 34.5V22.5C18 21.6 17.4 21 16.5 21H9C9 12.75 15.75 6 24 6C32.25 6 39 12.75 39 21H31.5C30.6 21 30 21.6 30 22.5V34.5C30 35.4 30.6 36 31.5 36H37.5C37.95 36 38.55 35.85 39 35.7V37.5C39 40.05 37.05 42 34.5 42H24C23.1 42 22.5 42.6 22.5 43.5C22.5 44.4 23.1 45 24 45H34.5C38.7 45 42 41.7 42 37.5V21C42 11.1 33.9 3 24 3ZM15 24V33H10.5C9.6 33 9 32.4 9 31.5V24H15ZM37.5 33H33V24H39V31.5C39 32.4 38.4 33 37.5 33Z" fill="#2A27E9"/>
</svg>
