<svg width="120" height="120" viewBox="0 0 120 120" fill="none" xmlns="http://www.w3.org/2000/svg">
<path d="M14.6393 70.3097C13.112 70.3097 11.9569 69.8802 11.1742 69.021C10.3914 68.1428 10 66.8923 10 65.2695V64.1239H12.9783V65.4986C12.9783 66.7968 13.5225 67.4459 14.6107 67.4459C15.1453 67.4459 15.5462 67.2932 15.8135 66.9877C16.0999 66.6632 16.2431 66.1477 16.2431 65.4413C16.2431 64.6012 16.0521 63.8662 15.6703 63.2362C15.2885 62.587 14.5821 61.8138 13.5511 60.9165C12.2528 59.771 11.346 58.74 10.8305 57.8236C10.315 56.8881 10.0573 55.838 10.0573 54.6734C10.0573 53.0888 10.4582 51.8669 11.2601 51.0078C12.0619 50.1295 13.2265 49.6904 14.7539 49.6904C16.2622 49.6904 17.3981 50.1295 18.1618 51.0078C18.9446 51.8669 19.336 53.1079 19.336 54.7307V55.5612H16.3576V54.5302C16.3576 53.8429 16.224 53.3465 15.9567 53.0411C15.6894 52.7165 15.298 52.5542 14.7825 52.5542C13.7325 52.5542 13.2074 53.1938 13.2074 54.473C13.2074 55.1985 13.3984 55.8762 13.7802 56.5063C14.1811 57.1363 14.8971 57.9 15.928 58.7973C17.2454 59.9428 18.1523 60.9833 18.6486 61.9188C19.145 62.8543 19.3932 63.9521 19.3932 65.2122C19.3932 66.8541 18.9828 68.1142 18.1618 68.9924C17.3599 69.8706 16.1858 70.3097 14.6393 70.3097Z" fill="#0B1A48"/>
<path d="M32.6546 49.9768H41.246V52.8406H35.8048V58.1386H40.1291V61.0024H35.8048V67.1596H41.246V70.0233H32.6546V49.9768Z" fill="#0B1A48"/>
<path d="M54.5134 49.9768H58.4654L61.5297 61.9761H61.5869V49.9768H64.3935V70.0233H61.1574L57.3772 55.3894H57.3199V70.0233H54.5134V49.9768Z" fill="#0B1A48"/>
<path d="M82.6289 70.3097C81.1206 70.3097 79.9655 69.8802 79.1637 69.021C78.3809 68.1619 77.9895 66.9495 77.9895 65.384V54.6161C77.9895 53.0506 78.3809 51.8383 79.1637 50.9791C79.9655 50.12 81.1206 49.6904 82.6289 49.6904C84.1371 49.6904 85.2827 50.12 86.0654 50.9791C86.8673 51.8383 87.2682 53.0506 87.2682 54.6161V56.7354H84.2899V54.4157C84.2899 53.1747 83.7648 52.5542 82.7148 52.5542C81.6647 52.5542 81.1397 53.1747 81.1397 54.4157V65.6131C81.1397 66.835 81.6647 67.4459 82.7148 67.4459C83.7648 67.4459 84.2899 66.835 84.2899 65.6131V62.5489H87.2682V65.384C87.2682 66.9495 86.8673 68.1619 86.0654 69.021C85.2827 69.8802 84.1371 70.3097 82.6289 70.3097Z" fill="#0B1A48"/>
<path d="M105.217 70.3097C103.671 70.3097 102.487 69.8706 101.666 68.9924C100.845 68.1142 100.435 66.8732 100.435 65.2695V54.7307C100.435 53.127 100.845 51.886 101.666 51.0078C102.487 50.1295 103.671 49.6904 105.217 49.6904C106.764 49.6904 107.948 50.1295 108.769 51.0078C109.59 51.886 110 53.127 110 54.7307V65.2695C110 66.8732 109.59 68.1142 108.769 68.9924C107.948 69.8706 106.764 70.3097 105.217 70.3097ZM105.217 67.4459C106.306 67.4459 106.85 66.7873 106.85 65.4699V54.5302C106.85 53.2129 106.306 52.5542 105.217 52.5542C104.129 52.5542 103.585 53.2129 103.585 54.5302V65.4699C103.585 66.7873 104.129 67.4459 105.217 67.4459Z" fill="#0B1A48"/>
</svg>
