<svg width="33" height="32" viewBox="0 0 33 32" fill="none" xmlns="http://www.w3.org/2000/svg">
<path d="M30.3 17.5L27.3 12.5C27.1 12.2 26.8 12 26.4 12H20.4V9C20.4 8.4 20 8 19.4 8H15.7C14.6 5.6 12.2 4 9.40002 4C5.50002 4 2.40002 7.1 2.40002 11C2.40002 14.9 5.50002 18 9.40002 18C13.3 18 16.4 14.9 16.4 11C16.4 10.7 16.4 10.3 16.3 10H18.4V24H14.2C13.8 22.8 12.7 22 11.4 22C10.1 22 9.00002 22.8 8.60002 24H6.40002V20C6.40002 19.4 6.00002 19 5.40002 19C4.80002 19 4.40002 19.4 4.40002 20V25C4.40002 25.6 4.80002 26 5.40002 26H8.60002C9.00002 27.2 10.1 28 11.4 28C12.7 28 13.8 27.2 14.2 26H21.6C22 27.2 23.1 28 24.4 28C25.7 28 26.8 27.2 27.2 26H29.4C30 26 30.4 25.6 30.4 25V18C30.4 17.8 30.4 17.6 30.3 17.5ZM9.40002 16C6.60002 16 4.40002 13.8 4.40002 11C4.40002 8.2 6.60002 6 9.40002 6C12.2 6 14.4 8.2 14.4 11C14.4 13.8 12.2 16 9.40002 16ZM27.6 17H24.4V14H25.8L27.6 17ZM11.4 26C10.8 26 10.4 25.6 10.4 25C10.4 24.4 10.8 24 11.4 24C12 24 12.4 24.4 12.4 25C12.4 25.6 12 26 11.4 26ZM24.4 26C23.8 26 23.4 25.6 23.4 25C23.4 24.4 23.8 24 24.4 24C25 24 25.4 24.4 25.4 25C25.4 25.6 25 26 24.4 26ZM27.2 24C26.8 22.8 25.7 22 24.4 22C23.1 22 22 22.8 21.6 24H20.4V14H22.4V18C22.4 18.6 22.8 19 23.4 19H28.4V24H27.2Z" fill="#0B1A48"/>
<path d="M10.4 10.6V8C10.4 7.4 10 7 9.40002 7C8.80002 7 8.40002 7.4 8.40002 8V11C8.40002 11.3 8.50002 11.5 8.70002 11.7L10.7 13.7C10.9 13.9 11.2 14 11.4 14C11.6 14 11.9 13.9 12.1 13.7C12.5 13.3 12.5 12.7 12.1 12.3L10.4 10.6Z" fill="#0B1A48"/>
</svg>
