<svg width="1200" height="978" viewBox="0 0 1200 978" fill="none" xmlns="http://www.w3.org/2000/svg">
<path d="M1053.59 325.037C1049.32 321.873 1045.03 318.845 1040.76 315.999C984.948 278.87 926.946 247.862 892.141 187.631C869.705 148.809 859.213 106.679 828.976 72.4487C762.645 -2.6455 642.881 -15.11 552.081 15.5959C504.312 31.7464 461.016 60.6093 427.284 98.0135C410.717 116.379 396.934 135.24 388.95 158.482C381.306 180.717 375.971 204.999 360.23 223.219C341.181 245.27 316.685 262.111 291.045 275.637C240.994 302.042 187.427 310.815 140.311 341.473C80.0484 380.677 35.3548 440.58 28.8058 513.793C21.7659 592.53 61.2431 677.799 131.976 715.262C164.651 732.571 200.756 737.168 233.819 751.632C312.542 786.072 394.215 764.021 477 764.333C631.073 764.915 785.146 765.503 939.214 766.085C939.23 766.085 939.251 766.085 939.268 766.085C969.687 766.085 985.099 777.865 1011 760.022C1034.2 744.044 1056.58 731.364 1074.48 708.758C1094.16 683.888 1118.87 669.974 1140.18 646.64C1160.04 624.885 1175.36 599.87 1185.74 572.306C1192.52 554.285 1197.47 535.257 1196.96 516.008C1196.35 492.674 1187.72 470.159 1176.17 449.865C1159.07 419.8 1135.68 393.352 1109.37 371.009C1091.7 356.007 1072.72 339.177 1053.6 325.031L1053.59 325.037Z" fill="#EEF4FC"/>
<path d="M575 147.516C575 139.006 568.125 132.106 559.648 132.106C557.297 132.106 555.134 132.727 553.144 133.672C550.239 127.689 544.709 123.537 538.05 122.127C538.34 120.583 538.975 119.163 538.975 117.532C538.975 103.369 527.539 91.8952 513.429 91.8952C506.753 91.8952 500.782 94.6112 496.231 98.8229C494.515 74.3683 474.424 55 449.62 55C428.065 55 410.099 69.6706 404.59 89.541C402.519 89.1253 400.378 88.8931 398.184 88.8931C383.235 88.8931 370.776 99.1631 367.14 113.018C363.778 111.668 360.142 110.821 356.295 110.821C340.115 110.821 327 123.985 327 140.232C327 145.734 328.915 150.594 331.535 155H572.8C574.075 152.754 575 150.292 575 147.522V147.516Z" fill="#F9FBFF"/>
<path d="M575.383 156H397.617C396.722 156 396 155.33 396 154.5C396 153.67 396.722 153 397.617 153H575.383C576.278 153 577 153.67 577 154.5C577 155.33 576.278 156 575.383 156Z" fill="#2A27E9"/>
<path d="M413.385 156H332.615C331.721 156 331 155.33 331 154.5C331 153.67 331.721 153 332.615 153H413.385C414.279 153 415 153.67 415 154.5C415 155.33 414.279 156 413.385 156Z" fill="#2A27E9"/>
<path d="M394.16 95.3209C409.454 95.3209 421.97 107.802 421.97 123.053C421.97 126.198 421.327 129.176 420.345 132C423.273 127.61 425 122.364 425 116.733C425 101.481 412.484 89 397.19 89C385.05 89 374.77 96.9144 371 107.791C375.992 100.299 384.513 95.3262 394.16 95.3262V95.3209Z" fill="#B3CDFA"/>
<path d="M532.836 125.254C525.848 130.216 516.097 128.533 511.156 121.507C510.138 120.06 509.471 118.481 509 116.864C509.082 119.835 509.996 122.811 511.818 125.402C516.754 132.428 526.51 134.112 533.498 129.149C539.047 125.21 541.175 118.228 539.375 112C539.517 117.067 537.236 122.123 532.831 125.254H532.836Z" fill="#B3CDFA"/>
<path d="M539.387 118.995C538.492 118.995 537.769 118.269 537.769 117.369C537.769 104.079 527.002 93.2707 513.77 93.2707C507.896 93.2707 502.156 95.5841 497.62 99.7884L495.144 102.08L494.906 98.7048C493.24 74.8934 473.416 56.2453 449.778 56.2453C429.571 56.2453 411.641 70.0066 406.182 89.7112C405.939 90.5781 405.049 91.0819 404.186 90.8435C403.323 90.6052 402.821 89.7058 403.059 88.8444C408.906 67.7365 428.12 53 449.773 53C462.158 53 473.939 57.6973 482.937 66.2303C491.12 73.9887 496.336 84.2555 497.819 95.4108C502.512 91.9217 508.074 90.0255 513.765 90.0255C528.782 90.0255 541 102.297 541 117.375C541 118.274 540.277 119 539.382 119L539.387 118.995Z" fill="#2A27E9"/>
<path d="M1125.99 220.174C1125.99 210.134 1117.88 201.994 1107.86 201.994C1105.08 201.994 1102.53 202.729 1100.18 203.841C1096.74 196.782 1090.21 191.883 1082.34 190.214C1082.69 188.394 1083.44 186.714 1083.44 184.791C1083.44 168.08 1069.92 154.539 1053.26 154.539C1045.37 154.539 1038.31 157.742 1032.94 162.711C1030.92 133.852 1007.17 111 977.876 111C952.413 111 931.18 128.311 924.672 151.757C922.226 151.266 919.699 150.996 917.108 150.996C899.441 150.996 884.727 163.111 880.428 179.466C876.452 177.872 872.158 176.873 867.616 176.873C848.5 176.873 833 192.407 833 211.576C833 218.068 835.257 223.804 838.355 229H1123.4C1124.91 226.348 1126 223.442 1126 220.174H1125.99Z" fill="#F9FBFF"/>
<path d="M1126.38 230H916.617C915.722 230 915 229.33 915 228.5C915 227.67 915.722 227 916.617 227H1126.38C1127.28 227 1128 227.67 1128 228.5C1128 229.33 1127.28 230 1126.38 230Z" fill="#2A27E9"/>
<path d="M935.377 230H839.623C838.725 230 838 229.33 838 228.5C838 227.67 838.725 227 839.623 227H935.377C936.275 227 937 227.67 937 228.5C937 229.33 936.275 230 935.377 230Z" fill="#2A27E9"/>
<path d="M911.45 158.5C929.58 158.5 944.412 173.301 944.412 191.392C944.412 195.118 943.647 198.651 942.488 202C945.958 196.796 948 190.575 948 183.892C948 165.801 933.168 151 915.038 151C900.648 151 888.466 160.387 884 173.285C889.916 164.398 900.018 158.5 911.45 158.5V158.5Z" fill="#B3CDFA"/>
<path d="M1075.68 194.241C1067.56 199.948 1056.23 198.012 1050.5 189.935C1049.32 188.267 1048.54 186.454 1048 184.594C1048.1 188.01 1049.15 191.431 1051.27 194.413C1057 202.49 1068.33 204.431 1076.45 198.719C1082.89 194.188 1085.36 186.165 1083.27 179C1083.44 184.829 1080.79 190.643 1075.67 194.241H1075.68Z" fill="#B3CDFA"/>
<path d="M1083.39 185.995C1082.49 185.995 1081.77 185.271 1081.77 184.375C1081.77 168.594 1068.96 155.755 1053.21 155.755C1046.22 155.755 1039.39 158.503 1033.99 163.497L1031.52 165.781L1031.28 162.417C1029.3 134.278 1005.82 112.234 977.824 112.234C953.881 112.234 932.649 128.501 926.178 151.787C925.936 152.651 925.047 153.153 924.185 152.915C923.323 152.678 922.822 151.781 923.059 150.923C926.34 139.099 933.468 128.447 943.117 120.921C953.116 113.119 965.12 109 977.819 109C992.338 109 1006.14 114.496 1016.69 124.468C1026.41 133.657 1032.55 145.853 1034.2 159.092C1039.77 154.832 1046.41 152.521 1053.21 152.521C1070.74 152.521 1085 166.812 1085 184.38C1085 185.277 1084.28 186 1083.38 186L1083.39 185.995Z" fill="#2A27E9"/>
<path d="M1021 620H764V773H1021V620Z" fill="#C2D7FB"/>
<path d="M1021 620H1011V773H1021V620Z" fill="#D1E1FC"/>
<path d="M1001 620H991V773H1001V620Z" fill="#D1E1FC"/>
<path d="M982 620H972V773H982V620Z" fill="#D1E1FC"/>
<path d="M963 620H953V773H963V620Z" fill="#D1E1FC"/>
<path d="M944 620H934V773H944V620Z" fill="#D1E1FC"/>
<path d="M925 622H915V775H925V622Z" fill="#D1E1F2"/>
<path d="M905 620H895V773H905V620Z" fill="#D1E1FC"/>
<path d="M886 620H876V773H886V620Z" fill="#D1E1FC"/>
<path d="M867 620H857V773H867V620Z" fill="#D1E1FC"/>
<path d="M848 620H838V773H848V620Z" fill="#D1E1FC"/>
<path d="M833 620H764V773H833V620Z" fill="#A7C1EE"/>
<path d="M829 620H819V773H829V620Z" fill="#D1E1FC"/>
<path d="M809 620H799V773H809V620Z" fill="#D1E1FC"/>
<path d="M790 620H780V773H790V620Z" fill="#D1E1FC"/>
<path d="M771 620H764V773H771V620Z" fill="#D1E1FC"/>
<path opacity="0.3" d="M1021 626H764V667H1021V626Z" fill="#1067DB"/>
<path d="M1024 619H760V660H1024V619Z" fill="#D1E1FC"/>
<path d="M833 619H760V660H833V619Z" fill="#C2D7FB"/>
<path d="M785 619V775H804V619H785Z" fill="white"/>
<path d="M908 619V775H931V619H908Z" fill="white"/>
<path d="M171.235 686C171.56 686 171.831 685.735 171.831 685.406V646.355C171.831 625.105 189.18 607.813 210.5 607.813C231.82 607.813 249.169 625.099 249.169 646.355V685.406C249.169 685.73 249.435 686 249.765 686H252.404C252.729 686 253 685.735 253 685.406V646.355C253 622.999 233.934 604 210.5 604C187.066 604 168 622.999 168 646.355V685.406C168 685.73 168.265 686 168.596 686H171.235V686Z" fill="#89ADE9"/>
<path d="M295 773H244V655H294.196C294.642 655 295 655.358 295 655.803V773Z" fill="#A7C1EE"/>
<path d="M104.524 655H246V773H104.529C104.238 773 104 772.761 104 772.468V655.526C104 655.239 104.232 655 104.524 655V655Z" fill="#C4D6F4"/>
<path d="M295 773H270V655H294.478C294.766 655 295 655.239 295 655.532V773Z" fill="#89ADE9"/>
<path d="M244 773H295L269.497 743L244 773Z" fill="#89ADE9"/>
<path d="M204 685C204 689.967 208.027 694 213 694C217.973 694 222 689.973 222 685C222 680.027 217.967 676 213 676C208.033 676 204 680.027 204 685Z" fill="#A7C1EE"/>
<path d="M123 685C123 689.967 127.027 694 132 694C136.973 694 141 689.973 141 685C141 680.027 136.967 676 132 676C127.033 676 123 680.027 123 685Z" fill="#A7C1EE"/>
<path d="M133.229 686C133.555 686 133.825 685.735 133.825 685.406V646.355C133.825 625.105 151.176 607.813 172.497 607.813C193.819 607.813 211.169 625.099 211.169 646.355V685.406C211.169 685.73 211.435 686 211.765 686H214.404C214.729 686 215 685.735 215 685.406V646.355C215 622.999 195.932 604 172.503 604C149.073 604 130 622.999 130 646.355V685.406C130 685.73 130.266 686 130.596 686H133.235H133.229Z" fill="#89ADE9"/>
<path d="M296 655.775C296 655.483 295.762 655.245 295.469 655.245H253.29V646.433C253.29 626.19 239.019 609.222 220 605V608.924C236.894 613.065 249.463 628.306 249.463 646.433V655.245H220V772.47C220 772.762 220.239 773 220.531 773H296V655.77V655.775Z" fill="#6C98E3"/>
<path d="M295.235 616C295.56 616 295.831 615.735 295.831 615.406V576.355C295.831 555.105 313.18 537.813 334.5 537.813C355.82 537.813 373.169 555.105 373.169 576.355V615.406C373.169 615.73 373.435 616 373.765 616H376.404C376.729 616 377 615.735 377 615.406V576.355C377 552.999 357.934 534 334.5 534C311.066 534 292 552.999 292 576.355V615.406C292 615.73 292.265 616 292.596 616H295.235V616Z" fill="#89ADE9"/>
<path d="M419 773H368V585H418.196C418.642 585 419 585.357 419 585.8V773V773Z" fill="#A7C1EE"/>
<path d="M228.518 585H370V773H228.529C228.238 773 228 772.762 228 772.47V585.524C228 585.238 228.232 585 228.524 585H228.518Z" fill="#C4D6F4"/>
<path d="M419 773H394V585H418.478C418.766 585 419 585.238 419 585.53V773Z" fill="#89ADE9"/>
<path d="M368 773H419L393.497 743L368 773Z" fill="#89ADE9"/>
<path d="M328 615C328 619.967 332.027 624 337 624C341.973 624 346 619.973 346 615C346 610.027 341.967 606 337 606C332.033 606 328 610.027 328 615Z" fill="#A7C1EE"/>
<path d="M247 615C247 619.967 251.027 624 256 624C260.973 624 265 619.973 265 615C265 610.027 260.973 606 256 606C251.027 606 247 610.027 247 615Z" fill="#A7C1EE"/>
<path d="M257.229 616C257.555 616 257.825 615.735 257.825 615.406V576.355C257.825 555.105 275.176 537.813 296.497 537.813C317.819 537.813 335.169 555.105 335.169 576.355V615.406C335.169 615.73 335.435 616 335.765 616H338.404C338.729 616 339 615.735 339 615.406V576.355C339 552.999 319.932 534 296.497 534C273.062 534 254 552.999 254 576.355V615.406C254 615.73 254.266 616 254.596 616H257.235H257.229Z" fill="#89ADE9"/>
<path d="M347 269C347 270.105 346.105 271 345 271C343.895 271 343 270.105 343 269C343 267.895 343.895 267 345 267C346.105 267 347 267.895 347 269Z" fill="#FFB300"/>
<path d="M1088 302C1088 303.653 1086.66 305 1085 305C1083.34 305 1082 303.659 1082 302C1082 300.341 1083.34 299 1085 299C1086.66 299 1088 300.341 1088 302Z" fill="#FFB300"/>
<path d="M274.671 236.218C275.125 233.775 273.512 231.426 271.069 230.973C268.625 230.519 266.276 232.132 265.822 234.576C265.368 237.019 266.981 239.368 269.424 239.821C271.868 240.275 274.217 238.661 274.671 236.218Z" fill="#2A27E9"/>
<path d="M1138 357.5C1138 359.434 1136.43 361 1134.5 361C1132.57 361 1131 359.434 1131 357.5C1131 355.566 1132.57 354 1134.5 354C1136.43 354 1138 355.566 1138 357.5Z" fill="#2A27E9"/>
<path d="M340 180.5C340 182.434 338.434 184 336.5 184C334.566 184 333 182.434 333 180.5C333 178.566 334.566 177 336.5 177C338.434 177 340 178.566 340 180.5Z" fill="#1067DB"/>
<path d="M1043.5 362C1044.88 362 1046 360.881 1046 359.5C1046 358.119 1044.88 357 1043.5 357C1042.12 357 1041 358.119 1041 359.5C1041 360.881 1042.12 362 1043.5 362Z" fill="#1067DB"/>
<path d="M789.267 773H519.035C488.643 773 464 748.374 464 717.99L550.505 86.2112C550.505 66.2107 566.723 50 586.733 50H850.542C884.483 50 912 77.5048 912 111.43L825.495 736.789C822.825 757.145 809.277 773 789.267 773Z" fill="white"/>
<path d="M788.714 773.995H518.623C487.401 773.995 462 748.601 462 717.386L462.016 717.165L548.46 85.7031C548.519 64.9006 565.467 48 586.286 48H849.957C884.715 48 913 76.2719 913 111.027L912.984 111.248L826.524 736.405C823.581 758.889 808.384 774 788.714 774V773.995ZM465.234 717.499C465.294 746.881 489.217 770.761 518.623 770.761H788.714C806.686 770.761 820.594 756.776 823.322 735.968L909.766 110.909C909.706 77.9911 882.899 51.2282 849.957 51.2282H586.286C567.214 51.2282 551.694 66.7438 551.694 85.8109L551.678 86.0318L465.234 717.499Z" fill="#2A27E9"/>
<path d="M775.377 758H500.197C480.204 758 464 741.793 464 721.798L550.426 86.2022C550.426 66.2067 566.63 50 586.623 50H861.803C881.796 50 898 66.2067 898 86.2022L811.569 721.798C807.592 740.877 795.364 758 775.372 758H775.377Z" fill="#2A27E9"/>
<path d="M774.827 759H499.793C478.955 759 462 742.039 462 721.194L462.016 720.978L548.38 85.6987C548.439 64.9016 565.373 48 586.173 48H861.207C882.045 48 899 64.9609 899 85.8064L898.984 86.0219L812.593 721.463L812.582 721.517C808.807 739.636 796.904 758.995 774.822 758.995L774.827 759ZM465.232 721.301C465.291 740.315 480.77 755.767 499.793 755.767H774.827C794.949 755.767 805.882 737.777 809.41 720.919L895.768 85.7041C895.709 66.6904 880.23 51.2381 861.207 51.2381H586.173C567.118 51.2381 551.611 66.7497 551.611 85.8118L551.595 86.0273L465.226 721.301H465.232Z" fill="#2A27E9"/>
<path d="M757.648 82H669.352C667.55 82 666.417 79.9257 667.313 78.2571C667.732 77.48 668.51 77 669.352 77H757.648C759.45 77 760.583 79.0743 759.687 80.7429C759.268 81.52 758.49 82 757.648 82Z" fill="#002280"/>
<path d="M862.756 84.219C861.403 91.851 854.823 97.044 848.055 95.8218C841.288 94.5941 836.892 87.413 838.244 79.781C839.597 72.149 846.177 66.956 852.945 68.1782C859.712 69.4059 864.108 76.587 862.756 84.219Z" fill="#002280"/>
<path d="M1007.03 268.006L943.019 268.606C934.71 268.687 927.656 274.738 926.288 282.968L915.206 349.658C913.688 358.791 920.753 367.086 929.971 366.999L993.981 366.394C1002.29 366.318 1009.34 360.262 1010.71 352.032L1021.79 285.342C1023.31 276.209 1016.25 267.914 1007.03 268.001L1007.03 268.006Z" fill="#1067DB"/>
<path d="M999 298H944L968.301 317L999 298Z" fill="white"/>
<path d="M968.351 322.563L942.343 302L937 335H995.678L1001 302.124L968.351 322.563Z" fill="white"/>
<path d="M628.774 327.001L529.466 327.935C516.579 328.06 505.636 337.414 503.514 350.132L486.32 453.2C483.966 467.313 494.92 480.134 509.226 479.999L608.534 479.065C621.421 478.946 632.364 469.586 634.486 456.868L651.68 353.8C654.034 339.682 643.08 326.866 628.774 327.001Z" fill="#002280"/>
<path d="M612.774 306L513.466 306.934C500.579 307.059 489.636 316.412 487.514 329.131L470.32 432.201C467.966 446.313 478.92 459.134 493.226 458.999L592.534 458.065C605.421 457.946 616.364 448.587 618.486 435.868L635.68 332.803C638.034 318.686 627.08 305.87 612.774 306.005V306Z" fill="#1067DB"/>
<path d="M817.774 327.001L718.466 327.935C705.579 328.06 694.636 337.414 692.514 350.132L675.32 453.2C672.966 467.313 683.92 480.134 698.226 479.999L797.534 479.065C810.421 478.946 821.364 469.586 823.486 456.868L840.68 353.8C843.034 339.682 832.08 326.866 817.774 327.001Z" fill="#002280"/>
<path d="M801.774 306L702.466 306.934C689.579 307.059 678.636 316.412 676.514 329.131L659.32 432.201C656.966 446.313 667.92 459.134 682.226 458.999L781.534 458.065C794.421 457.946 805.364 448.587 807.486 435.868L824.68 332.803C827.034 318.686 816.08 305.87 801.774 306.005V306Z" fill="#FFB300"/>
<path d="M597.774 521.001L498.466 521.935C485.579 522.06 474.636 531.414 472.514 544.132L455.32 647.2C452.966 661.313 463.92 674.134 478.226 673.999L577.534 673.065C590.421 672.946 601.364 663.586 603.486 650.867L620.681 547.8C623.034 533.682 612.08 520.866 597.774 521.001Z" fill="#002280"/>
<path d="M580.774 500.001L481.466 500.935C468.579 501.06 457.636 510.414 455.514 523.132L438.32 626.2C435.966 640.313 446.92 653.134 461.226 652.999L560.534 652.065C573.421 651.946 584.364 642.586 586.486 629.867L603.681 526.8C606.034 512.682 595.08 499.866 580.774 500.001V500.001Z" fill="#B3CDFA"/>
<path d="M785.774 521.001L686.466 521.935C673.579 522.06 662.636 531.414 660.514 544.132L643.32 647.2C640.966 661.313 651.92 674.134 666.226 673.999L765.534 673.065C778.421 672.946 789.364 663.586 791.486 650.867L808.681 547.8C811.034 533.682 800.08 520.866 785.774 521.001Z" fill="#002280"/>
<path d="M769.774 500.001L670.466 500.935C657.579 501.06 646.636 510.414 644.514 523.132L627.32 626.2C624.966 640.313 635.92 653.134 650.226 652.999L749.534 652.065C762.421 651.946 773.364 642.586 775.486 629.867L792.681 526.8C795.034 512.682 784.08 499.866 769.774 500.001Z" fill="#E3EDFE"/>
<path d="M429.834 419H207.973C202.535 419 198.353 414.204 199.083 408.813L212.275 311.768C212.881 307.318 216.68 304 221.166 304H443.027C448.465 304 452.647 308.796 451.917 314.187L438.725 411.232C438.119 415.682 434.32 419 429.834 419Z" fill="white"/>
<path d="M320.187 410H224.759C223.091 410 221.804 408.497 222.025 406.813L226.078 376.43C226.267 375.037 227.429 374 228.813 374H324.241C325.909 374 327.196 375.503 326.975 377.187L322.922 407.57C322.733 408.963 321.571 410 320.187 410Z" fill="#FFB300"/>
<path opacity="0.5" d="M443 374.005H352.823C351.443 374.005 350.274 375.042 350.085 376.435L346.026 406.814C345.799 408.503 347.088 410 348.764 410H438.186L443 374V374.005Z" fill="#001755"/>
<path d="M452.187 405H356.759C355.091 405 353.804 403.497 354.025 401.813L358.078 371.43C358.267 370.037 359.429 369 360.813 369H456.241C457.909 369 459.196 370.503 458.975 372.187L454.922 402.57C454.733 403.963 453.571 405 452.187 405V405Z" fill="#1067DB"/>
<path d="M401.874 393L398 387.856L401.607 384.921L403.27 387.126L410.789 381L413 383.94L401.874 393Z" fill="white"/>
<path d="M279.286 386H283L276.273 392.751L278.337 400H274.585L273.288 395.391L268.714 400H265L272.212 392.829L270.33 386H274.028L275.17 390.145L279.281 386H279.286Z" fill="white"/>
<path d="M256.022 323.04L257.595 313.424C257.73 312.603 258.463 312 259.325 312H302.248C303.326 312 304.145 312.93 303.978 313.954L302.405 323.571C302.27 324.392 301.537 325 300.675 325H257.752C256.674 325 255.855 324.07 256.022 323.046V323.04Z" fill="#2A27E9"/>
<path d="M254.022 342.046L255.608 332.429C255.744 331.608 256.482 331 257.351 331H405.235C406.321 331 407.147 331.93 406.978 332.954L405.392 342.571C405.256 343.392 404.518 344 403.649 344H255.765C254.679 344 253.853 343.07 254.022 342.046Z" fill="#B3CDFA"/>
<path d="M252.022 361.046L253.597 351.429C253.732 350.608 254.465 350 255.328 350H350.247C351.326 350 352.146 350.93 351.978 351.954L350.403 361.571C350.268 362.392 349.535 363 348.672 363H253.753C252.674 363 251.854 362.07 252.022 361.046Z" fill="#B3CDFA"/>
<path d="M886.546 668.995C874.705 668.995 865.059 659.417 865 647.618L880.445 544.608V544.49C880.445 532.642 890.112 523 901.991 523H1109.45C1121.3 523 1130.94 532.577 1131 544.377L1115.57 647.274C1113.39 657.712 1106.56 669 1094.01 669H886.546V668.995Z" fill="#2A27E9"/>
<path d="M904.994 590C902.25 590 900.016 587.771 900 585.02L903.579 561.034V561.007C903.579 558.246 905.819 556 908.573 556H936.006C938.75 556 940.984 558.229 941 560.98L937.426 584.939C936.923 587.373 935.337 590 932.432 590H904.999H904.994Z" fill="#FFB300"/>
<path d="M888.482 618C887.665 618 887.005 617.346 887 616.535L888.063 609.481C888.063 608.659 888.727 608 889.545 608H923.518C924.335 608 924.995 608.654 925 609.465L923.938 616.508C923.785 617.222 923.316 617.995 922.455 617.995H888.482V618Z" fill="white"/>
<path d="M932.469 618C931.659 618 931.005 617.346 931 616.535L932.053 609.481C932.053 608.659 932.712 608 933.522 608H1022.53C1023.34 608 1023.99 608.654 1024 609.465L1022.95 616.508C1022.8 617.222 1022.33 617.995 1021.48 617.995H932.469V618Z" fill="white"/>
<path d="M1031.47 618C1030.66 618 1030.01 617.346 1030 616.535L1031.06 609.481C1031.06 608.659 1031.72 608 1032.53 608H1088.53C1089.34 608 1089.99 608.654 1090 609.465L1088.94 616.508C1088.79 617.222 1088.33 617.995 1087.47 617.995H1031.47V618Z" fill="white"/>
<path d="M883.47 640C882.659 640 882.005 639.346 882 638.535L883.054 631.481C883.054 630.659 883.713 630 884.524 630H1002.53C1003.34 630 1003.99 630.654 1004 631.465L1002.95 638.508C1002.79 639.222 1002.33 639.995 1001.48 639.995H883.47V640Z" fill="white"/>
<path d="M450.767 281.414L387.943 282C383.258 282.043 379.331 277.611 380.096 273.142L391.116 208.721C391.62 205.756 394.104 203.704 397.212 203.666L460.122 203C464.786 203 468.664 207.415 467.905 211.858L456.874 276.36C456.364 279.325 453.88 281.382 450.772 281.414H450.767Z" fill="#FFB300"/>
<path d="M416.616 268L417.549 263.385C412.282 262.542 407.767 260.122 404 256.119L411.415 248.976C414.174 251.842 416.818 253.672 419.353 254.471L421.256 245.059C416.992 243.921 414.005 242.397 412.298 240.481C410.586 238.566 410.095 235.807 410.826 232.206C411.551 228.606 413.35 225.638 416.218 223.298C419.086 220.964 422.515 219.563 426.501 219.096L427.128 216H433.932L433.283 219.225C437.443 219.815 441.347 221.56 445 224.468L438.228 231.922C435.917 230.028 433.67 228.761 431.484 228.133L429.647 237.229C434.03 238.41 437.122 239.988 438.926 241.968C440.731 243.948 441.265 246.749 440.535 250.372C439.804 253.994 437.967 256.983 435.028 259.344C432.089 261.705 428.524 263.117 424.32 263.578L423.426 268H416.622H416.616ZM424.724 227.881C422.755 228.514 421.599 229.673 421.261 231.359C420.923 233.044 421.583 234.326 423.241 235.212L424.724 227.881ZM430.154 250.876C430.334 249.991 430.247 249.255 429.892 248.665C429.538 248.075 428.796 247.527 427.657 247.023L426.087 254.793C428.404 254.123 429.761 252.813 430.154 250.876Z" fill="white"/>
<path d="M53.1694 504.171L60.7425 453.56C61.7882 446.902 67.4963 442 74.2016 442H412.37C420.746 442 427.139 449.519 425.829 457.829L418.256 508.44C417.211 515.098 411.502 520 404.797 520H66.6285C58.2577 520 51.865 512.481 53.1694 504.171Z" fill="#FFB300"/>
<path d="M107.792 471H116L111.833 490H107.484L110.859 474.617H107L107.792 471V471Z" fill="white"/>
<path d="M126.508 479.073C127.137 478.374 127.517 477.698 127.647 477.043C127.777 476.389 127.679 475.845 127.343 475.405C127.007 474.965 126.508 474.745 125.853 474.745C124.639 474.745 123.311 475.619 121.875 477.373L118.845 475.306C120.032 473.887 121.241 472.815 122.46 472.089C123.685 471.363 125.127 471 126.79 471C128.454 471 129.804 471.539 130.85 472.611C131.89 473.684 132.226 475.141 131.852 476.988C131.646 477.995 131.202 478.963 130.508 479.886C129.814 480.81 128.644 481.987 126.991 483.422L122.774 487.085H130.383L129.592 491H116L116.656 487.756L123.495 481.883C124.872 480.706 125.874 479.771 126.503 479.073H126.508Z" fill="white"/>
<path d="M135.761 474.763L136.495 471H148L147.403 474.057L142.66 478.665C144.112 478.932 145.148 479.594 145.766 480.661C146.384 481.728 146.553 482.957 146.283 484.352C145.877 486.425 144.894 488.054 143.33 489.232C141.767 490.411 139.945 491 137.863 491C135.782 491 133.833 490.227 132 488.682L134.403 485.175C135.919 486.498 137.377 487.153 138.772 487.153C139.612 487.153 140.351 486.937 140.98 486.503C141.608 486.069 142.005 485.441 142.168 484.624C142.327 483.802 142.142 483.151 141.608 482.673C141.075 482.19 140.251 481.951 139.142 481.951C138.55 481.951 137.684 482.128 136.537 482.49L137.171 479.238L141.645 474.769H135.761V474.763Z" fill="white"/>
<path d="M157.611 481.788L158.313 478.47H162.497L161.795 481.788H164L163.227 485.458H161.022L160.062 490H155.878L156.837 485.458H149L149.68 482.226L158.993 471H163.737L154.846 481.793H157.611V481.788Z" fill="white"/>
<path d="M166 485L166.784 481H177L176.216 485H166Z" fill="white"/>
<path d="M184.132 476L185.83 480.017L189.216 476H194L187.507 483.333L191.186 491H186.322L184.298 486.873L180.699 491H176L182.637 483.36L179.273 476H184.138H184.132Z" fill="white"/>
<path d="M200.132 476L201.83 480.017L205.216 476H210L203.507 483.333L207.186 491H202.322L200.298 486.873L196.699 491H192L198.637 483.36L195.273 476H200.138H200.132Z" fill="white"/>
<path d="M216.132 476L217.83 480.017L221.216 476H226L219.507 483.333L223.186 491H218.322L216.298 486.873L212.699 491H208L214.637 483.36L211.273 476H216.138H216.132Z" fill="white"/>
<path d="M232.132 476L233.83 480.017L237.216 476H242L235.507 483.333L239.186 491H234.322L232.298 486.873L228.699 491H224L230.637 483.36L227.273 476H232.138H232.132Z" fill="white"/>
<path d="M243 485L243.784 481H254L253.216 485H243Z" fill="white"/>
<path d="M263.611 481.788L264.313 478.47H268.497L267.795 481.788H270L269.227 485.458H267.022L266.062 490H261.878L262.837 485.458H255L255.68 482.226L264.993 471H269.737L260.846 481.793H263.611V481.788Z" fill="white"/>
<path d="M287 471.006L286.236 474.825H278.629L277.968 478.134C278.569 477.967 279.241 477.878 279.978 477.878C281.836 477.878 283.316 478.456 284.432 479.602C285.543 480.753 285.906 482.304 285.51 484.255C285.12 486.207 284.101 487.82 282.46 489.093C280.818 490.366 278.976 491 276.938 491C274.327 491 272.349 490.01 271 488.031L273.904 484.806C274.034 484.978 274.213 485.184 274.441 485.429C274.668 485.673 275.107 486.001 275.763 486.407C276.418 486.813 277.112 487.013 277.849 487.013C278.586 487.013 279.279 486.785 279.94 486.335C280.601 485.885 281.018 485.212 281.197 484.328C281.376 483.444 281.203 482.76 280.682 482.276C280.162 481.798 279.415 481.553 278.445 481.553C277.475 481.553 276.267 481.909 274.836 482.626L273.438 480.647L275.367 471H287V471.006Z" fill="white"/>
<path d="M299.034 474.713C297.821 474.713 296.805 475.115 295.977 475.914C295.148 476.714 294.517 477.806 294.083 479.192C295.455 478.415 296.816 478.029 298.178 478.029C300 478.029 301.399 478.622 302.376 479.801C303.353 480.981 303.633 482.552 303.227 484.515C302.821 486.477 301.839 488.048 300.28 489.228C298.721 490.407 296.948 491 294.956 491C293.578 491 292.436 490.739 291.531 490.212C290.625 489.684 289.988 488.951 289.626 488.01C288.885 486.183 288.803 483.9 289.374 481.15C289.741 479.377 290.279 477.828 290.998 476.491C291.712 475.153 292.53 474.099 293.457 473.321C295.269 471.772 297.272 471 299.467 471C300.379 471 301.224 471.136 301.992 471.402C302.766 471.669 303.348 471.94 303.738 472.218C304.127 472.495 304.55 472.843 305 473.267L302.3 476.311C302.212 476.203 302.08 476.056 301.904 475.871C301.729 475.686 301.356 475.447 300.785 475.153C300.214 474.86 299.627 474.713 299.034 474.713V474.713ZM297.014 481.682C296.147 481.682 295.367 481.938 294.681 482.443C293.99 482.949 293.562 483.612 293.391 484.422C293.221 485.232 293.358 485.928 293.798 486.51C294.237 487.091 294.873 487.379 295.713 487.379C296.553 487.379 297.305 487.124 297.969 486.607C298.633 486.091 299.05 485.422 299.22 484.602C299.391 483.781 299.281 483.09 298.897 482.525C298.512 481.965 297.887 481.682 297.019 481.682H297.014Z" fill="white"/>
<path d="M306 485L306.784 481H317L316.216 485H306Z" fill="white"/>
<path d="M329.03 474.713C327.818 474.713 326.803 475.115 325.974 475.914C325.146 476.714 324.515 477.806 324.081 479.192C325.453 478.415 326.814 478.029 328.174 478.029C329.996 478.029 331.395 478.622 332.372 479.801C333.343 480.981 333.628 482.552 333.222 484.515C332.816 486.477 331.834 488.048 330.276 489.228C328.718 490.407 326.945 491 324.954 491C323.576 491 322.435 490.739 321.53 490.212C320.625 489.684 319.988 488.951 319.626 488.01C318.885 486.183 318.803 483.9 319.374 481.15C319.741 479.377 320.279 477.828 320.998 476.491C321.711 475.153 322.528 474.099 323.456 473.321C325.266 471.772 327.269 471 329.464 471C330.375 471 331.22 471.136 331.993 471.402C332.767 471.669 333.348 471.94 333.738 472.218C334.128 472.495 334.55 472.843 335 473.267L332.3 476.311C332.213 476.203 332.081 476.056 331.905 475.871C331.73 475.686 331.357 475.447 330.786 475.153C330.215 474.86 329.634 474.713 329.036 474.713H329.03ZM327.011 481.682C326.144 481.682 325.365 481.938 324.679 482.443C323.988 482.949 323.56 483.612 323.39 484.422C323.22 485.232 323.357 485.928 323.796 486.51C324.235 487.091 324.871 487.379 325.711 487.379C326.55 487.379 327.302 487.124 327.966 486.607C328.63 486.091 329.047 485.422 329.217 484.602C329.387 483.781 329.277 483.09 328.893 482.525C328.509 481.965 327.884 481.682 327.017 481.682H327.011Z" fill="white"/>
<path d="M337.223 477.091L338.457 471H352L351.352 474.206L340.56 490H336L346.354 474.644H341.636L341.14 477.091H337.223Z" fill="white"/>
<path d="M357.24 472.522C358.721 471.511 360.413 471 362.321 471C364.229 471 365.71 471.506 366.769 472.522C367.828 473.539 368.201 474.784 367.898 476.268C367.596 477.752 366.769 479.029 365.412 480.1C366.753 481.334 367.223 482.96 366.812 484.966C366.466 486.662 365.493 488.092 363.899 489.255C362.305 490.418 360.418 491 358.235 491C356.051 491 354.403 490.418 353.284 489.255C352.165 488.092 351.776 486.667 352.122 484.966C352.533 482.954 353.662 481.334 355.511 480.1C354.576 479.013 354.262 477.73 354.565 476.257C354.868 474.784 355.754 473.539 357.24 472.522V472.522ZM357.013 486.754C357.565 487.189 358.219 487.407 358.97 487.407C359.721 487.407 360.462 487.189 361.191 486.754C361.921 486.319 362.369 485.689 362.542 484.862C362.71 484.031 362.532 483.395 361.997 482.954C361.461 482.514 360.802 482.291 360.013 482.291C359.224 482.291 358.473 482.514 357.759 482.954C357.046 483.395 356.603 484.031 356.435 484.862C356.268 485.694 356.457 486.325 357.013 486.754V486.754ZM359.002 478.306C359.435 478.747 359.997 478.97 360.694 478.97C361.391 478.97 362.045 478.747 362.656 478.306C363.267 477.866 363.64 477.317 363.775 476.659C363.91 476.007 363.764 475.458 363.342 475.012C362.921 474.572 362.348 474.349 361.634 474.349C360.921 474.349 360.262 474.572 359.656 475.012C359.051 475.452 358.683 476.001 358.548 476.659C358.413 477.312 358.565 477.861 358.997 478.306H359.002Z" fill="white"/>
<path d="M898.11 487.851L903.042 455.409C903.722 451.145 907.442 448 911.814 448H1132.12C1137.57 448 1141.74 452.819 1140.89 458.149L1135.96 490.591C1135.28 494.855 1131.56 498 1127.19 498H906.881C901.425 498 897.263 493.181 898.11 487.851V487.851Z" fill="white"/>
<path d="M969.015 463.173L969.863 457.334C969.982 456.566 970.62 456 971.371 456H1079.47C1080.41 456 1081.13 456.869 1080.98 457.827L1080.13 463.666C1080.01 464.434 1079.38 465 1078.63 465H970.522C969.587 465 968.869 464.131 969.02 463.173H969.015Z" fill="#B3CDFA"/>
<path d="M966.02 485.173L966.868 479.334C966.986 478.566 967.623 478 968.368 478H1125.47C1126.41 478 1127.13 478.869 1126.98 479.827L1126.13 485.666C1126.01 486.434 1125.38 487 1124.63 487H967.521C966.587 487 965.869 486.131 966.02 485.173V485.173Z" fill="#E1EBFD"/>
<path d="M903.027 455.4L898.11 487.849C897.261 493.18 901.415 498 906.853 498H951.445C951.541 497.627 951.617 497.248 951.681 496.864L958.855 449.536C958.936 449.018 958.984 448.507 959 448H911.77C907.418 448 903.71 451.146 903.027 455.411V455.4Z" fill="#FFB300"/>
<path d="M925.204 483.995C925.087 483.995 924.964 483.984 924.847 483.968C923.648 483.774 922.832 482.652 923.029 481.467L926.622 459.825C926.819 458.64 927.959 457.834 929.153 458.029C930.352 458.224 931.168 459.346 930.971 460.531L927.378 482.172C927.203 483.242 926.27 484 925.209 484L925.204 483.995Z" fill="white"/>
<path d="M907.11 428.851L912.042 396.409C912.722 392.145 916.442 389 920.814 389H1141.12C1146.57 389 1150.74 393.819 1149.89 399.149L1144.96 431.591C1144.28 435.855 1140.56 439 1136.19 439H915.881C910.425 439 906.263 434.181 907.11 428.851Z" fill="white"/>
<path d="M978.02 404.173L978.869 398.334C978.987 397.566 979.625 397 980.371 397H1088.48C1089.41 397 1090.13 397.869 1089.98 398.827L1089.13 404.666C1089.01 405.434 1088.37 406 1087.63 406H979.522C978.588 406 977.869 405.131 978.02 404.173Z" fill="#B3CDFA"/>
<path d="M975.02 426.173L975.868 420.334C975.986 419.566 976.624 419 977.368 419H1134.48C1135.41 419 1136.13 419.869 1135.98 420.827L1135.13 426.666C1135.01 427.434 1134.38 428 1133.63 428H976.521C975.587 428 974.869 427.131 975.02 426.173Z" fill="#E1EBFD"/>
<path d="M912.027 396.4L907.11 428.849C906.261 434.18 910.415 439 915.854 439H960.445C960.541 438.627 960.617 438.248 960.681 437.864L967.855 390.536C967.936 390.018 967.984 389.507 968 389H920.77C916.418 389 912.71 392.146 912.027 396.411V396.4Z" fill="#2A27E9"/>
<path d="M934.204 424.995C934.087 424.995 933.964 424.984 933.847 424.968C932.648 424.774 931.832 423.652 932.029 422.467L935.622 400.825C935.819 399.64 936.959 398.834 938.153 399.029C939.352 399.224 940.168 400.346 939.971 401.531L936.378 423.172C936.203 424.242 935.264 425 934.209 425L934.204 424.995Z" fill="white"/>
<path d="M656.906 126.52C655.076 127.653 651.517 128.514 648 128.626L648.976 123.558C653.904 123.398 657.044 121.617 658.815 118H665L657.861 155H651.405L656.901 126.525L656.906 126.52Z" fill="white"/>
<path d="M667.703 136.5C670.124 124.046 676.825 117 686.273 117C695.72 117 699.734 124.046 697.307 136.5C694.886 148.954 688.185 156 678.683 156C669.182 156 665.276 148.954 667.703 136.5V136.5ZM690.72 136.5C692.535 127.159 690.092 122.791 685.146 122.791C679.599 122.791 675.899 128.253 674.295 136.5C672.481 145.841 674.924 150.209 679.815 150.209C685.417 150.209 689.117 144.747 690.72 136.5V136.5Z" fill="white"/>
<path d="M699.519 147.008H707.381L705.862 155H698L699.519 147.008ZM703.138 128H711L709.481 135.992H701.619L703.138 128Z" fill="white"/>
<path d="M712.246 144.145H718.492C717.791 147.803 720.528 150.21 725.365 150.21C730.577 150.21 734.508 147.862 735.178 144.366C735.853 140.871 732.826 138.522 727.615 138.522H724.138L725.252 132.732H728.729C733.239 132.732 736.656 130.767 737.224 127.815C737.803 124.81 735.151 122.79 730.641 122.79C726.131 122.79 722.879 125.575 722.07 129.781H715.932C717.405 122.133 723.715 117 731.75 117C739.785 117 744.997 120.986 743.84 126.996C743.24 130.11 740.363 133.497 736.683 135.409C740.32 137.101 742.184 140.978 741.397 145.077C740.138 151.632 733.266 156 724.251 156C715.235 156 710.881 151.25 712.246 144.145V144.145Z" fill="white"/>
<path d="M745.086 149.514L765.785 136.921C768.409 135.347 770.554 132.254 771.151 129.214C771.906 125.36 769.337 122.754 764.655 122.754C759.974 122.754 756.21 126.227 755.172 131.494H748.948C750.653 122.807 757.41 117 765.78 117C774.15 117 779.195 121.886 777.756 129.214C776.795 134.1 773.172 139.094 768.696 141.7L756.199 149.246H773.769L772.64 155H744L745.075 149.519L745.086 149.514Z" fill="white"/>
<path d="M673.77 167H683L682.676 168.751H675.323L674.525 173.078H680.921L680.597 174.829H674.201L672.877 182H671L673.765 167.006L673.77 167Z" fill="white"/>
<path d="M684.14 171.22H685.918L685.624 172.706C686.767 171.539 687.894 171 689.134 171C689.468 171 689.802 171.088 690 171.215L689.745 172.508H688.992C686.994 172.508 685.408 173.779 685.029 175.699L683.778 182H682L684.146 171.215L684.14 171.22Z" fill="white"/>
<path d="M692.272 171.067H694.155L691.883 182H690L692.272 171.067ZM693.117 167H695L694.502 169.404H692.62L693.117 167Z" fill="white"/>
<path d="M694.143 176.397C694.794 173.037 697.372 170.794 700.596 170.794C702.109 170.794 703.533 171.613 704.135 172.839L705.267 167H707L704.129 181.786H702.396L702.749 179.955C701.667 181.181 699.928 182 698.416 182C695.192 182 693.486 179.757 694.137 176.397H694.143ZM703.445 176.397C703.92 173.939 702.727 172.301 700.475 172.301C698.223 172.301 696.351 173.939 695.871 176.397C695.396 178.855 696.588 180.493 698.885 180.493C701.181 180.493 702.97 178.855 703.445 176.397Z" fill="white"/>
<path d="M707.138 176.5C707.787 173.202 710.333 171 713.479 171C714.942 171 716.316 171.804 716.921 172.986L717.273 171.211H719L716.916 181.79H715.189L715.541 180.014C714.469 181.201 712.78 182 711.312 182C708.167 182 706.489 179.798 707.138 176.5V176.5ZM716.234 176.5C716.707 174.087 715.563 172.479 713.363 172.479C711.164 172.479 709.338 174.087 708.865 176.5C708.392 178.913 709.558 180.521 711.78 180.521C714.001 180.521 715.761 178.913 716.234 176.5V176.5Z" fill="white"/>
<path d="M722.59 181.275L720.564 171H722.303L723.838 179.027L728.24 171H730L721.76 186H720L722.595 181.275H722.59Z" fill="white"/>
<path d="M510.355 292C496.215 292 485.323 279.49 487.214 265.423L493.872 216H541L533.496 271.705C531.929 283.329 522.044 292 510.355 292V292Z" fill="#FFB300"/>
<path d="M557.355 292C543.215 292 532.323 279.49 534.214 265.423L540.872 216H588L580.496 271.705C578.929 283.329 569.044 292 557.355 292V292Z" fill="white"/>
<path d="M604.355 292C590.215 292 579.323 279.49 581.214 265.423L587.872 216H635L627.496 271.705C625.929 283.329 616.044 292 604.355 292V292Z" fill="#FFB300"/>
<path d="M651.355 292C637.215 292 626.323 279.49 628.214 265.423L634.872 216H682L674.496 271.705C672.929 283.329 663.044 292 651.355 292V292Z" fill="white"/>
<path d="M699.355 292C685.215 292 674.323 279.49 676.214 265.423L682.872 216H730L722.496 271.705C720.929 283.329 711.044 292 699.355 292V292Z" fill="#FFB300"/>
<path d="M746.355 292C732.215 292 721.323 279.49 723.214 265.423L729.872 216H777L769.496 271.705C767.929 283.329 758.044 292 746.355 292V292Z" fill="white"/>
<path d="M793.355 292C779.215 292 768.323 279.49 770.214 265.423L776.872 216H824L816.496 271.705C814.929 283.329 805.044 292 793.355 292V292Z" fill="#FFB300"/>
<path d="M840.355 292C826.215 292 815.323 279.49 817.214 265.423L823.872 216H871L863.496 271.705C861.929 283.329 852.044 292 840.355 292V292Z" fill="white"/>
<path d="M885 197H533.416L494 216H871.274L883.175 210.265L885 197Z" fill="white"/>
<path d="M533.238 197L494 216H540.763L580 197H533.238Z" fill="#E8A300"/>
<path d="M627.238 197L588 216H634.763L674 197H627.238Z" fill="#E8A300"/>
<path d="M722.238 197L683 216H729.763L769 197H722.238Z" fill="#E8A300"/>
<path d="M816.238 197L777 216H823.763L863 197H816.238Z" fill="#E8A300"/>
<path d="M784.984 419.751C784.979 419.713 784.974 419.659 784.968 419.6C784.946 419.287 784.941 418.694 784.936 418.003C784.925 416.763 784.903 415.199 784.778 414.384C784.762 414.293 784.746 414.212 784.729 414.142C784.697 414.001 784.659 413.84 784.621 413.673C784.583 413.505 784.539 413.322 784.485 413.144C784.431 412.961 784.371 412.777 784.3 412.599C784.241 412.454 784.17 412.308 784.094 412.173C784.062 412.109 784.024 412.049 783.98 411.99C783.899 411.866 783.806 411.747 783.703 411.639C783.638 411.575 783.568 411.515 783.492 411.461C783.389 411.386 783.269 411.327 783.15 411.278C782.916 411.186 782.645 411.132 782.33 411.154C782.211 411.165 782.08 411.181 781.945 411.208C781.402 411.321 780.788 411.418 780.142 411.494C778.21 411.72 776.044 411.747 775.013 411.424C774.41 411.229 773.227 410.933 772.016 410.647C771.495 410.523 770.974 410.399 770.485 410.286C770.323 410.248 770.165 410.21 770.013 410.178C769.253 410 768.634 409.854 768.363 409.784C768.037 409.698 767.728 409.638 767.37 409.466C767.19 409.38 766.995 409.266 766.778 409.105C766.707 409.051 766.631 408.991 766.555 408.927C766.403 408.797 766.235 408.646 766.056 408.463C765.964 408.371 765.871 408.274 765.774 408.172C765.578 407.961 765.372 407.719 765.144 407.443C765.03 407.303 764.911 407.158 764.791 406.996C763.933 405.89 762.549 403.62 761.203 401.301C760.628 400.308 760.052 399.305 759.531 398.383C759.444 398.227 759.357 398.076 759.276 397.93C759.026 397.482 758.787 397.062 758.57 396.673C758.5 396.544 758.429 396.42 758.359 396.296C758.017 395.686 757.74 395.185 757.544 394.845C757.468 394.705 757.403 394.597 757.354 394.511C756.583 393.168 755.069 391.787 755.226 387.505C755.259 386.567 755.378 384.986 755.547 383.04C755.623 382.209 755.704 381.308 755.796 380.365C755.889 379.421 755.986 378.434 756.095 377.431C756.236 376.088 756.388 374.707 756.545 373.343C756.621 372.663 756.703 371.984 756.784 371.315C756.904 370.317 757.029 369.341 757.148 368.413C757.186 368.106 757.229 367.799 757.267 367.502C757.349 366.903 757.43 366.332 757.506 365.792C757.783 363.899 758.038 362.384 758.255 361.543C758.744 359.606 759.422 356.004 760.101 352.59C760.188 352.164 760.269 351.738 760.356 351.323C760.4 351.112 760.443 350.907 760.481 350.702C760.774 349.268 761.062 347.93 761.328 346.857C761.366 346.706 761.404 346.555 761.442 346.415C761.518 346.129 761.588 345.865 761.654 345.633C761.757 345.277 761.854 344.986 761.947 344.759C762.006 344.614 762.071 344.457 762.131 344.301C762.451 343.519 762.799 342.656 763.119 341.804C763.184 341.637 763.244 341.464 763.304 341.297C763.483 340.795 763.646 340.304 763.776 339.857C763.906 339.404 764.009 338.994 764.064 338.638C764.102 338.401 764.118 338.19 764.107 338.012C764.107 337.926 764.091 337.845 764.075 337.775C764.058 337.71 764.026 337.651 763.982 337.586C763.971 337.57 763.955 337.554 763.944 337.532C763.906 337.484 763.857 337.435 763.803 337.387C763.787 337.371 763.771 337.36 763.754 337.344C763.684 337.284 763.597 337.225 763.505 337.166C763.483 337.149 763.456 337.139 763.434 337.128C763.358 337.085 763.271 337.036 763.184 336.993C763.146 336.977 763.108 336.955 763.07 336.939C762.973 336.896 762.875 336.847 762.766 336.804C762.739 336.794 762.717 336.783 762.69 336.772C762.56 336.718 762.424 336.669 762.289 336.621C762.229 336.599 762.169 336.578 762.109 336.562C762.017 336.529 761.93 336.502 761.833 336.47C761.762 336.448 761.691 336.427 761.621 336.405C761.518 336.373 761.415 336.346 761.312 336.314C761.176 336.276 761.035 336.238 760.894 336.2C760.834 336.184 760.769 336.168 760.709 336.152C760.595 336.125 760.486 336.092 760.372 336.065C760.334 336.055 760.291 336.049 760.253 336.038C758.939 335.726 757.544 335.483 756.524 335.354C753.598 334.976 739.94 334.857 734.99 335.213C729.958 335.575 724.144 337.371 723.454 339.156C723.454 339.156 721.023 349.667 721.56 356.096C722 361.359 723.015 373.203 722.722 376.061C722.428 378.979 720.024 387.688 719.66 390.067C719.296 392.445 717.804 397.401 717.804 397.401C717.804 397.401 714.601 401.824 713.531 403.911C712.315 406.273 709.911 414.53 708 422.83C710.73 423.925 719.931 427.085 728.34 425.759H728.356C728.828 425.683 729.295 425.591 729.757 425.489C729.778 425.489 729.806 425.478 729.827 425.473C730.267 425.376 730.701 425.257 731.13 425.128C731.211 425.101 731.293 425.079 731.374 425.052C731.803 424.917 732.227 424.777 732.645 424.615C733.133 423.429 733.54 422.194 733.822 421.25C734.099 420.409 734.344 419.643 734.469 419.233C734.729 418.882 735.348 418.451 736.792 418.478C738.095 418.499 740.684 419.028 741.704 420.403C742.622 421.644 745.352 425.812 747.182 426.648C749.016 427.49 750.895 428.137 755.026 427.975C759.162 427.808 767.972 426.756 773.352 425.343C776.37 424.55 779.16 423.51 781.136 422.69C781.179 422.674 781.217 422.657 781.255 422.641C781.418 422.571 781.575 422.506 781.727 422.442C781.809 422.409 781.879 422.377 781.955 422.345C782.059 422.302 782.167 422.253 782.265 422.21C782.341 422.177 782.411 422.145 782.482 422.113C782.574 422.075 782.661 422.032 782.743 421.994C782.808 421.967 782.867 421.935 782.933 421.908C783.014 421.87 783.09 421.838 783.161 421.805C783.215 421.778 783.264 421.757 783.318 421.735C783.383 421.703 783.448 421.676 783.503 421.649C783.546 421.627 783.584 421.611 783.622 421.59C783.682 421.563 783.731 421.536 783.779 421.514C783.807 421.503 783.834 421.487 783.855 421.476C783.921 421.444 783.975 421.417 784.013 421.395C784.425 421.174 784.74 420.867 784.898 420.495C784.99 420.274 785.022 420.026 784.984 419.761V419.751Z" fill="#BE8600"/>
<path d="M716.455 332.151C716.455 332.151 714.023 342.662 714.561 349.091C715.001 354.355 716.016 366.199 715.723 369.058C715.429 371.976 713.025 380.686 712.661 383.065C712.297 385.443 710.804 390.4 710.804 390.4C710.804 390.4 707.601 394.822 706.532 396.91C705.316 399.272 702.911 407.529 701 415.83C704.208 417.113 716.352 421.256 725.641 417.615C726.613 415.242 727.275 412.658 727.275 412.658C727.275 412.658 727.389 411.434 729.794 411.477C731.097 411.499 733.686 412.027 734.707 413.403C735.624 414.643 738.355 418.812 740.184 419.648C742.019 420.49 743.898 421.137 748.029 420.975C752.166 420.808 760.976 419.756 766.356 418.343C771.731 416.93 776.372 414.735 777.013 414.4C777.67 414.05 778.088 413.467 777.984 412.766C777.892 412.146 778.001 408.29 777.729 407.157C777.463 406.019 777.11 403.765 774.944 404.223C772.784 404.676 769.391 404.87 768.012 404.439C766.633 403.991 762.23 403.031 761.367 402.799C760.499 402.567 759.76 402.54 757.795 400.011C755.83 397.487 751.139 388.863 750.363 387.52C749.592 386.177 748.078 384.796 748.235 380.514C748.387 376.231 750.287 358.417 751.27 354.549C752.247 350.682 753.99 340.133 754.967 337.754C755.938 335.381 757.372 331.908 757.1 330.775C756.829 329.648 752.062 328.683 749.538 328.354C746.612 327.976 732.953 327.857 728.002 328.213C722.97 328.575 717.156 330.371 716.466 332.156L716.455 332.151Z" fill="#E8A300"/>
<path d="M724.809 412.001C722.165 411.96 722.04 413.171 722.04 413.171C722.04 413.171 720.809 417.008 720 419C722.074 418.816 724.125 418.428 726.057 417.743C726.564 416.624 727.698 413.462 728 412.573C726.86 412.185 725.607 412.011 724.803 412.001H724.809Z" fill="#FFBB1B"/>
<path d="M777.979 413.058C777.886 412.438 777.995 408.579 777.723 407.445C777.457 406.306 777.103 404.05 774.934 404.509C772.769 404.962 769.37 405.157 767.989 404.725C766.608 404.277 762.197 403.316 761.333 403.084C760.463 402.852 759.723 402.825 757.755 400.294C755.786 397.768 751.087 389.137 750.31 387.793C749.537 386.449 748.02 385.068 748.178 380.782C748.33 376.497 750.234 358.669 751.218 354.799C752.197 350.929 753.942 340.372 754.921 337.992C755.895 335.617 757.33 332.141 757.058 331.008C756.863 330.193 754.328 329.464 751.979 329C752.153 329.14 752.262 329.286 752.3 329.437C752.588 330.625 751.082 334.262 750.065 336.751C749.043 339.239 747.215 350.287 746.193 354.341C745.165 358.389 743.175 377.047 743.012 381.532C742.849 386.018 744.431 387.464 745.241 388.873C746.057 390.282 750.973 399.311 753.034 401.956C755.095 404.601 755.873 404.633 756.781 404.876C757.689 405.119 762.301 406.128 763.747 406.592C765.188 407.051 768.75 406.841 771.013 406.371C773.28 405.891 773.65 408.255 773.933 409.442C774.221 410.624 774.102 414.667 774.199 415.315C774.238 415.557 774.205 415.784 774.134 416C775.679 415.363 776.734 414.856 777.011 414.71C777.669 414.359 778.088 413.776 777.984 413.075L777.979 413.058Z" fill="#FFBB1B"/>
<path d="M732.785 552.692C732.812 552.644 732.834 552.59 732.856 552.542C732.97 552.305 733.079 552.069 733.182 551.838C733.28 551.607 733.372 551.381 733.454 551.161C733.47 551.113 733.492 551.064 733.508 551.016C733.589 550.796 733.665 550.576 733.725 550.361C733.736 550.323 733.742 550.291 733.752 550.253C733.807 550.055 733.856 549.856 733.894 549.662C733.899 549.625 733.91 549.593 733.915 549.555C733.953 549.345 733.975 549.131 733.992 548.926C733.992 548.883 733.992 548.835 733.997 548.792C734.002 548.577 734.002 548.362 733.981 548.153C733.861 546.944 733.693 545.574 733.492 544.285C733.448 544.011 733.405 543.743 733.356 543.479C733.35 543.447 733.345 543.415 733.339 543.388C733.29 543.114 733.242 542.845 733.187 542.593L733.176 542.545C733.122 542.281 733.068 542.024 733.008 541.787V541.771C732.943 541.524 732.883 541.298 732.818 541.083C732.307 539.37 731.383 537.436 731.519 535.722C731.655 534.009 731.899 531.006 732.644 529.722C729.427 529.292 728.78 529.292 727.329 528.433C725.878 527.579 724.867 526.719 724.867 526.719C724.867 526.719 721.585 532.505 719.661 534.868C717.732 537.221 715.243 538.51 712.602 538.929C711.966 539.031 711.352 539.064 710.754 539.031C710.635 539.026 710.521 539.01 710.406 538.999C710.254 538.983 710.102 538.967 709.95 538.94C709.825 538.919 709.7 538.897 709.58 538.87C709.439 538.838 709.298 538.8 709.162 538.763C709.048 538.731 708.934 538.698 708.82 538.661C708.597 538.586 708.379 538.5 708.173 538.403C707.369 538.021 706.651 537.484 706.059 536.786C704.565 535.024 702.521 532.29 702.456 525C699.07 526.719 698.418 526.719 696.902 526.719C695.386 526.719 692.984 526.929 692.984 526.929L692.826 528.857C691.93 531.86 689.968 537.425 688.702 539.569C688.604 539.74 688.506 539.912 688.403 540.084C688.294 540.272 688.191 540.455 688.088 540.643C688.049 540.707 688.017 540.772 687.979 540.842C687.886 541.014 687.794 541.18 687.702 541.352C687.669 541.411 687.637 541.476 687.604 541.535C687.446 541.836 687.294 542.131 687.153 542.426C687.109 542.518 687.066 542.609 687.022 542.695C686.957 542.835 686.897 542.969 686.838 543.109C686.794 543.205 686.751 543.307 686.713 543.404C686.658 543.538 686.604 543.673 686.55 543.807C686.512 543.904 686.479 544 686.446 544.097C686.403 544.226 686.354 544.355 686.316 544.484C686.262 544.656 686.218 544.817 686.18 544.983C686.109 545.268 686.061 545.542 686.039 545.8V545.816C686.023 545.983 686.017 546.155 686.012 546.332C685.995 546.874 686.022 547.433 686.088 547.997C686.088 548.019 686.093 548.04 686.099 548.062C686.142 548.395 686.191 548.733 686.262 549.066V549.088C686.332 549.41 686.419 549.727 686.512 550.044C686.533 550.108 686.55 550.173 686.571 550.237C686.669 550.549 686.778 550.86 686.908 551.161C686.963 551.29 687.017 551.435 687.077 551.586C687.8 553.525 688.778 557.575 688.566 560.154C688.452 561.588 688.468 564.951 688.414 568.314C688.397 569.307 688.376 570.301 688.343 571.252C688.316 572.074 688.278 572.853 688.229 573.567C688.191 574.099 688.153 574.593 688.098 575.034V575.082C688.071 575.286 688.044 575.474 688.017 575.652C688.017 575.684 688.006 575.716 688.001 575.748C687.973 575.92 687.941 576.087 687.914 576.237C687.886 576.35 687.865 576.474 687.838 576.592C687.153 579.772 686.164 584.021 684.751 585.88C684.273 586.514 683.419 588.007 682.458 589.817C681.871 590.924 681.235 592.149 680.621 593.379C680.409 593.798 680.202 594.217 680.001 594.625C679.86 594.915 679.719 595.2 679.583 595.479C679.344 595.974 679.115 596.446 678.898 596.903L678.86 596.983C678.768 597.177 678.681 597.36 678.594 597.542C678.577 597.58 678.556 597.617 678.539 597.655C678.442 597.859 678.349 598.063 678.257 598.257C677.838 599.17 677.501 599.933 677.3 600.448C676.197 603.236 674.339 610.306 674.241 614.168C674.219 615.098 674.263 615.946 674.339 616.725C674.366 617.015 674.393 617.289 674.426 617.552V617.601C674.464 617.853 674.491 618.1 674.523 618.331C674.735 619.948 674.92 621.125 674.48 621.872C674.219 622.317 673.877 622.838 673.534 623.333C672.79 624.418 672.822 625.809 673.638 626.717C678.11 631.718 683.686 634.624 690.805 635.581C696.755 636.381 702.912 635.892 708.988 635.307C712.618 634.957 716.243 634.447 719.851 633.765C723.03 633.163 726.378 632.465 729.041 630.472C730.291 629.537 730.09 629.435 729.492 628.264C729.003 627.308 728.497 626.341 728.188 625.304C727.671 623.585 728.622 619.943 728.878 616.725C729.063 614.405 729.845 607.48 729.932 601.883C729.932 601.802 729.932 601.722 729.932 601.641C729.932 601.442 729.932 601.249 729.932 601.055C729.932 600.964 729.932 600.873 729.932 600.781C729.932 600.593 729.932 600.405 729.932 600.217C729.932 600.137 729.932 600.056 729.932 599.976C729.921 599.46 729.905 598.966 729.878 598.493C729.878 598.418 729.867 598.348 729.861 598.278C729.851 598.117 729.84 597.956 729.829 597.8C729.823 597.725 729.818 597.644 729.807 597.569C729.791 597.419 729.774 597.274 729.758 597.129C729.753 597.064 729.742 596.994 729.736 596.935C729.709 596.736 729.682 596.538 729.65 596.355C729.595 596.049 729.541 595.732 729.486 595.41C729.432 595.087 729.378 594.754 729.318 594.416C729.274 594.142 729.226 593.857 729.177 593.578C729.122 593.25 729.068 592.922 729.014 592.589C728.921 592.041 728.834 591.488 728.742 590.94C728.095 586.97 727.47 583.092 727.133 581.781C726.639 579.853 726.742 575.775 727.351 573.637C727.546 572.96 727.818 571.811 728.101 570.495C728.709 567.642 729.361 564.027 729.323 562.711C729.258 560.777 729.867 558.633 731.171 555.845C731.541 555.061 731.948 554.288 732.329 553.536C732.356 553.482 732.388 553.423 732.416 553.364C732.53 553.133 732.644 552.907 732.752 552.681L732.785 552.692Z" fill="#6C98E3"/>
<path d="M688.834 522.868C687.937 525.871 685.975 531.436 684.709 533.579C683.453 535.723 682.176 538.081 682.04 539.795C681.904 541.508 682.187 543.437 682.91 545.156C683.638 546.864 684.795 551.366 684.567 554.154C684.344 556.942 684.616 567.019 683.921 570.226C683.236 573.439 682.219 577.94 680.757 579.869C679.301 581.803 674.393 591.655 673.301 594.443C672.197 597.231 670.339 604.3 670.241 608.157C670.143 612.014 671.236 614.582 670.48 615.871C670.219 616.317 669.877 616.838 669.534 617.333C668.79 618.418 668.822 619.809 669.638 620.717C674.111 625.718 679.687 628.624 686.806 629.581C692.758 630.381 698.915 629.892 704.992 629.307C708.622 628.957 712.247 628.447 715.856 627.765C719.035 627.163 722.383 626.465 725.046 624.472C726.296 623.537 726.095 623.435 725.497 622.264C725.008 621.308 724.503 620.341 724.193 619.304C723.677 617.585 724.628 613.943 724.883 610.725C725.144 607.513 726.541 595.507 725.66 590.366C724.774 585.219 723.649 577.72 723.149 575.797C722.655 573.869 722.758 569.791 723.367 567.653C723.975 565.51 725.399 558.65 725.34 556.727C725.274 554.793 725.883 552.65 727.188 549.862C728.503 547.079 730.226 544.506 729.976 542.153C729.736 539.795 729.334 536.792 728.818 535.078C728.307 533.364 727.383 531.436 727.519 529.722C727.655 528.009 727.9 525.006 728.644 523.722C725.427 523.292 724.78 523.292 723.329 522.433C721.878 521.578 720.867 520.719 720.867 520.719C720.867 520.719 717.584 526.505 715.66 528.868C713.731 531.221 711.242 532.51 708.6 532.929C705.964 533.364 703.595 532.602 702.051 530.786C700.557 529.024 698.513 526.29 698.448 519C695.062 520.719 694.41 520.719 692.893 520.719C691.377 520.719 688.975 520.928 688.975 520.928L688.817 522.857L688.834 522.868Z" fill="#89ADE9"/>
<path d="M717.002 563.508C716.934 564.338 718.753 565.005 721.061 565C722.578 565 723.926 564.707 724.693 564.273C724.795 563.812 724.898 563.335 725 562.846C724.363 562.347 722.965 562 721.305 562C718.997 562 717.07 562.678 717.002 563.503V563.508Z" fill="#D1E1FC"/>
<path d="M710.082 565.952C708.506 567.504 707.639 569.233 708.144 569.809C708.654 570.391 710.342 569.599 711.918 568.048C713.494 566.496 714.361 564.767 713.856 564.191C713.346 563.609 711.658 564.401 710.082 565.952Z" fill="#D1E1FC"/>
<path d="M717.794 568.06C719.312 569.611 721.082 570.39 721.747 569.806C722.411 569.222 721.724 567.492 720.206 565.94C718.688 564.389 716.918 563.61 716.253 564.194C715.589 564.778 716.276 566.508 717.794 568.06Z" fill="#D1E1FC"/>
<path d="M724.082 542.952C722.506 544.504 721.639 546.234 722.144 546.811C722.649 547.388 724.342 546.601 725.918 545.048C727.494 543.496 728.361 541.766 727.856 541.189C727.351 540.612 725.658 541.399 724.082 542.952Z" fill="#D1E1FC"/>
<path d="M702.002 587.505C701.937 588.337 703.676 589.005 705.883 589C708.09 589 709.933 588.321 709.998 587.495C710.063 586.663 708.324 585.995 706.117 586C703.91 586 702.067 586.679 702.002 587.505Z" fill="#D1E1FC"/>
<path d="M714.92 564C715.469 564 715.954 563.775 715.997 563.5C716.04 563.225 715.628 563 715.079 563C714.53 563 714.046 563.225 714.003 563.5C713.96 563.775 714.371 564 714.92 564Z" fill="#D1E1FC"/>
<path d="M714.196 573C715.011 573 715.804 571.205 715.97 568.997C716.135 566.789 715.613 565 714.803 565C713.989 565 713.196 566.795 713.03 569.003C712.865 571.211 713.387 573 714.196 573Z" fill="#D1E1FC"/>
<path d="M729.003 539.491C728.964 539.771 729.331 540 729.82 540C729.884 540 729.942 539.985 730 539.978C729.936 539.653 729.865 539.328 729.788 539C729.376 539.048 729.035 539.244 729.003 539.491V539.491Z" fill="#D1E1FC"/>
<path d="M728.219 547.994C729.206 545.753 730.154 543.651 729.979 541.688C729.964 541.493 729.945 541.291 729.926 541.09C729.838 541.029 729.746 540.995 729.648 541.001C728.905 541.001 728.18 542.845 728.03 545.115C727.952 546.239 728.03 547.256 728.224 548L728.219 547.994Z" fill="#D1E1FC"/>
<path d="M699.082 542.952C697.506 544.504 696.639 546.234 697.144 546.811C697.649 547.388 699.342 546.601 700.918 545.048C702.494 543.496 703.361 541.766 702.856 541.189C702.351 540.612 700.658 541.399 699.082 542.952Z" fill="#D1E1FC"/>
<path d="M676.997 587.412C677.017 587.253 676.936 587.107 676.78 587C676.515 587.335 676.258 587.67 676 588C676.509 587.996 676.949 587.734 676.99 587.412H676.997Z" fill="#D1E1FC"/>
<path d="M685.463 565.955C685.074 566.285 684.731 566.625 684.425 566.961C684.342 568.059 684.236 568.994 684.083 569.643C684.053 569.757 684.029 569.881 684 570C684.891 569.903 686.271 569.189 687.592 568.064C689.415 566.506 690.418 564.77 689.834 564.192C689.244 563.608 687.291 564.403 685.469 565.96L685.463 565.955Z" fill="#D1E1FC"/>
<path d="M691.145 562.808C691.649 563.391 693.338 562.603 694.916 561.055C696.493 559.506 697.363 557.775 696.855 557.192C696.351 556.609 694.662 557.397 693.084 558.945C691.507 560.494 690.637 562.225 691.145 562.808Z" fill="#D1E1FC"/>
<path d="M710.114 562C707.909 562.005 706.067 562.684 706.002 563.514C705.937 564.344 707.675 565.005 709.886 565C712.091 564.995 713.933 564.316 713.998 563.486C714.063 562.656 712.325 561.995 710.114 562Z" fill="#D1E1FC"/>
<path d="M680.91 585.055C682.492 583.506 683.365 581.775 682.854 581.192C682.349 580.609 680.654 581.397 679.072 582.945C678.797 583.215 678.552 583.496 678.322 583.771C677.898 584.623 677.449 585.546 677 586.49C677.02 586.614 677.056 586.727 677.128 586.808C677.633 587.391 679.327 586.603 680.91 585.055V585.055Z" fill="#D1E1FC"/>
<path d="M688.998 563.489C689.07 562.658 687.143 561.995 684.693 562C684.482 562 684.277 562.005 684.078 562.016C684.06 563.027 684.036 564.038 684 564.995C684.145 564.995 684.289 565 684.44 565C686.884 564.995 688.926 564.315 688.998 563.484V563.489Z" fill="#D1E1FC"/>
<path d="M710.747 545.806C711.411 545.222 710.724 543.492 709.206 541.94C707.688 540.389 705.918 539.61 705.253 540.194C704.589 540.778 705.276 542.508 706.794 544.06C708.312 545.611 710.082 546.39 710.747 545.806Z" fill="#D1E1FC"/>
<path d="M699.998 563.495C700.063 562.663 698.324 561.995 696.117 562C693.91 562 692.067 562.679 692.002 563.505C691.937 564.337 693.676 565.005 695.883 565C698.09 565 699.933 564.321 699.998 563.495Z" fill="#D1E1FC"/>
<path d="M691.253 564.194C690.589 564.778 691.276 566.508 692.794 568.06C694.312 569.611 696.082 570.39 696.747 569.806C697.411 569.222 696.724 567.492 695.206 565.94C693.688 564.389 691.918 563.61 691.253 564.194Z" fill="#D1E1FC"/>
<path d="M706.145 538.808C706.649 539.391 708.338 538.603 709.916 537.055C711.493 535.506 712.363 533.775 711.855 533.192C711.351 532.609 709.661 533.397 708.084 534.945C706.507 536.494 705.637 538.225 706.145 538.808Z" fill="#D1E1FC"/>
<path d="M720.998 611.495C721.063 610.663 719.324 609.995 717.117 610C714.91 610.005 713.067 610.679 713.002 611.505C712.937 612.337 714.676 613.005 716.883 613C719.09 613 720.933 612.321 720.998 611.495Z" fill="#D1E1FC"/>
<path d="M715.19 562C716.002 562 716.798 560.21 716.968 558C717.137 555.79 716.623 554 715.81 554C714.998 554 714.202 555.79 714.032 558C713.863 560.21 714.377 562 715.19 562Z" fill="#D1E1FC"/>
<path d="M712.253 612.194C711.589 612.778 712.276 614.508 713.794 616.06C715.312 617.611 717.082 618.39 717.747 617.806C718.411 617.222 717.724 615.492 716.206 613.94C714.688 612.389 712.918 611.61 712.253 612.194Z" fill="#D1E1FC"/>
<path d="M670 611C670.072 611.718 670.159 612.382 670.253 613C670.701 612.734 670.969 612.435 670.998 612.11C671.034 611.691 670.658 611.306 670 611V611Z" fill="#D1E1FC"/>
<path d="M714.084 606.945C712.507 608.494 711.637 610.225 712.145 610.808C712.649 611.391 714.338 610.603 715.916 609.055C717.493 607.506 718.363 605.775 717.855 605.192C717.351 604.609 715.661 605.397 714.084 606.945Z" fill="#D1E1FC"/>
<path d="M682.005 539C682.786 538.764 683.836 538.09 684.839 537.12C686.475 535.546 687.377 533.786 686.849 533.194C686.459 532.756 685.382 533.085 684.185 533.934C683.235 535.672 682.327 537.492 682 538.995L682.005 539Z" fill="#D1E1FC"/>
<path d="M704.032 534.128C703.863 536.267 704.377 538 705.189 538C706.001 538 706.798 536.267 706.967 534.128C707.01 533.596 707.01 533.085 706.973 532.622C706.065 532.574 705.216 532.363 704.446 532C704.245 532.611 704.096 533.338 704.032 534.123V534.128Z" fill="#D1E1FC"/>
<path d="M703.748 538.806C704.411 538.221 703.72 536.487 702.2 534.938C700.68 533.389 698.914 532.609 698.252 533.194C697.589 533.779 698.28 535.513 699.8 537.062C701.32 538.611 703.086 539.391 703.748 538.806Z" fill="#D1E1FC"/>
<path d="M689.197 573C690.011 573 690.804 571.205 690.97 568.997C691.135 566.789 690.613 565 689.803 565C688.989 565 688.196 566.795 688.03 569.003C687.865 571.211 688.387 573 689.197 573Z" fill="#D1E1FC"/>
<path d="M711.81 602C710.998 602 710.202 603.79 710.032 606C709.863 608.209 710.377 610 711.19 610C712.002 610 712.798 608.209 712.968 606C713.137 603.79 712.623 602 711.81 602Z" fill="#D1E1FC"/>
<path d="M675.2 596.995C676.013 596.995 676.805 595.201 676.97 592.995C677.134 590.788 676.614 589 675.806 589C675.694 589 675.577 589.038 675.465 589.109C674.987 590.12 674.546 591.082 674.169 591.924C674.105 592.266 674.057 592.63 674.03 593.005C673.866 595.212 674.387 597 675.194 597L675.2 596.995Z" fill="#D1E1FC"/>
<path d="M704.921 540C705.47 540 705.954 539.775 705.997 539.5C706.04 539.225 705.629 539 705.08 539C704.531 539 704.046 539.225 704.003 539.5C703.96 539.775 704.372 540 704.921 540Z" fill="#D1E1FC"/>
<path d="M704.196 549C705.011 549 705.804 547.205 705.97 544.997C706.135 542.789 705.613 541 704.803 541C703.989 541 703.196 542.795 703.03 545.003C702.865 547.211 703.387 549 704.196 549Z" fill="#D1E1FC"/>
<path d="M689.921 564C690.47 564 690.954 563.775 690.997 563.5C691.04 563.225 690.628 563 690.079 563C689.53 563 689.046 563.225 689.003 563.5C688.96 563.775 689.372 564 689.921 564Z" fill="#D1E1FC"/>
<path d="M712.08 611C711.531 611 711.046 611.225 711.003 611.5C710.96 611.775 711.372 612 711.921 612C712.47 612 712.954 611.775 712.997 611.5C713.04 611.225 712.629 611 712.08 611Z" fill="#D1E1FC"/>
<path d="M701.81 578C700.998 578 700.202 579.79 700.032 582C699.863 584.21 700.377 586 701.189 586C702.002 586 702.798 584.21 702.968 582C703.137 579.79 702.623 578 701.81 578Z" fill="#D1E1FC"/>
<path d="M701.079 587C700.53 587 700.046 587.225 700.003 587.5C699.96 587.775 700.372 588 700.921 588C701.47 588 701.954 587.775 701.997 587.5C702.04 587.225 701.628 587 701.079 587Z" fill="#D1E1FC"/>
<path d="M725 586.573C724.901 586.004 724.803 585.43 724.704 584.861C724.391 584.249 723.909 583.578 723.265 582.938C721.722 581.389 719.929 580.609 719.256 581.194C718.582 581.779 719.285 583.513 720.828 585.062C722.371 586.611 724.164 587.391 724.838 586.806C724.907 586.741 724.959 586.659 725 586.573Z" fill="#D1E1FC"/>
<path d="M695.002 539.514C694.937 540.344 696.675 541.005 698.886 541C701.091 540.995 702.933 540.316 702.998 539.486C703.063 538.656 701.325 537.995 699.114 538C696.909 538.005 695.067 538.684 695.002 539.514Z" fill="#D1E1FC"/>
<path d="M684.998 611.486C685.063 610.656 683.325 609.995 681.114 610C678.909 610.005 677.067 610.684 677.002 611.514C676.937 612.344 678.675 613.005 680.886 613C683.091 612.995 684.933 612.316 684.998 611.486Z" fill="#D1E1FC"/>
<path d="M682.115 538.679C682.074 538.891 682.043 539.098 682.028 539.293C682.002 539.63 681.997 539.978 682.002 540.332C682.65 540.734 683.787 541 685.104 541C687.193 541 688.937 540.321 688.998 539.495C689.06 538.663 687.414 537.995 685.325 538C684.003 538 682.82 538.272 682.11 538.685L682.115 538.679Z" fill="#D1E1FC"/>
<path d="M706.002 539.505C705.937 540.337 707.676 541.005 709.883 541C712.09 541 713.933 540.321 713.998 539.495C714.063 538.668 712.324 537.995 710.117 538C707.91 538 706.067 538.679 706.002 539.505Z" fill="#D1E1FC"/>
<path d="M729.037 534C728.87 535.947 729.284 537.574 730 538C729.778 536.67 729.512 535.425 729.216 534.516C729.16 534.348 729.099 534.174 729.037 534Z" fill="#D1E1FC"/>
<path d="M709.252 557.194C708.589 557.779 709.28 559.513 710.8 561.062C712.32 562.611 714.086 563.391 714.748 562.806C715.411 562.221 714.72 560.487 713.2 558.938C711.68 557.389 709.914 556.609 709.252 557.194Z" fill="#D1E1FC"/>
<path d="M728.748 538.806C729.411 538.221 728.72 536.487 727.2 534.938C725.68 533.389 723.914 532.609 723.252 533.194C722.589 533.779 723.28 535.513 724.8 537.062C726.32 538.611 728.086 539.391 728.748 538.806Z" fill="#D1E1FC"/>
<path d="M720.002 539.514C719.937 540.344 721.675 541.005 723.886 541C726.091 540.995 727.933 540.316 727.998 539.486C728.063 538.656 726.325 537.995 724.114 538C721.909 538.005 720.067 538.684 720.002 539.514Z" fill="#D1E1FC"/>
<path d="M716.145 562.808C716.649 563.391 718.338 562.603 719.916 561.055C721.493 559.506 722.363 557.775 721.855 557.192C721.351 556.609 719.661 557.397 718.084 558.945C716.507 560.494 715.637 562.225 716.145 562.808Z" fill="#D1E1FC"/>
<path d="M690.189 562C691.002 562 691.798 560.21 691.968 558C692.137 555.79 691.623 554 690.81 554C689.998 554 689.202 555.79 689.032 558C688.863 560.21 689.377 562 690.189 562Z" fill="#D1E1FC"/>
<path d="M723.856 589.191C723.346 588.609 721.658 589.401 720.082 590.953C718.506 592.505 717.639 594.235 718.144 594.811C718.649 595.388 720.342 594.601 721.918 593.049C723.494 591.497 724.361 589.768 723.856 589.191Z" fill="#D1E1FC"/>
<path d="M682.918 616.048C684.494 614.496 685.361 612.767 684.856 612.191C684.346 611.609 682.658 612.401 681.082 613.952C679.506 615.504 678.639 617.233 679.144 617.809C679.654 618.391 681.342 617.599 682.918 616.048Z" fill="#D1E1FC"/>
<path d="M709.856 612.191C709.346 611.609 707.658 612.401 706.082 613.952C704.506 615.504 703.639 617.233 704.144 617.809C704.654 618.391 706.342 617.599 707.918 616.048C709.494 614.496 710.361 612.767 709.856 612.191Z" fill="#D1E1FC"/>
<path d="M725.2 597C725.471 597 725.736 596.797 725.976 596.452C726.039 593.932 725.986 591.603 725.72 589.964C725.667 589.652 725.614 589.329 725.561 589C724.838 589.312 724.185 590.973 724.03 592.973C723.866 595.197 724.387 597 725.194 597H725.2Z" fill="#D1E1FC"/>
<path d="M710.196 621C711.011 621 711.804 619.205 711.97 616.997C712.135 614.789 711.613 613 710.803 613C709.989 613 709.196 614.795 709.03 617.003C708.865 619.211 709.387 621 710.196 621Z" fill="#D1E1FC"/>
<path d="M700.197 597C701.011 597 701.804 595.205 701.97 592.997C702.135 590.789 701.613 589 700.803 589C699.989 589 699.196 590.795 699.03 593.003C698.865 595.211 699.387 597 700.197 597Z" fill="#D1E1FC"/>
<path d="M692.117 610C689.91 610 688.067 610.679 688.002 611.505C687.937 612.337 689.676 613.005 691.883 613C694.09 613 695.933 612.321 695.998 611.495C696.063 610.663 694.324 609.995 692.117 610Z" fill="#D1E1FC"/>
<path d="M698.856 589.191C698.346 588.609 696.658 589.401 695.082 590.952C693.506 592.504 692.639 594.233 693.144 594.809C693.654 595.391 695.342 594.599 696.918 593.048C698.494 591.496 699.361 589.767 698.856 589.191Z" fill="#D1E1FC"/>
<path d="M685.197 621C686.011 621 686.804 619.205 686.97 616.997C687.135 614.789 686.613 613 685.804 613C684.989 613 684.196 614.795 684.03 617.003C683.865 619.211 684.387 621 685.197 621Z" fill="#D1E1FC"/>
<path d="M686.189 610C687.002 610 687.798 608.21 687.968 606C688.137 603.79 687.623 602 686.81 602C685.998 602 685.202 603.79 685.032 606C684.863 608.21 685.377 610 686.189 610Z" fill="#D1E1FC"/>
<path d="M692.747 617.806C693.411 617.222 692.724 615.492 691.206 613.94C689.688 612.389 687.918 611.61 687.253 612.194C686.589 612.778 687.276 614.508 688.794 616.06C690.312 617.611 692.082 618.39 692.747 617.806Z" fill="#D1E1FC"/>
<path d="M680.883 589C683.09 589 684.933 588.321 684.998 587.495C685.063 586.663 683.324 585.995 681.117 586C678.91 586 677.067 586.679 677.002 587.505C676.937 588.337 678.676 589.005 680.883 589Z" fill="#D1E1FC"/>
<path d="M685.748 610.806C686.411 610.221 685.72 608.487 684.2 606.938C682.68 605.389 680.914 604.609 680.252 605.194C679.589 605.779 680.28 607.513 681.8 609.062C683.32 610.611 685.086 611.391 685.748 610.806Z" fill="#D1E1FC"/>
<path d="M685.921 612C686.47 612 686.954 611.775 686.997 611.5C687.04 611.225 686.628 611 686.079 611C685.53 611 685.046 611.225 685.003 611.5C684.96 611.775 685.372 612 685.921 612Z" fill="#D1E1FC"/>
<path d="M684.026 557.029C684.016 557.777 684.011 558.602 684 559.47C684.279 559.985 684.657 560.533 685.136 561.059C686.534 562.61 688.159 563.391 688.768 562.805C689.378 562.22 688.742 560.484 687.344 558.933C686.14 557.598 684.773 556.839 684.026 557.029V557.029Z" fill="#D1E1FC"/>
<path d="M682 541C682.035 542.429 682.306 543.93 682.829 545.299C682.879 545.425 682.929 545.579 682.985 545.733C684.13 546.821 685.291 547.3 685.778 546.805C686.361 546.211 685.758 544.452 684.426 542.874C683.608 541.907 682.708 541.236 682 541V541Z" fill="#D1E1FC"/>
<path d="M681.747 594.806C682.411 594.222 681.724 592.492 680.206 590.94C678.688 589.389 676.918 588.61 676.253 589.194C675.589 589.778 676.276 591.508 677.794 593.06C679.312 594.611 681.082 595.39 681.747 594.806Z" fill="#D1E1FC"/>
<path d="M725.226 588C725.182 587.673 725.133 587.333 725.084 587C725.04 587.103 725.013 587.218 725.002 587.34C724.986 587.609 725.073 587.84 725.226 588Z" fill="#D1E1FC"/>
<path d="M705.886 613C708.091 612.995 709.933 612.316 709.998 611.486C710.063 610.656 708.325 609.995 706.114 610C703.909 610.005 702.067 610.684 702.002 611.514C701.937 612.344 703.675 613.005 705.886 613Z" fill="#D1E1FC"/>
<path d="M707.747 594.806C708.411 594.222 707.724 592.492 706.206 590.94C704.688 589.389 702.918 588.61 702.253 589.194C701.589 589.778 702.276 591.508 703.794 593.06C705.312 594.611 707.082 595.39 707.747 594.806Z" fill="#D1E1FC"/>
<path d="M709.2 606.938C707.68 605.389 705.914 604.609 705.252 605.194C704.589 605.779 705.28 607.513 706.8 609.062C708.32 610.611 710.086 611.391 710.748 610.806C711.411 610.221 710.72 608.487 709.2 606.938Z" fill="#D1E1FC"/>
<path d="M723.998 587.486C724.063 586.656 722.325 585.995 720.114 586C717.909 586.005 716.067 586.684 716.002 587.514C715.937 588.344 717.675 589.005 719.886 589C722.091 588.995 723.933 588.316 723.998 587.486Z" fill="#D1E1FC"/>
<path d="M690.916 609.055C692.493 607.506 693.363 605.775 692.855 605.192C692.351 604.609 690.662 605.397 689.084 606.945C687.507 608.494 686.637 610.225 687.145 610.808C687.654 611.391 689.339 610.603 690.916 609.055Z" fill="#D1E1FC"/>
<path d="M698.998 587.486C699.063 586.656 697.325 585.995 695.114 586C692.909 586.005 691.067 586.684 691.002 587.514C690.937 588.344 692.675 589.005 694.886 589C697.091 588.995 698.933 588.316 698.998 587.486Z" fill="#D1E1FC"/>
<path d="M698.2 582.938C696.68 581.389 694.914 580.609 694.252 581.194C693.589 581.779 694.28 583.513 695.8 585.062C697.32 586.611 699.086 587.391 699.748 586.806C700.411 586.221 699.72 584.487 698.2 582.938Z" fill="#D1E1FC"/>
<path d="M705.916 585.055C707.493 583.506 708.363 581.775 707.855 581.192C707.351 580.609 705.662 581.397 704.084 582.945C702.507 584.494 701.637 586.225 702.145 586.808C702.654 587.391 704.338 586.603 705.916 585.055Z" fill="#D1E1FC"/>
<path d="M595.191 364.935C593.307 360.307 590.286 356.371 588.424 351.726C587.541 349.519 586.93 347.173 586.93 344.633C586.93 341.91 587.866 339.134 588.321 336.38C588.797 333.496 588.548 330.887 587.141 328.653C585.825 326.559 583.752 325.023 581.7 323.648C577.369 320.743 572.291 318.397 566.807 317.42C564.046 316.926 561.133 316.802 558.14 317.409C555.227 318 552.444 319.363 549.911 321.211C547.426 323.02 545.217 325.222 543.122 327.455C540.854 329.866 538.748 332.412 536.82 335.059C533.074 340.198 530.216 345.771 526.372 350.856C524.51 353.315 522.393 355.528 520.114 357.649C517.786 359.818 515.393 361.923 513.222 364.237C509.411 368.302 506.211 373.672 506.617 378.671C506.672 379.358 506.812 380.024 507.018 380.652L502.655 400.81C499.282 416.381 509.276 429 524.97 429H557.236C572.935 429 588.391 416.376 591.764 400.81L596.555 378.681C596.718 377.93 596.766 377.199 596.728 376.507C597.465 372.421 596.62 368.431 595.202 364.941L595.191 364.935ZM525.582 355.254C529.739 350.684 532.646 345.368 535.906 340.305C539.219 335.166 543.138 330.215 547.686 325.925C549.748 323.976 551.995 322.166 554.534 320.964C557.095 319.75 559.802 319.347 562.362 319.417C565.069 319.492 567.619 320.083 570.034 320.883C572.518 321.705 574.884 322.736 577.109 323.971C579.248 325.157 581.364 326.489 583.135 328.121C584.786 329.646 586.015 331.531 586.063 333.996C586.118 336.659 585.116 339.451 584.683 342.157C584.261 344.789 584.412 347.285 584.981 349.675C586.101 354.373 588.749 358.266 590.974 362.336C592.522 365.166 593.978 368.372 594.406 371.83C593.253 370.89 591.721 370.337 589.94 370.337H517.629C514.543 370.337 511.495 371.991 509.497 374.456C510.125 372.168 511.409 369.865 512.935 367.894C516.573 363.201 521.565 359.641 525.565 355.243L525.582 355.254Z" fill="#2A27E9"/>
<path d="M550.382 425H518.031C502.29 425 492.275 412.301 495.657 396.642L500.46 374.383C501.459 369.754 506.04 366 510.692 366H583.195C587.847 366 590.805 369.754 589.806 374.383L585.002 396.642C581.621 412.307 566.124 425 550.382 425Z" fill="#1942B2"/>
<path d="M588.238 377.478C591.008 371.822 590.135 366.079 588.201 361.272C586.325 356.611 583.318 352.648 581.465 347.97C580.586 345.748 579.977 343.385 579.977 340.827C579.977 338.086 580.91 335.29 581.362 332.516C581.837 329.612 581.589 326.984 580.188 324.735C578.878 322.626 576.814 321.079 574.772 319.695C570.461 316.77 565.406 314.407 559.947 313.423C557.199 312.925 554.3 312.801 551.32 313.412C548.421 314.007 545.651 315.38 543.129 317.24C540.655 319.062 538.457 321.28 536.371 323.529C534.113 325.957 532.017 328.52 530.099 331.186C526.37 336.361 523.524 341.973 519.698 347.094C517.845 349.571 515.738 351.799 513.469 353.935C511.152 356.119 508.77 358.239 506.609 360.569C502.815 364.663 499.631 370.07 500.035 375.104C500.126 376.289 500.439 377.413 500.972 378.397C501.258 378.922 501.851 379.198 502.54 378.835C503.122 378.533 503.618 377.694 503.333 377.165C501.285 373.374 503.36 368.161 506.345 364.268C509.966 359.542 514.935 355.957 518.917 351.528C523.056 346.927 525.949 341.573 529.193 336.474C532.491 331.299 536.393 326.314 540.919 321.993C542.973 320.03 545.209 318.208 547.736 316.997C550.285 315.775 552.98 315.369 555.528 315.44C558.223 315.515 560.761 316.11 563.164 316.916C565.638 317.743 567.993 318.781 570.208 320.025C572.336 321.22 574.443 322.561 576.205 324.205C577.849 325.741 579.072 327.639 579.121 330.121C579.175 332.803 578.178 335.614 577.746 338.34C577.326 340.989 577.477 343.504 578.043 345.91C579.158 350.641 581.793 354.562 584.008 358.661C586.25 362.808 588.309 367.767 587.274 373.136C587.031 374.396 586.616 375.613 586.024 376.829C585.28 378.343 587.489 378.992 588.228 377.478H588.238Z" fill="#1942B2"/>
<path d="M587.341 383.098L588 380C580.769 384.888 573.068 388.946 565.031 391.368C559.627 392.999 554.168 393.823 548.796 394.238C543.581 394.647 538.425 394.62 533.41 394.145C523.401 393.196 513.921 390.55 505.501 386.262C503.156 385.068 500.789 383.693 498.611 382.078L498 384.942C498.897 385.57 499.816 386.153 500.74 386.704C508.928 391.57 518.515 394.674 528.508 396.092C538.814 397.554 549.915 397.325 560.897 394.854C570.084 392.787 579.039 388.51 587.346 383.093L587.341 383.098Z" fill="#6681CC"/>
<path d="M541.899 404.5C541.378 406.984 538.982 409 536.554 409C534.126 409 532.58 406.984 533.101 404.5C533.622 402.016 536.018 400 538.446 400C540.874 400 542.42 402.016 541.899 404.5Z" fill="#6681CC"/>
<path d="M540.257 494.575V554.956L552.961 530.441L557.256 507.934C559.221 497.653 568.417 490.363 578.87 490.811L582 490.946V538.616L561.795 576.242C556.495 586.113 549.528 594.995 541.212 602.496L508.395 632.081L497.396 641.79C493.468 645.257 490.71 649.863 489.517 654.971L464.709 773H365L413.921 623.28C414.779 621.039 415.227 618.657 415.243 616.254L415.842 533.594C415.907 524.501 420.354 515.991 427.785 510.753L433.516 506.714C435.092 505.602 436.873 504.802 438.751 504.36L472.658 496.4L485.481 471.075C488.46 465.184 494.547 461.523 501.142 461.642L515.308 461.901L537.564 389.322C538.897 384.97 542.917 382 547.467 382C553.894 382 558.767 387.799 557.672 394.133L540.262 494.586L540.257 494.575Z" fill="white"/>
<path d="M545.727 460L551.629 471.49C552.734 473.643 553.188 476.09 552.929 478.515L550.467 501.327C549.933 506.264 545.881 510 541.051 510H540V493.997L545.727 460V460Z" fill="white"/>
<path d="M540.61 511H538L538.021 493.284L544.476 455L552.463 470.544C553.708 472.969 554.215 475.696 553.917 478.423L551.479 500.985C550.862 506.692 546.186 511 540.6 511H540.61ZM541.138 493.698V507.751C544.883 507.493 547.949 504.519 548.367 500.625L550.805 478.063C551.029 475.976 550.642 473.9 549.69 472.044L545.998 464.859L541.138 493.692V493.698Z" fill="#2A27E9"/>
<path d="M507.544 491C507.415 491 507.287 490.984 507.158 490.947C506.336 490.728 505.838 489.854 506.048 488.995L512.961 461.202C513.171 460.349 514.014 459.832 514.842 460.05C515.664 460.269 516.162 461.143 515.952 462.001L509.039 489.795C508.859 490.515 508.233 490.995 507.549 490.995L507.544 491Z" fill="#2A27E9"/>
<path d="M578.81 490.016C576.625 492.844 575.598 497.166 575.343 500.901C574.689 510.684 575.187 520.608 573.191 530.208C568.525 552.678 550.945 570.227 532.262 583.604C513.579 596.982 492.804 607.79 476.593 624.06C473.061 627.6 469.714 631.48 467.859 636.121C464.307 645.025 466.783 655.008 467.416 664.57C468.784 685.173 461.338 705.221 454.011 724.529C449.388 736.703 444.64 749.109 436.448 759.238C432.857 763.684 428.661 767.624 425 772H464.474L489.332 654.053C489.781 652.137 490.452 650.292 491.317 648.554C491.609 647.977 491.917 647.405 492.252 646.849C493.583 644.626 495.259 642.607 497.227 640.875L508.248 631.173L541.13 601.606C546.338 596.922 551.021 591.699 555.093 586.033C557.537 582.633 559.765 579.071 561.755 575.375L582 537.773V490.135L578.864 490C578.864 490 578.826 490 578.804 490L578.81 490.016Z" fill="#B3CDFA"/>
<path d="M364.616 773.995C364.449 773.995 364.282 773.968 364.115 773.914C363.263 773.638 362.805 772.721 363.08 771.874L411.972 622.171C412.765 620.104 413.175 617.935 413.191 615.717L413.789 533.108C413.859 523.518 418.576 514.496 426.403 508.97L432.128 504.933C433.88 503.697 435.831 502.818 437.917 502.327L471.053 494.545L483.517 469.905C486.751 463.51 493.495 459.452 500.632 459.592L513.564 459.83L535.439 388.462C536.991 383.4 541.584 380 546.878 380C550.414 380 553.751 381.554 556.031 384.263C558.311 386.972 559.271 390.528 558.667 394.02L541.304 494.275V547.84L550.834 529.444L555.082 507.183C557.179 496.202 567.162 488.28 578.326 488.755L583 488.954V538.553L562.624 576.517C557.228 586.576 550.193 595.545 541.719 603.186L508.939 632.753L497.942 642.467C494.249 645.732 491.699 649.995 490.573 654.792L465.803 772.71C465.62 773.584 464.763 774.146 463.889 773.962C463.016 773.779 462.455 772.921 462.639 772.046L487.419 654.091C488.708 648.592 491.602 643.746 495.802 640.039L506.788 630.336L539.552 600.779C547.746 593.386 554.548 584.709 559.772 574.979L579.76 537.733V492.052L578.181 491.987C568.623 491.588 560.047 498.371 558.252 507.788L553.918 530.512L538.069 561.116L538.091 493.86L555.481 393.47C555.923 390.922 555.222 388.327 553.557 386.352C551.896 384.377 549.46 383.238 546.878 383.238C543.018 383.238 539.665 385.72 538.533 389.411L515.946 463.111L500.578 462.83C494.637 462.722 489.085 466.073 486.406 471.373L473.258 497.357L438.656 505.484C436.974 505.877 435.405 506.584 433.988 507.583L428.263 511.619C421.282 516.541 417.077 524.587 417.018 533.135L416.42 615.744C416.398 618.334 415.924 620.876 415.002 623.293L366.152 772.883C365.931 773.563 365.295 774 364.616 774V773.995Z" fill="#2A27E9"/>
<path d="M475.798 705C475.652 705 475.512 705 475.365 705C460.784 704.908 443.925 700.151 427.904 691.615C411.878 683.075 398.536 671.736 390.322 659.677C381.757 647.104 379.723 635.149 384.593 626.007C389.284 617.201 399.298 612.233 413.723 612L413.55 617.418C401.181 617.618 393.087 621.558 389.365 628.551C385.491 635.83 387.417 645.8 394.791 656.63C402.518 667.974 415.184 678.702 430.447 686.836C445.71 694.971 461.677 699.501 475.398 699.588C475.533 699.588 475.669 699.588 475.804 699.588C488.692 699.588 497.884 695.631 501.72 688.427C506.606 679.259 503.782 667.558 491.473 654.092L493.583 648.241C507.504 663.471 512.504 679.687 506.498 690.966C501.677 700.021 490.786 704.989 475.798 704.989V705Z" fill="#FFB300"/>
<path d="M742.995 860.174C742.995 850.134 734.875 841.994 724.86 841.994C722.085 841.994 719.531 842.729 717.177 843.841C713.745 836.782 707.21 831.883 699.343 830.214C699.688 828.394 700.437 826.714 700.437 824.791C700.437 808.08 686.925 794.539 670.26 794.539C662.373 794.539 655.315 797.742 649.943 802.711C647.918 773.852 624.174 751 594.876 751C569.413 751 548.18 768.311 541.672 791.757C539.226 791.266 536.699 790.996 534.108 790.996C516.441 790.996 501.727 803.111 497.428 819.466C493.452 817.872 489.158 816.873 484.616 816.873C465.5 816.873 450 832.407 450 851.576C450 858.068 452.257 863.804 455.355 869H740.403C741.906 866.348 743 863.442 743 860.174H742.995Z" fill="#F9FBFF"/>
<path d="M743.383 870H533.617C532.722 870 532 869.33 532 868.5C532 867.67 532.722 867 533.617 867H743.383C744.278 867 745 867.67 745 868.5C745 869.33 744.278 870 743.383 870Z" fill="#2A27E9"/>
<path d="M552.377 870H456.623C455.725 870 455 869.33 455 868.5C455 867.67 455.725 867 456.623 867H552.377C553.275 867 554 867.67 554 868.5C554 869.33 553.275 870 552.377 870Z" fill="#2A27E9"/>
<path d="M528.45 798.5C546.58 798.5 561.412 813.301 561.412 831.392C561.412 835.118 560.647 838.651 559.488 842C562.958 836.796 565 830.575 565 823.892C565 805.801 550.168 791 532.038 791C517.648 791 505.466 800.387 501 813.285C506.916 804.398 517.018 798.5 528.45 798.5V798.5Z" fill="#B3CDFA"/>
<path d="M692.678 834.241C684.563 839.948 673.233 838.012 667.5 829.935C666.32 828.267 665.544 826.454 665 824.594C665.097 828.01 666.153 831.431 668.27 834.413C674.003 842.49 685.334 844.431 693.448 838.719C699.892 834.188 702.365 826.165 700.274 819C700.442 824.829 697.791 830.643 692.672 834.241H692.678Z" fill="#B3CDFA"/>
<path d="M700.389 825.995C699.495 825.995 698.773 825.271 698.773 824.375C698.773 808.594 685.961 795.755 670.213 795.755C663.22 795.755 656.388 798.503 650.99 803.497L648.517 805.781L648.28 802.417C646.303 774.278 622.823 752.234 594.824 752.234C570.881 752.234 549.649 768.501 543.178 791.787C542.936 792.651 542.047 793.153 541.185 792.915C540.323 792.678 539.822 791.781 540.059 790.923C543.34 779.099 550.468 768.447 560.117 760.921C570.116 753.119 582.12 749 594.819 749C609.338 749 623.141 754.496 633.69 764.468C643.41 773.657 649.551 785.853 651.2 799.092C656.766 794.832 663.408 792.521 670.208 792.521C687.739 792.521 702 806.812 702 824.38C702 825.277 701.278 826 700.384 826L700.389 825.995Z" fill="#2A27E9"/>
<path d="M1199 970.493C1199 963.09 1193.01 957.089 1185.63 957.089C1183.58 957.089 1181.7 957.63 1179.96 958.451C1177.43 953.246 1172.62 949.634 1166.82 948.404C1167.07 947.062 1167.62 945.823 1167.62 944.405C1167.62 932.084 1157.66 922.101 1145.38 922.101C1139.56 922.101 1134.36 924.462 1130.4 928.126C1128.91 906.849 1111.4 890 1089.8 890C1071.03 890 1055.38 902.763 1050.58 920.05C1048.78 919.688 1046.91 919.488 1045 919.488C1031.98 919.488 1021.13 928.421 1017.96 940.479C1015.03 939.304 1011.87 938.567 1008.52 938.567C994.427 938.567 983 950.02 983 964.153C983 968.94 984.664 973.169 986.948 977H1197.09C1198.19 975.045 1199 972.902 1199 970.493H1199Z" fill="#F9FBFF"/>
<path d="M1198.81 978H1044.19C1043.53 978 1043 977.553 1043 977C1043 976.447 1043.53 976 1044.19 976H1198.81C1199.47 976 1200 976.447 1200 977C1200 977.553 1199.47 978 1198.81 978Z" fill="#2A27E9"/>
<path d="M1057.8 978H987.197C986.535 978 986 977.553 986 977C986 976.447 986.535 976 987.197 976H1057.8C1058.47 976 1059 976.447 1059 977C1059 977.553 1058.47 978 1057.8 978Z" fill="#2A27E9"/>
<path d="M1041.16 925.588C1054.47 925.588 1065.36 936.616 1065.36 950.096C1065.36 952.872 1064.8 955.504 1063.95 958C1066.5 954.122 1068 949.487 1068 944.508C1068 931.028 1057.11 920 1043.79 920C1033.23 920 1024.28 926.994 1021 936.604C1025.34 929.983 1032.76 925.588 1041.16 925.588V925.588Z" fill="#B3CDFA"/>
<path d="M1161.76 951.265C1155.67 955.483 1147.17 954.052 1142.87 948.082C1141.99 946.85 1141.41 945.51 1141 944.134C1141.07 946.659 1141.86 949.188 1143.45 951.392C1147.75 957.362 1156.25 958.797 1162.34 954.575C1167.17 951.226 1169.02 945.296 1167.46 940C1167.58 944.309 1165.59 948.606 1161.75 951.265H1161.76Z" fill="#B3CDFA"/>
<path d="M1166.82 945.996C1166.16 945.996 1165.63 945.46 1165.63 944.797C1165.63 933.115 1156.22 923.611 1144.65 923.611C1139.51 923.611 1134.5 925.645 1130.53 929.342L1128.71 931.033L1128.54 928.543C1127.09 907.712 1109.84 891.394 1089.27 891.394C1071.68 891.394 1056.09 903.436 1051.33 920.673C1051.16 921.313 1050.5 921.684 1049.87 921.509C1049.24 921.333 1048.87 920.669 1049.04 920.034C1051.45 911.281 1056.69 903.396 1063.78 897.825C1071.12 892.049 1079.94 889 1089.27 889C1099.93 889 1110.07 893.069 1117.82 900.45C1124.96 907.253 1129.47 916.281 1130.68 926.081C1134.77 922.927 1139.65 921.217 1144.65 921.217C1157.52 921.217 1168 931.796 1168 944.801C1168 945.464 1167.47 946 1166.81 946L1166.82 945.996Z" fill="#2A27E9"/>
</svg>
