<svg width="110" height="120" viewBox="0 0 110 120" fill="none" xmlns="http://www.w3.org/2000/svg">
<path d="M78.8381 80.9976C78.7047 80.9976 78.569 80.9724 78.4368 80.9207L28.31 60.9925C27.012 60.4761 25.9915 59.4816 25.4354 58.1918C24.8793 56.9019 24.8555 55.4703 25.3663 54.1612L36.6313 25.3383C37.1434 24.0293 38.1293 23 39.4083 22.4391C40.6872 21.8783 42.1066 21.8542 43.4046 22.3695L89.6923 40.7712C92.3716 41.8365 93.6922 44.9015 92.6359 47.6037L84.7969 67.6617C84.5754 68.2297 83.9383 68.5096 83.375 68.285C82.8118 68.0616 82.5355 67.4191 82.757 66.851L90.5961 46.7931C90.8926 46.034 90.8783 45.2029 90.5568 44.4547C90.2341 43.7065 89.6422 43.1288 88.8885 42.8297L42.6008 24.428C41.8482 24.1289 41.0242 24.1434 40.2823 24.4688C39.5404 24.7943 38.9677 25.3912 38.6712 26.1514L27.4062 54.9743C27.1097 55.7333 27.124 56.5644 27.4467 57.3126C27.7694 58.0609 28.3612 58.6385 29.115 58.9376L79.2418 78.8658C79.805 79.0892 80.0813 79.7317 79.8598 80.2998C79.6895 80.7346 79.2763 81 78.8393 81L78.8381 80.9976Z" fill="#0B1A48"/>
<path d="M88.2255 90C87.9491 90 87.6737 89.892 87.4629 89.676L71.9752 73.8104C69.3416 71.1125 69.3416 66.7213 71.9752 64.0234C74.6088 61.3255 78.8954 61.3255 81.529 64.0234L93.6837 76.4746C94.1054 76.9067 94.1054 77.6064 93.6837 78.0372C93.2619 78.4692 92.5801 78.4692 92.1584 78.0372L80.0037 65.586C78.2113 63.7498 75.293 63.7498 73.5005 65.586C71.7081 67.4221 71.7081 70.4116 73.5005 72.2478L88.9882 88.1134C89.41 88.5455 89.41 89.2451 88.9882 89.676C88.7773 89.892 88.502 90 88.2255 90V90Z" fill="#0B1A48"/>
<path d="M76.5563 89.9988C75.5143 89.9988 74.4688 89.8163 73.4712 89.4464L58.349 83.831C55.5598 82.7956 53.7799 79.9264 54.022 76.8553L54.4804 71.0282C54.5295 70.4113 55.0488 69.9538 55.6417 70.0037C56.2346 70.0548 56.6755 70.5951 56.6263 71.212L56.1679 77.039C56.0054 79.1015 57.2006 81.0264 59.0729 81.7224L74.1951 87.3377C76.2686 88.1079 78.6063 87.8171 80.4471 86.559L83.3321 84.5878C83.8291 84.2484 84.4969 84.3919 84.8232 84.9091C85.1494 85.4262 85.0115 86.121 84.5144 86.4604L81.6294 88.4316C80.1137 89.4671 78.3397 90 76.5574 90L76.5563 89.9988Z" fill="#0B1A48"/>
<path d="M107.913 112C107.372 112 106.904 111.591 106.838 111.034L102.479 74.0505C102.194 71.6306 101.297 69.3071 99.8826 67.3334C98.4681 65.3585 96.5649 63.7714 94.3791 62.7411L86.6261 59.0887C86.0832 58.8329 85.8488 58.1809 86.102 57.6325C86.3552 57.084 87.0006 56.8473 87.5424 57.103L95.2953 60.7555C97.8157 61.9428 100.01 63.7738 101.64 66.0497C103.27 68.3256 104.305 71.0037 104.634 73.7923L108.992 110.775C109.063 111.375 108.639 111.92 108.044 111.992C108.001 111.996 107.957 112 107.915 112H107.913Z" fill="#0B1A48"/>
<path d="M78.1904 105C77.9744 105 77.7727 104.985 77.5828 104.955L65.9129 103.129C62.7863 102.639 60.3419 100.063 59.9682 96.863L59.5398 93.1917C57.7884 92.1533 56.5366 90.3786 56.1604 88.2546C56.1498 88.1966 56.145 88.1386 56.1438 88.0806L56.0003 81.1368C55.9872 80.5227 56.4666 80.0137 57.0694 80.0004C57.6686 79.9835 58.1717 80.4755 58.1847 81.0896L58.3259 87.9403C58.7116 89.9277 60.2126 91.4594 62.1693 91.8523L76.2527 94.6834C77.4784 94.9301 78.7338 94.7959 79.8836 94.2966L86.3682 91.4763C86.653 91.3518 86.9758 91.3578 87.257 91.4908C87.5382 91.6238 87.7506 91.8716 87.842 92.1738L88.8102 95.381C89.0451 96.1607 89.0618 97.1894 88.8612 98.5277C88.5907 100.329 87.3851 101.876 85.7156 102.567C82.9889 103.693 81.26 104.369 80.5777 104.576C79.6404 104.86 78.8537 105 78.1916 105H78.1904ZM61.8406 94.056L62.1372 96.5995C62.3959 98.8106 64.0844 100.59 66.244 100.929L77.9139 102.755C78.1607 102.794 78.7552 102.805 79.9536 102.442C80.5516 102.261 82.3054 101.573 84.8933 100.504C85.8533 100.108 86.5462 99.2216 86.7005 98.1916C86.8939 96.8993 86.7966 96.2852 86.7206 96.035L86.1096 94.0089L80.7415 96.3432C79.1871 97.019 77.4879 97.2003 75.8291 96.8679L61.8406 94.056V94.056Z" fill="#0B1A48"/>
<path d="M83.882 111C83.8249 111 83.7678 110.995 83.7095 110.986L75.6649 109.703C72.4154 109.185 69.8113 106.722 69.0323 103.428C68.8853 102.809 69.2535 102.185 69.8538 102.033C70.4541 101.882 71.0593 102.261 71.2063 102.88C71.7702 105.264 73.6549 107.047 76.0076 107.422L84.0521 108.705C84.6622 108.802 85.0814 109.391 84.9866 110.022C84.9016 110.592 84.4252 110.999 83.882 110.999V111Z" fill="#0B1A48"/>
<path d="M86.0103 94C85.5494 94 85.1369 93.6317 85.0413 93.0989L84.0196 87.3444C83.9121 86.7371 84.2581 86.1445 84.7942 86.0225C85.3302 85.8994 85.8513 86.2933 85.9587 86.9017L86.9804 92.6562C87.0879 93.2635 86.7419 93.8561 86.2058 93.9781C86.1403 93.9927 86.0737 94 86.0092 94H86.0103Z" fill="#0B1A48"/>
<path d="M54.0014 44C53.386 44 52.7706 43.8846 52.18 43.6539C50.9368 43.1675 49.9567 42.2271 49.4219 41.0039C48.8872 39.7806 48.8599 38.4234 49.345 37.1802C49.8313 35.9371 50.7718 34.957 51.9952 34.4223C53.2185 33.8864 54.5759 33.8603 55.8191 34.3454C57.0622 34.8317 58.0424 35.7721 58.5772 36.9954C59.1132 38.2187 59.1404 39.5759 58.6541 40.819C58.1677 42.0621 57.2273 43.0422 56.0039 43.5769C55.3612 43.8586 54.6813 43.9988 54.0002 43.9988L54.0014 44ZM53.9989 36.2858C53.6292 36.2858 53.2607 36.3627 52.9108 36.5153C52.247 36.8056 51.7358 37.3378 51.4716 38.0127C51.2073 38.6876 51.2222 39.4246 51.5125 40.0883C51.8028 40.752 52.3351 41.2632 53.0101 41.5274C53.685 41.7917 54.422 41.7768 55.0858 41.4852C55.7496 41.1949 56.2607 40.6627 56.525 39.9878C56.7893 39.3129 56.7744 38.576 56.4841 37.9122C56.1937 37.2485 55.6615 36.7373 54.9865 36.4731C54.6664 36.3478 54.3314 36.2858 53.9977 36.2858H53.9989Z" fill="#0B1A48"/>
<path d="M47.0019 42C46.3865 42 45.7711 41.8846 45.1805 41.6539C43.9373 41.1675 42.9571 40.2271 42.4224 39.0039C41.8864 37.7806 41.8603 36.4234 42.3454 35.1802C42.8318 33.9371 43.7723 32.957 44.9956 32.4223C46.219 31.8864 47.5763 31.8603 48.8195 32.3454C50.0627 32.8317 51.0429 33.7721 51.5776 34.9954C52.1136 36.2187 52.1397 37.5759 51.6546 38.819C51.1682 40.0621 50.2277 41.0422 49.0044 41.5769C48.3617 41.8586 47.6818 41.9988 47.0006 41.9988L47.0019 42ZM46.9994 34.2858C46.6296 34.2858 46.2611 34.3627 45.9113 34.5153C45.2475 34.8056 44.7363 35.3378 44.472 36.0127C44.2078 36.6876 44.2226 37.4246 44.513 38.0883C44.8033 38.752 45.3356 39.2632 46.0105 39.5274C46.6855 39.7917 47.4225 39.7768 48.0863 39.4865C48.75 39.1962 49.2612 38.6639 49.5255 37.989C49.7898 37.3141 49.7749 36.5772 49.4845 35.9135C49.1942 35.2497 48.6619 34.7386 47.987 34.4743C47.6669 34.349 47.3319 34.287 46.9981 34.287L46.9994 34.2858Z" fill="#0B1A48"/>
<path d="M56.8878 56.9989C56.7538 56.9989 56.6162 56.9761 56.4835 56.9273L37.7066 50.0199C37.1345 49.8097 36.8533 49.2033 37.0766 48.6649C37.2999 48.1266 37.9444 47.862 38.5165 48.0721L57.2934 54.9795C57.8655 55.1897 58.1467 55.7961 57.9234 56.3345C57.752 56.7467 57.332 57 56.8878 57V56.9989Z" fill="#0B1A48"/>
<path d="M54.8878 62.9989C54.7526 62.9989 54.6162 62.9761 54.4835 62.9273L35.7066 56.0199C35.1345 55.8097 34.8533 55.2033 35.0766 54.6649C35.2999 54.1266 35.9444 53.862 36.5165 54.0721L55.2934 60.9796C55.8655 61.1897 56.1467 61.7961 55.9234 62.3345C55.752 62.7467 55.332 63 54.8878 63V62.9989Z" fill="#0B1A48"/>
<path d="M70.8854 69.9988C70.7511 69.9988 70.6132 69.9754 70.4802 69.925L57.7082 65.0855C57.1348 64.8686 56.853 64.2426 57.0768 63.6869C57.3006 63.1312 57.9465 62.8568 58.5198 63.0749L71.2918 67.9144C71.8652 68.1313 72.147 68.7573 71.9232 69.313C71.7515 69.7386 71.3305 70 70.8854 70V69.9988Z" fill="#0B1A48"/>
<path d="M80.5186 29C80.3259 29 80.1321 28.9481 79.9607 28.8432C73.0617 24.6386 70.1884 18.6002 68.9923 14.275C67.7005 9.59991 68.035 5.93464 68.0491 5.78142C68.0976 5.28556 68.4628 4.8826 68.9438 4.79694C73.6562 3.95482 79.8993 0.193036 79.9619 0.155635C80.3047 -0.0518784 80.7313 -0.0518784 81.0741 0.155635C81.1367 0.193036 87.3715 3.95603 92.0768 4.79694C92.5673 4.88501 92.936 5.30004 92.9739 5.80676C92.9857 5.95998 93.2362 9.5987 91.9054 14.2569C90.675 18.5664 87.7993 24.5928 81.0906 28.8335C80.9157 28.9445 80.7172 29 80.5174 29H80.5186ZM70.1814 6.80692C70.1625 8.07251 70.2534 10.6966 71.1104 13.7538C72.6421 19.2239 75.8027 23.5347 80.5079 26.5786C85.1151 23.49 88.2461 19.1383 89.8169 13.6344C90.6785 10.6158 90.8168 8.05683 90.8227 6.8021C88.843 6.33881 86.5098 5.45567 83.8729 4.16957C82.386 3.44448 81.1805 2.77248 80.5174 2.39123C79.8532 2.77248 78.644 3.44448 77.1548 4.16957C74.5049 5.4605 72.1647 6.34484 70.1802 6.80692H70.1814Z" fill="#FFB300"/>
<path d="M80 29C79.4653 29 79 28.4968 79 27.8751V2.12489C79 1.50443 79.4653 1 80 1C80.5347 1 81 1.50321 81 2.12489V27.8751C81 28.4956 80.5347 29 80 29Z" fill="#FFB300"/>
<path d="M100.889 18H99.1113C98.4983 18 98 17.5347 98 17C98 16.4653 98.4971 16 99.1113 16H100.889C101.502 16 102 16.4653 102 17C102 17.5347 101.503 18 100.889 18Z" fill="#0B1A48"/>
<path d="M107.947 18H106.053C105.472 18 105 17.5347 105 17C105 16.4653 105.471 16 106.053 16H107.947C108.528 16 109 16.4653 109 17C109 17.5347 108.529 18 107.947 18Z" fill="#0B1A48"/>
<path d="M103 23C102.436 23 102 22.5029 102 21.8887V20.1113C102 19.4983 102.436 19 103 19C103.564 19 104 19.4971 104 20.1113V21.8887C104 22.5017 103.564 23 103 23Z" fill="#0B1A48"/>
<path d="M103 16C102.436 16 102 15.529 102 14.9471V13.0529C102 12.4721 102.436 12 103 12C103.564 12 104 12.471 104 13.0529V14.9471C104 15.5279 103.564 16 103 16Z" fill="#0B1A48"/>
<path d="M2.88869 88H1.11132C0.498351 88 0 87.5347 0 87C0 86.4653 0.497144 86 1.11132 86H2.88869C3.50166 86 4 86.4653 4 87C4 87.5347 3.50287 88 2.88869 88Z" fill="#FFB300"/>
<path d="M9.94713 88H8.05288C7.47214 88 7 87.5347 7 87C7 86.4653 7.471 86 8.05288 86H9.94713C10.5279 86 11 86.4653 11 87C11 87.5347 10.529 88 9.94713 88Z" fill="#FFB300"/>
<path d="M5 93C4.43556 93 4 92.5029 4 91.8887V90.1113C4 89.4983 4.43556 89 5 89C5.56444 89 6 89.4971 6 90.1113V91.8887C6 92.5017 5.56444 93 5 93Z" fill="#FFB300"/>
<path d="M5 86C4.43556 86 4 85.529 4 84.9471V83.0529C4 82.4721 4.43556 82 5 82C5.56444 82 6 82.471 6 83.0529V84.9471C6 85.5279 5.56444 86 5 86Z" fill="#FFB300"/>
<path d="M35.8887 115H34.1113C33.4983 115 33 114.535 33 114C33 113.465 33.4971 113 34.1113 113H35.8887C36.5017 113 37 113.465 37 114C37 114.535 36.5029 115 35.8887 115Z" fill="#0B1A48"/>
<path d="M42.9471 115H41.0529C40.4721 115 40 114.535 40 114C40 113.465 40.471 113 41.0529 113H42.9471C43.5279 113 44 113.465 44 114C44 114.535 43.529 115 42.9471 115Z" fill="#0B1A48"/>
<path d="M38 120C37.4356 120 37 119.503 37 118.889V117.111C37 116.498 37.4356 116 38 116C38.5644 116 39 116.497 39 117.111V118.889C39 119.502 38.5644 120 38 120Z" fill="#0B1A48"/>
<path d="M38 113C37.4356 113 37 112.529 37 111.947V110.053C37 109.472 37.4356 109 38 109C38.5644 109 39 109.471 39 110.053V111.947C39 112.528 38.5644 113 38 113Z" fill="#0B1A48"/>
<path d="M49 99C47.3456 99 46 97.6544 46 96C46 94.3456 47.3456 93 49 93C50.6544 93 52 94.3456 52 96C52 97.6544 50.6544 99 49 99ZM49 95.2378C48.5794 95.2378 48.2378 95.5794 48.2378 96C48.2378 96.4206 48.5794 96.7622 49 96.7622C49.4206 96.7622 49.7622 96.4206 49.7622 96C49.7622 95.5794 49.4206 95.2378 49 95.2378Z" fill="#0B1A48"/>
<path d="M36.5607 105H20.4393C18.5423 105 17 103.445 17 101.535V87.4646C17 85.5536 18.5435 84 20.4393 84H36.5607C38.4577 84 40 85.5548 40 87.4646V101.535C40 103.446 38.4565 105 36.5607 105ZM20.4393 86.199C19.7476 86.199 19.1841 86.7666 19.1841 87.4634V101.534C19.1841 102.231 19.7476 102.799 20.4393 102.799H36.5607C37.2524 102.799 37.8159 102.231 37.8159 101.534V87.4634C37.8159 86.7666 37.2524 86.199 36.5607 86.199H20.4393Z" fill="#0B1A48"/>
<path d="M34.9 86C34.292 86 33.7976 85.5331 33.7976 84.9562V80.1012C33.7976 77.336 31.4217 75.0864 28.5012 75.0864C25.5807 75.0864 23.2048 77.336 23.2048 80.1012V84.9562C23.2048 85.532 22.7116 86 22.1024 86C21.4931 86 21 85.5331 21 84.9562V80.1012C21 76.1857 24.3646 73 28.5 73C32.6354 73 36 76.1857 36 80.1012V84.9562C36 85.532 35.5069 86 34.8976 86H34.9Z" fill="#0B1A48"/>
<path d="M32.8705 87C32.2475 87 31.741 86.5113 31.741 85.9076V80.8358C31.741 79.3733 30.5109 78.1836 29 78.1836C27.4891 78.1836 26.259 79.3733 26.259 80.8358V85.9076C26.259 86.5101 25.7537 87 25.1295 87C24.5053 87 24 86.5113 24 85.9076V80.8358C24 78.1694 26.2431 76 29 76C31.7569 76 34 78.1694 34 80.8358V85.9076C34 86.5101 33.4947 87 32.8705 87Z" fill="#0B1A48"/>
<path d="M22.9747 103.998C22.8088 103.998 22.6407 103.952 22.4866 103.856C22.0176 103.563 21.8624 102.914 22.1325 102.407L24.0848 98.745V90.0462L22.0963 85.5175C21.8645 84.9883 22.0697 84.3554 22.5589 84.1029C23.047 83.8515 23.6297 84.0764 23.8626 84.6067L25.9234 89.3521C25.9862 89.4939 26 89.6496 26 89.8075V99.0298C26 99.2154 25.9724 99.3987 25.8862 99.5601L23.8169 103.469C23.6361 103.81 23.3149 104 22.9768 104L22.9747 103.998Z" fill="#0B1A48"/>
<path d="M33.033 103.999C32.6964 103.999 32.3684 103.809 32.1885 103.468L30.1238 99.56C30.0381 99.3986 30 99.2153 30 99.0297V89.8073C30 89.6493 30.0254 89.4936 30.0878 89.3507L32.1599 84.6052C32.3917 84.076 32.9705 83.8511 33.4573 84.1036C33.9431 84.3561 34.1336 84.9891 33.9018 85.5183L31.9049 90.0471V98.7449L33.8605 102.407C34.1293 102.914 33.9769 103.563 33.5113 103.857C33.3579 103.954 33.1981 104 33.0319 104L33.033 103.999Z" fill="#0B1A48"/>
<path d="M24.9532 93H18.0469C17.4694 93 17 92.5644 17 92C17 91.4356 17.4683 91 18.0469 91H24.9532C25.5306 91 26 91.4356 26 92C26 92.5644 25.5317 93 24.9532 93Z" fill="#0B1A48"/>
<path d="M24.9532 96H18.0469C17.4694 96 17 95.5644 17 95C17 94.4356 17.4683 94 18.0469 94H24.9532C25.5306 94 26 94.4356 26 95C26 95.5644 25.5317 96 24.9532 96Z" fill="#0B1A48"/>
<path d="M24.9532 99H18.0469C17.4694 99 17 98.5347 17 98C17 97.4653 17.4683 97 18.0469 97H24.9532C25.5306 97 26 97.4653 26 98C26 98.5347 25.5317 99 24.9532 99Z" fill="#0B1A48"/>
<path d="M38.8502 93H31.1498C30.5156 93 30 92.5644 30 92C30 91.4356 30.5144 91 31.1498 91H38.8502C39.4844 91 40 91.4356 40 92C40 92.5644 39.4856 93 38.8502 93Z" fill="#0B1A48"/>
<path d="M38.8502 96H31.1498C30.5156 96 30 95.5644 30 95C30 94.4356 30.5144 94 31.1498 94H38.8502C39.4844 94 40 94.4356 40 95C40 95.5644 39.4856 96 38.8502 96Z" fill="#0B1A48"/>
<path d="M38.8502 99H31.1498C30.5156 99 30 98.5347 30 98C30 97.4653 30.5144 97 31.1498 97H38.8502C39.4844 97 40 97.4653 40 98C40 98.5347 39.4856 99 38.8502 99Z" fill="#0B1A48"/>
<path d="M13.9199 80.9976C13.498 80.9976 13.0973 80.7462 12.9234 80.3279C10.3196 74.0861 9 67.4559 9 60.623C9 53.7902 10.3196 47.1599 12.9234 40.9182C15.438 34.8897 19.0371 29.4761 23.621 24.8275C28.2048 20.1789 33.5429 16.529 39.4874 13.9789C45.6423 11.3382 52.1801 10 58.9178 10C59.5147 10 60 10.491 60 11.0975C60 11.704 59.5159 12.195 58.9178 12.195C52.4704 12.195 46.2168 13.4748 40.3299 15.9999C34.6439 18.4392 29.5361 21.9306 25.1497 26.379C20.7633 30.8274 17.3204 36.0062 14.9151 41.7738C12.4252 47.7438 11.1632 54.0857 11.1632 60.6242C11.1632 67.1627 12.4252 73.5046 14.9151 79.4747C15.1478 80.0324 14.8904 80.6771 14.3405 80.913C14.203 80.9714 14.0597 81 13.9199 81V80.9976Z" fill="#0B1A48"/>
<path d="M59.9167 110.999C55.1031 110.999 50.3433 110.337 45.7705 109.03C45.2011 108.867 44.876 108.291 45.0444 107.742C45.2139 107.193 45.8126 106.881 46.382 107.043C50.756 108.292 55.3089 108.926 59.9167 108.926C61.5501 108.926 63.1987 108.845 64.8134 108.686C65.4073 108.628 65.9335 109.042 65.9943 109.612C66.0551 110.181 65.6248 110.69 65.0332 110.749C63.3449 110.916 61.6238 111 59.9167 111V110.999Z" fill="#0B1A48"/>
<path d="M108.298 69C108.241 69 108.183 68.9953 108.125 68.9858C107.53 68.8915 107.123 68.3349 107.218 67.7428C107.615 65.2544 107.817 62.7035 107.817 60.162C107.817 54.5377 106.847 49.0301 104.933 43.7926C103.084 38.7321 100.401 34.0418 96.9598 29.8528C96.9408 29.8303 95.0222 27.5011 93.33 25.8642C92.8984 25.4455 92.8889 24.7592 93.3087 24.3287C93.7285 23.8982 94.421 23.89 94.8526 24.3075C96.6349 26.0317 98.5689 28.3786 98.6507 28.4776C102.248 32.8566 105.053 37.7591 106.986 43.0496C108.986 48.5254 110 54.2817 110 60.1608C110 62.8155 109.789 65.4808 109.374 68.0825C109.289 68.6167 108.825 68.9976 108.297 68.9976L108.298 69Z" fill="#0B1A48"/>
</svg>
