<svg width="48" height="48" viewBox="0 0 48 48" fill="none" xmlns="http://www.w3.org/2000/svg">
<rect width="48" height="48" rx="6" fill="white" fill-opacity="0.2"/>
<path d="M35.7709 11.9688H12.2292C11.3676 11.9688 10.6667 12.6697 10.6667 13.5312V29.0521C10.6667 29.9136 11.3676 30.6146 12.2292 30.6146H19.8854V34.4687H15.6667C15.2352 34.4687 14.8854 34.8185 14.8854 35.25C14.8854 35.6815 15.2352 36.0312 15.6667 36.0312H32.3334C32.7648 36.0312 33.1146 35.6815 33.1146 35.25C33.1146 34.8185 32.7648 34.4687 32.3334 34.4687H28.1146V30.6146H35.7709C36.6324 30.6146 37.3334 29.9136 37.3334 29.0521V13.5312C37.3334 12.6697 36.6324 11.9688 35.7709 11.9688ZM26.5521 34.4687H21.4479V30.6146H26.5521V34.4687ZM35.7709 29.0521C35.0856 29.0521 12.7784 29.0521 12.2292 29.0521V13.5312H35.7709C35.7718 29.3892 35.7761 29.0521 35.7709 29.0521Z" fill="white"/>
</svg>
