<svg width="53" height="53" viewBox="0 0 53 53" fill="none" xmlns="http://www.w3.org/2000/svg">
<path d="M13.733 13.0815C20.9577 5.85678 32.6712 5.85678 39.8959 13.0815C47.1206 20.3062 47.1206 32.0197 39.8959 39.2444L26.8145 52.3259L13.733 39.2444C6.50828 32.0197 6.50828 20.3062 13.733 13.0815Z" fill="#0B1A48"/>
<path d="M26.9288 34.24C26.1422 34.24 25.4088 34.1 24.7288 33.82C24.0488 33.54 23.4622 33.1467 22.9688 32.64C22.4755 32.12 22.1088 31.5067 21.8688 30.8L23.5288 30.12C23.8088 30.8667 24.2488 31.4467 24.8488 31.86C25.4488 32.2733 26.1422 32.48 26.9288 32.48C27.5422 32.48 28.0888 32.36 28.5688 32.12C29.0488 31.88 29.4222 31.5333 29.6888 31.08C29.9688 30.6267 30.1088 30.08 30.1088 29.44C30.1088 28.7867 29.9688 28.24 29.6888 27.8C29.4222 27.3467 29.0488 27 28.5688 26.76C28.0888 26.52 27.5355 26.4 26.9088 26.4C26.7088 26.4 26.4888 26.4133 26.2488 26.44C26.0222 26.4667 25.8288 26.5067 25.6688 26.56L25.2488 25.66L29.2288 20.8H22.6288V19.1H31.4488V20.74L27.6488 25.42L27.5288 24.9C28.4222 24.9267 29.2088 25.1333 29.8888 25.52C30.5688 25.9067 31.1022 26.4333 31.4888 27.1C31.8755 27.7533 32.0688 28.52 32.0688 29.4C32.0688 30.3067 31.8488 31.1267 31.4088 31.86C30.9688 32.5933 30.3622 33.1733 29.5888 33.6C28.8155 34.0267 27.9288 34.24 26.9288 34.24Z" fill="white"/>
</svg>
