<svg width="120" height="120" viewBox="0 0 120 120" fill="none" xmlns="http://www.w3.org/2000/svg">
<path fill-rule="evenodd" clip-rule="evenodd" d="M14.9691 102.166L14.9691 17.6118C15.0523 11.8011 21.2889 8.16673 26.3855 10.959L101.025 51.8515C106.339 54.7627 106.374 62.3829 101.088 65.3434L26.4482 109.005C21.2649 111.908 14.884 108.106 14.9691 102.166ZM24.8902 57.5121V66.4999H28.5378V57.5121H31.184V54.5082H28.5378V53.8884C28.5378 53.5069 28.5775 53.2129 28.657 53.0063C28.7364 52.7997 28.8715 52.6487 29.0623 52.5533C29.2689 52.458 29.5391 52.4103 29.8728 52.4103C30.0635 52.4103 30.302 52.4182 30.588 52.4341H31.3748L31.3986 49.6925C31.2079 49.6607 30.9456 49.6289 30.6119 49.5971C30.2781 49.5495 29.9285 49.5177 29.5629 49.5018C29.1974 49.47 28.8636 49.4541 28.5616 49.4541C27.6398 49.4541 26.9087 49.5971 26.3683 49.8832C25.8279 50.1534 25.4465 50.6223 25.224 51.2898C25.0015 51.9414 24.8902 52.8315 24.8902 53.9599V54.5082H23.8412V57.5121H24.8902ZM33.6331 66.1184C34.2211 66.5634 35.0317 66.786 36.0648 66.786C36.7482 66.786 37.3442 66.6906 37.8528 66.4999C38.3773 66.325 38.9097 66.0946 39.4501 65.8085V66.4999H43.0738V54.5082H39.4262V63.1146C39.2037 63.2258 38.9018 63.3371 38.5203 63.4483C38.1389 63.5437 37.7415 63.5914 37.3283 63.5914C36.8833 63.5914 36.5416 63.5039 36.3032 63.3291C36.0648 63.1384 35.9058 62.8205 35.8264 62.3755C35.7469 61.9305 35.7072 61.3265 35.7072 60.5637V54.5082H32.0596V60.7305C32.0596 62.0815 32.1788 63.202 32.4172 64.092C32.6556 64.982 33.0609 65.6575 33.6331 66.1184ZM49.2171 66.786C48.3271 66.786 47.6039 66.6668 47.0477 66.4283C46.4914 66.1741 46.0861 65.737 45.8318 65.1171C45.5934 64.4814 45.4742 63.5914 45.4742 62.447V57.5121H44.1868V54.5082H45.4742V51.5282H49.1218V54.5082H51.9349V57.5121H49.1218V61.5411C49.1218 62.0815 49.1456 62.5027 49.1933 62.8046C49.2569 63.1066 49.3761 63.3212 49.5509 63.4483C49.7257 63.5755 49.988 63.639 50.3376 63.639C50.433 63.639 50.584 63.6311 50.7906 63.6152C50.9972 63.5993 51.2038 63.5914 51.4104 63.5914C51.6329 63.5755 51.7998 63.5596 51.9111 63.5437L52.0064 66.4283C51.6091 66.5078 51.1323 66.5873 50.576 66.6668C50.0356 66.7462 49.5827 66.786 49.2171 66.786ZM54.8751 66.1184C55.6857 66.5634 56.7664 66.786 58.1174 66.786C58.7213 66.786 59.3571 66.7542 60.0246 66.6906C60.6921 66.627 61.3358 66.5555 61.9556 66.476C62.5755 66.3807 63.092 66.2933 63.5053 66.2138L63.4337 63.7344C63.0046 63.7662 62.4881 63.798 61.8841 63.8298C61.2802 63.8616 60.6683 63.8933 60.0484 63.9251C59.4445 63.941 58.8961 63.949 58.4034 63.949C57.6406 63.949 57.1002 63.7662 56.7823 63.4006C56.4803 63.0192 56.3214 62.447 56.3055 61.6841H63.6483L63.839 59.8008C63.839 57.8777 63.3702 56.4711 62.4324 55.581C61.5106 54.691 60.1279 54.246 58.2842 54.246C57.0287 54.246 55.9876 54.4844 55.1612 54.9612C54.3347 55.4221 53.7069 56.1294 53.2778 57.083C52.8646 58.0207 52.6579 59.2127 52.6579 60.659C52.6579 62.0417 52.8248 63.1861 53.1586 64.092C53.5082 64.9979 54.0804 65.6734 54.8751 66.1184ZM60.1915 59.467H56.2817C56.2976 58.5452 56.4644 57.8935 56.7823 57.5121C57.1161 57.1148 57.6167 56.9161 58.2842 56.9161C58.9518 56.9161 59.4365 57.1068 59.7385 57.4883C60.0405 57.8538 60.1915 58.5134 60.1915 59.467ZM70.283 66.786C68.8684 66.786 67.7638 66.5793 66.9692 66.1661C66.1745 65.737 65.6182 65.0536 65.3003 64.1158C64.9825 63.1781 64.8235 61.9464 64.8235 60.4206C64.8235 58.8789 65.0063 57.6631 65.3719 56.7731C65.7374 55.8671 66.3175 55.2234 67.1122 54.842C67.9228 54.4447 68.9797 54.246 70.283 54.246C70.6485 54.246 71.0617 54.2698 71.5226 54.3175C71.9836 54.3652 72.4445 54.4288 72.9054 54.5082C73.3663 54.5877 73.7636 54.6672 74.0974 54.7466L73.9782 57.6551C73.6603 57.6234 73.3027 57.5916 72.9054 57.5598C72.508 57.528 72.1266 57.5042 71.761 57.4883C71.3955 57.4565 71.1015 57.4406 70.879 57.4406C70.275 57.4406 69.7982 57.5359 69.4485 57.7267C69.0989 57.9174 68.8525 58.2353 68.7095 58.6803C68.5665 59.1094 68.4949 59.6895 68.4949 60.4206C68.4949 61.1835 68.5585 61.8033 68.6857 62.2802C68.8287 62.7411 69.0671 63.0748 69.4009 63.2814C69.7505 63.4722 70.2432 63.5675 70.879 63.5675C71.1015 63.5675 71.3955 63.5596 71.761 63.5437C72.1425 63.5119 72.5319 63.4801 72.9292 63.4483C73.3425 63.4165 73.708 63.3927 74.0259 63.3768L74.1212 66.2615C73.8034 66.3409 73.414 66.4204 72.9531 66.4999C72.508 66.5634 72.0471 66.627 71.5703 66.6906C71.0935 66.7542 70.6644 66.786 70.283 66.786ZM75.4842 49.7402V66.4999H79.1318V57.822C79.3702 57.7426 79.688 57.6551 80.0854 57.5598C80.4827 57.4644 80.8721 57.4167 81.2536 57.4167C81.7145 57.4167 82.0641 57.5201 82.3025 57.7267C82.5409 57.9333 82.6999 58.267 82.7793 58.728C82.8747 59.1889 82.9224 59.7928 82.9224 60.5398V66.4999H86.5699V60.2299C86.5699 58.7677 86.4348 57.5995 86.1646 56.7254C85.9104 55.8512 85.4653 55.2234 84.8296 54.842C84.2097 54.4447 83.3356 54.246 82.2072 54.246C81.7463 54.246 81.2138 54.3175 80.6099 54.4606C80.0059 54.6036 79.5132 54.7466 79.1318 54.8897V49.7402H75.4842Z" fill="#0B1A48"/>
</svg>
