<svg width="119" height="120" viewBox="0 0 119 120" fill="none" xmlns="http://www.w3.org/2000/svg">
<path d="M90.598 96C90.4973 96 90.3967 95.9929 90.2948 95.9776L25.7771 86.6492C25.2283 86.5702 24.743 86.2847 24.4111 85.846C24.0792 85.4072 23.9414 84.8682 24.0229 84.328L27.3432 62.0762C27.439 61.4346 27.7829 60.8672 28.3113 60.4804C28.8398 60.0935 29.4904 59.9319 30.1434 60.0263L93.8907 69.2426C94.5426 69.337 95.1189 69.6755 95.512 70.1956C95.905 70.7158 96.0692 71.3562 95.9733 71.999L92.653 94.2509C92.5008 95.2664 91.6117 96 90.598 96V96ZM26.2144 84.5262L90.495 93.8203L93.7973 71.6853C93.8189 71.5402 93.717 71.4058 93.5696 71.3845L29.8223 62.1682C29.6761 62.147 29.5383 62.2472 29.5168 62.3923L26.2132 84.5273L26.2144 84.5262Z" fill="#0B1A48"/>
<path d="M93.9002 70.9988C93.5872 70.9988 93.2767 70.8702 93.0584 70.6212L79.9657 55.6166C78.9116 54.5149 77.4846 53.7873 75.9473 53.5695L52.1651 50.1946C50.6278 49.9768 49.0461 50.2768 47.7078 51.0392L30.7022 61.7732C30.1938 62.0942 29.5114 61.9563 29.1792 61.4651C28.8471 60.9738 28.9898 60.3146 29.4982 59.9937L46.5242 49.2469C46.5374 49.2388 46.5506 49.2307 46.5638 49.2225C48.3386 48.203 50.4419 47.8022 52.4853 48.0918L76.2675 51.4667C78.3109 51.7563 80.2056 52.726 81.6014 54.1951C81.6122 54.2067 81.6218 54.2171 81.6326 54.2287L94.7409 69.2517C95.133 69.7001 95.073 70.3709 94.6089 70.7498C94.4027 70.9177 94.1509 71 93.9002 71V70.9988Z" fill="#0B1A48"/>
<path d="M47.1042 89C47.0512 89 46.9971 88.9965 46.943 88.9883C46.3403 88.9014 45.9229 88.3544 46.012 87.7664L49.5989 63.9378C49.6158 63.824 49.6519 63.7136 49.7048 63.6115L56.91 49.5945C57.1831 49.0628 57.8471 48.848 58.3908 49.1144C58.9357 49.3808 59.1558 50.0288 58.8828 50.5593L51.7569 64.4214L48.1964 88.0786C48.1158 88.6138 47.6443 88.9988 47.1066 88.9988L47.1042 89Z" fill="#0B1A48"/>
<path d="M34.0633 44C33.9286 44 33.7927 43.9741 33.6627 43.9199L28.1123 41.6336C27.7964 41.503 27.5606 41.2275 27.4781 40.8908L24.0311 26.6879C23.8905 26.1087 24.2401 25.5235 24.8115 25.3811L34.2329 23.0312C34.507 22.9629 34.7973 23.0077 35.0389 23.156C35.2805 23.3043 35.4547 23.5433 35.5221 23.8223L38.9692 38.0252C39.0505 38.3619 38.9692 38.7163 38.7473 38.9812L34.8763 43.6174C34.6696 43.8646 34.37 44 34.0622 44H34.0633ZM29.4177 39.8406L33.7498 41.6254L36.7706 38.0076L33.7079 25.3893L26.3551 27.2224L29.4177 39.8406V39.8406Z" fill="#0B1A48"/>
<path d="M84.8955 61C84.8436 61 84.7905 60.9965 84.7374 60.9894L41.5274 55C41.4442 54.9882 39.5724 54.7066 37.598 53.1975C35.8215 51.8398 33.5828 49.1759 33.0071 44.1968C32.9383 43.6054 33.3764 43.0726 33.9834 43.0069C34.5905 42.94 35.1396 43.366 35.2072 43.9563C36.1196 51.8503 41.5697 52.8243 41.8473 52.8689L85.0488 58.8572C85.6546 58.9405 86.0746 59.4862 85.9889 60.0753C85.9105 60.6127 85.4362 61 84.8943 61H84.8955Z" fill="#0B1A48"/>
<path d="M59 120C58.4367 120 58 119.511 58 118.908V108.092C58 107.488 58.4367 107 59 107C59.5633 107 60 107.489 60 108.092V118.908C60 119.512 59.5633 120 59 120Z" fill="#0B1A48"/>
<path d="M59 104C58.4367 104 58 103.488 58 102.857V101.143C58 100.511 58.4367 100 59 100C59.5633 100 60 100.512 60 101.143V102.857C60 103.489 59.5633 104 59 104Z" fill="#0B1A48"/>
<path d="M59 37C58.4367 37 58 36.5519 58 36.0003V33.9997C58 33.447 58.4367 33 59 33C59.5633 33 60 33.4481 60 33.9997V36.0003C60 36.553 59.5633 37 59 37Z" fill="#0B1A48"/>
<path d="M59 25C58.4367 25 58 24.5193 58 23.9275V1.07246C58 0.47951 58.4367 0 59 0C59.5633 0 60 0.480679 60 1.07246V23.9264C60 24.5193 59.5633 24.9988 59 24.9988V25Z" fill="#0B1A48"/>
<path d="M117.927 60H98.0728C97.4797 60 97 59.5337 97 59C97 58.4663 97.4808 58 98.0728 58H117.927C118.52 58 119 58.4663 119 59C119 59.5337 118.519 60 117.927 60Z" fill="#0B1A48"/>
<path d="M20.8873 58C20.8497 58 20.8121 57.9977 20.7744 57.9943L1.00221 56.1044C0.390363 56.0457 -0.0551652 55.5284 0.00553418 54.949C0.0674475 54.3697 0.613748 53.9478 1.2256 54.0052L20.9978 55.8951C21.6096 55.9538 22.0552 56.4711 21.9945 57.0505C21.9362 57.5942 21.453 57.9989 20.8873 57.9989V58Z" fill="#0B1A48"/>
<path d="M104.03 118C103.734 118 103.443 117.84 103.253 117.537L102.194 115.855C101.873 115.343 101.959 114.617 102.388 114.232C102.817 113.848 103.425 113.952 103.747 114.463L104.806 116.145C105.127 116.656 105.041 117.382 104.612 117.768C104.437 117.924 104.233 118 104.03 118V118Z" fill="#0B1A48"/>
<path d="M99.9027 111C99.5687 111 99.2395 110.851 99.0241 110.571L92.2198 101.717C91.8559 101.244 91.954 100.571 92.4389 100.215C92.9237 99.8592 93.612 99.9551 93.9759 100.429L100.78 109.282C101.144 109.756 101.046 110.428 100.561 110.784C100.364 110.929 100.133 110.999 99.9027 110.999V111Z" fill="#0B1A48"/>
<path d="M48.9557 36C48.538 36 48.1442 35.7407 47.9826 35.316L40.0723 14.4695C39.8617 13.9157 40.1269 13.2916 40.6641 13.0745C41.2013 12.8574 41.8068 13.1308 42.0174 13.6846L49.9277 34.5311C50.1383 35.0849 49.8731 35.709 49.3359 35.9261C49.2107 35.9765 49.0821 36 48.9557 36V36Z" fill="#0B1A48"/>
<path d="M38.9219 9C38.4906 9 38.084 8.75909 37.9171 8.36449L37.0746 6.36531C36.8572 5.8508 37.131 5.27088 37.6857 5.06922C38.2403 4.86756 38.8655 5.12154 39.0829 5.63605L39.9254 7.63524C40.1428 8.14975 39.869 8.72966 39.3143 8.93133C39.1851 8.9782 39.0523 9 38.9219 9V9Z" fill="#0B1A48"/>
<path d="M109.157 35C108.741 35 108.339 34.7576 108.132 34.3351C107.836 33.7271 108.054 32.9769 108.619 32.6574L111.306 31.1421C111.872 30.8239 112.57 31.0581 112.868 31.6648C113.164 32.2728 112.946 33.023 112.381 33.3426L109.694 34.8578C109.523 34.954 109.339 35 109.158 35H109.157Z" fill="#0B1A48"/>
<path d="M93.0464 43C92.6702 43 92.3066 42.7889 92.1196 42.4209C91.8517 41.8914 92.049 41.238 92.5596 40.9597L101.468 36.1243C101.98 35.846 102.611 36.0512 102.88 36.5795C103.148 37.1091 102.951 37.7624 102.44 38.0408L93.532 42.8762C93.377 42.9599 93.2105 43 93.0475 43H93.0464Z" fill="#0B1A48"/>
<path d="M5.05271 89C4.67426 89 4.30842 88.7878 4.12034 88.4179C3.85084 87.8857 4.04925 87.2289 4.56302 86.9492L13.4588 82.1244C13.9737 81.8458 14.609 82.0509 14.8797 82.582C15.1491 83.1143 14.9508 83.771 14.437 84.0508L5.54125 88.8755C5.38528 88.9597 5.21785 89 5.05386 89H5.05271Z" fill="#0B1A48"/>
<path d="M116.906 102C116.696 102 116.482 101.938 116.294 101.808L106.48 95.036C105.98 94.6912 105.85 93.9992 106.188 93.4893C106.527 92.9794 107.207 92.8471 107.706 93.1919L117.52 99.964C118.02 100.309 118.15 101.001 117.812 101.511C117.601 101.829 117.257 102 116.906 102V102Z" fill="#0B1A48"/>
<path d="M101.761 91C101.522 91 101.28 90.9411 101.067 90.8176L99.5441 89.9358C98.9771 89.6079 98.8299 88.95 99.2133 88.4652C99.5967 87.9804 100.368 87.8546 100.933 88.1824L102.456 89.0643C103.023 89.3921 103.17 90.05 102.787 90.5348C102.548 90.8372 102.158 91 101.761 91V91Z" fill="#0B1A48"/>
<path d="M91.1432 15C90.9202 15 90.6946 14.9322 90.4965 14.7901C89.9756 14.416 89.8434 13.6716 90.2011 13.1267L91.9134 10.5193C92.271 9.97442 92.9826 9.83623 93.5035 10.2104C94.0244 10.5845 94.1566 11.3289 93.7989 11.8738L92.0866 14.4811C91.8648 14.8188 91.5071 15 91.1432 15V15Z" fill="#0B1A48"/>
<path d="M80.1345 30C79.9131 30 79.6893 29.936 79.4926 29.802C78.9757 29.449 78.8447 28.7468 79.1996 28.2327L85.9294 18.4899C86.2843 17.9759 86.9904 17.8455 87.5073 18.1985C88.0243 18.5514 88.1554 19.2537 87.8004 19.7677L81.0706 29.5105C80.8505 29.8291 80.4956 30 80.1345 30Z" fill="#0B1A48"/>
<path d="M75.1846 37C74.9534 37 74.7197 36.9434 74.5144 36.8246C73.9747 36.512 73.8378 35.8901 74.2084 35.4348L75.8379 33.4339C76.2085 32.9786 76.9458 32.8632 77.4856 33.1758C78.0253 33.4884 78.1622 34.1103 77.7916 34.5656L76.162 36.5665C75.9322 36.8486 75.5616 37 75.1846 37Z" fill="#0B1A48"/>
<path d="M18.0775 102C17.8098 102 17.5409 101.903 17.3319 101.71C16.9022 101.31 16.8881 100.65 17.2991 100.234L23.1452 94.3217C23.5573 93.9052 24.2383 93.8916 24.6681 94.2898C25.0978 94.6892 25.1119 95.3492 24.7009 95.7656L18.8548 101.678C18.6435 101.892 18.3605 102 18.0764 102H18.0775Z" fill="#0B1A48"/>
<path d="M11.972 108C11.7305 108 11.488 107.911 11.2994 107.734C10.9118 107.368 10.8991 106.763 11.2698 106.381L12.3268 105.295C12.6986 104.913 13.3129 104.901 13.7006 105.266C14.0882 105.632 14.1009 106.237 13.7302 106.618L12.6732 107.705C12.4825 107.901 12.2273 108 11.971 108H11.972Z" fill="#0B1A48"/>
<path d="M22.8172 46C22.7025 46 22.5864 45.9841 22.4703 45.9512L19.8372 45.1891C19.2131 45.0087 18.861 44.3831 19.0519 43.7918C19.2427 43.2004 19.9043 42.8687 20.5297 43.0492L23.1628 43.8113C23.7869 43.9917 24.139 44.6173 23.9481 45.2086C23.7921 45.6903 23.324 46 22.8172 46V46Z" fill="#0B1A48"/>
<path d="M14.8627 44C14.7523 44 14.6407 43.9851 14.5291 43.9542L7.80503 42.0539C7.2049 41.8846 6.86639 41.2977 7.0499 40.7428C7.23341 40.1891 7.87076 39.8767 8.47088 40.046L15.195 41.9464C15.7951 42.1157 16.1336 42.7026 15.9501 43.2575C15.8001 43.7094 15.35 44 14.8627 44V44Z" fill="#0B1A48"/>
<path d="M3.77226 39.999C3.65319 39.999 3.53279 39.9857 3.41238 39.9582L2.86787 39.8307C2.22036 39.6797 1.85511 39.1564 2.05445 38.6617C2.25245 38.168 2.93879 37.8895 3.58765 38.0415L4.13213 38.169C4.77964 38.32 5.14489 38.8433 4.94555 39.338C4.78367 39.7409 4.29803 40 3.77226 40V39.999Z" fill="#0B1A48"/>
<path d="M97.8892 26H96.1108C95.4967 26 95 25.5633 95 25C95 24.4367 95.4979 24 96.1108 24H97.8892C98.5033 24 99 24.4367 99 25C99 25.5633 98.5021 26 97.8892 26Z" fill="#FFB300"/>
<path d="M104.947 26H103.052C102.471 26 102 25.5633 102 25C102 24.4367 102.472 24 103.052 24H104.947C105.529 24 106 24.4367 106 25C106 25.5633 105.528 26 104.947 26Z" fill="#FFB300"/>
<path d="M100 31C99.4367 31 99 30.5021 99 29.8892V28.1108C99 27.4967 99.4367 27 100 27C100.563 27 101 27.4979 101 28.1108V29.8892C101 30.5033 100.563 31 100 31Z" fill="#FFB300"/>
<path d="M100 24C99.4367 24 99 23.5283 99 22.9475V21.0525C99 20.4706 99.4367 20 100 20C100.563 20 101 20.4717 101 21.0525V22.9475C101 23.5294 100.563 24 100 24Z" fill="#FFB300"/>
<path d="M105.889 79H104.111C103.497 79 103 78.5633 103 78C103 77.4367 103.498 77 104.111 77H105.889C106.503 77 107 77.4367 107 78C107 78.5633 106.502 79 105.889 79Z" fill="#0B1A48"/>
<path d="M112.947 79H111.053C110.471 79 110 78.5633 110 78C110 77.4367 110.472 77 111.053 77H112.947C113.529 77 114 77.4367 114 78C114 78.5633 113.528 79 112.947 79Z" fill="#0B1A48"/>
<path d="M108 84C107.437 84 107 83.5021 107 82.8892V81.1108C107 80.4967 107.437 80 108 80C108.563 80 109 80.4979 109 81.1108V82.8892C109 83.5033 108.563 84 108 84Z" fill="#0B1A48"/>
<path d="M108 77C107.437 77 107 76.5283 107 75.9475V74.0525C107 73.4706 107.437 73 108 73C108.563 73 109 73.4717 109 74.0525V75.9475C109 76.5294 108.563 77 108 77Z" fill="#0B1A48"/>
<path d="M25.8892 111H24.1109C23.4967 111 23 110.563 23 110C23 109.437 23.4979 109 24.1109 109H25.8892C26.5033 109 27 109.437 27 110C27 110.563 26.5021 111 25.8892 111Z" fill="#FFB300"/>
<path d="M32.9475 111H31.0525C30.4706 111 30 110.563 30 110C30 109.437 30.4718 109 31.0525 109H32.9475C33.5294 109 34 109.437 34 110C34 110.563 33.5283 111 32.9475 111Z" fill="#FFB300"/>
<path d="M28 116C27.4663 116 27 115.502 27 114.889V113.111C27 112.497 27.4663 112 28 112C28.5337 112 29 112.498 29 113.111V114.889C29 115.503 28.5337 116 28 116Z" fill="#FFB300"/>
<path d="M28 109C27.4663 109 27 108.528 27 107.947V106.053C27 105.471 27.4663 105 28 105C28.5337 105 29 105.472 29 106.053V107.947C29 108.529 28.5337 109 28 109Z" fill="#FFB300"/>
<path d="M10.8892 22H9.11083C8.49666 22 8 21.5337 8 21C8 20.4663 8.49787 20 9.11083 20H10.8892C11.5033 20 12 20.4663 12 21C12 21.5337 11.5021 22 10.8892 22Z" fill="#FFB300"/>
<path d="M17.9475 22H16.0525C15.4706 22 15 21.5337 15 21C15 20.4663 15.4717 20 16.0525 20H17.9475C18.5294 20 19 20.4663 19 21C19 21.5337 18.5283 22 17.9475 22Z" fill="#FFB300"/>
<path d="M13 27C12.4367 27 12 26.5021 12 25.8892V24.1108C12 23.4967 12.4367 23 13 23C13.5633 23 14 23.4979 14 24.1108V25.8892C14 26.5033 13.5633 27 13 27Z" fill="#FFB300"/>
<path d="M13 20C12.4367 20 12 19.5283 12 18.9475V17.0525C12 16.4706 12.4367 16 13 16C13.5633 16 14 16.4717 14 17.0525V18.9475C14 19.5294 13.5633 20 13 20Z" fill="#FFB300"/>
<path d="M39 104C37.3463 104 36 102.655 36 101C36 99.3451 37.3451 98 39 98C40.6549 98 42 99.3451 42 101C42 102.655 40.6549 104 39 104ZM39 100.239C38.5805 100.239 38.2378 100.58 38.2378 101.001C38.2378 101.422 38.5793 101.763 39 101.763C39.4207 101.763 39.7622 101.422 39.7622 101.001C39.7622 100.58 39.4207 100.239 39 100.239Z" fill="#0B1A48"/>
<path d="M98.0006 53C96.3466 53 95 51.6549 95 50C95 48.3451 96.3454 47 98.0006 47C99.6558 47 101 48.3451 101 50C101 51.6549 99.6546 53 98.0006 53ZM98.0006 49.239C97.581 49.239 97.2383 49.5805 97.2383 50.0012C97.2383 50.422 97.5798 50.7634 98.0006 50.7634C98.4214 50.7634 98.763 50.422 98.763 50.0012C98.763 49.5805 98.4214 49.239 98.0006 49.239Z" fill="#0B1A48"/>
</svg>
