<svg width="33" height="32" viewBox="0 0 33 32" fill="none" xmlns="http://www.w3.org/2000/svg">
<path d="M29.2 10C29.4652 10 29.7196 9.89464 29.9071 9.70711C30.0947 9.51957 30.2 9.26522 30.2 9V5C30.2 4.20435 29.8839 3.44129 29.3213 2.87868C28.7587 2.31607 27.9957 2 27.2 2H5.20001C4.40436 2 3.6413 2.31607 3.07869 2.87868C2.51608 3.44129 2.20001 4.20435 2.20001 5V9C2.20001 9.26522 2.30537 9.51957 2.49291 9.70711C2.68044 9.89464 2.9348 10 3.20001 10C3.73045 10 4.23915 10.2107 4.61423 10.5858C4.9893 10.9609 5.20001 11.4696 5.20001 12C5.20001 12.5304 4.9893 13.0391 4.61423 13.4142C4.23915 13.7893 3.73045 14 3.20001 14C2.9348 14 2.68044 14.1054 2.49291 14.2929C2.30537 14.4804 2.20001 14.7348 2.20001 15V19C2.20001 19.7956 2.51608 20.5587 3.07869 21.1213C3.6413 21.6839 4.40436 22 5.20001 22H9.20001C9.46523 22 9.71958 21.8946 9.90712 21.7071C10.0947 21.5196 10.2 21.2652 10.2 21C10.2 20.7348 10.0947 20.4804 9.90712 20.2929C9.71958 20.1054 9.46523 20 9.20001 20H5.20001C4.9348 20 4.68044 19.8946 4.49291 19.7071C4.30537 19.5196 4.20001 19.2652 4.20001 19V15.87C5.05601 15.6463 5.81368 15.1451 6.35444 14.4448C6.89519 13.7445 7.18853 12.8848 7.18853 12C7.18853 11.1152 6.89519 10.2555 6.35444 9.5552C5.81368 8.85494 5.05601 8.35373 4.20001 8.13V5C4.20001 4.73478 4.30537 4.48043 4.49291 4.29289C4.68044 4.10536 4.9348 4 5.20001 4H15.2V5C15.2 5.26522 15.3054 5.51957 15.4929 5.70711C15.6804 5.89464 15.9348 6 16.2 6C16.4652 6 16.7196 5.89464 16.9071 5.70711C17.0947 5.51957 17.2 5.26522 17.2 5V4H27.2C27.4652 4 27.7196 4.10536 27.9071 4.29289C28.0947 4.48043 28.2 4.73478 28.2 5V8.13C27.344 8.35373 26.5863 8.85494 26.0456 9.5552C25.5048 10.2555 25.2115 11.1152 25.2115 12C25.2115 12.8848 25.5048 13.7445 26.0456 14.4448C26.5863 15.1451 27.344 15.6463 28.2 15.87V19C28.2 19.2652 28.0947 19.5196 27.9071 19.7071C27.7196 19.8946 27.4652 20 27.2 20H23.2C22.9348 20 22.6804 20.1054 22.4929 20.2929C22.3054 20.4804 22.2 20.7348 22.2 21C22.2 21.2652 22.3054 21.5196 22.4929 21.7071C22.6804 21.8946 22.9348 22 23.2 22H27.2C27.9957 22 28.7587 21.6839 29.3213 21.1213C29.8839 20.5587 30.2 19.7956 30.2 19V15C30.2 14.7348 30.0947 14.4804 29.9071 14.2929C29.7196 14.1054 29.4652 14 29.2 14C28.6696 14 28.1609 13.7893 27.7858 13.4142C27.4107 13.0391 27.2 12.5304 27.2 12C27.2 11.4696 27.4107 10.9609 27.7858 10.5858C28.1609 10.2107 28.6696 10 29.2 10Z" fill="#0B1A48"/>
<path d="M16.2 12C16.4652 12 16.7196 11.8946 16.9071 11.7071C17.0947 11.5196 17.2 11.2652 17.2 11V9C17.2 8.73478 17.0947 8.48043 16.9071 8.29289C16.7196 8.10536 16.4652 8 16.2 8C15.9348 8 15.6804 8.10536 15.4929 8.29289C15.3054 8.48043 15.2 8.73478 15.2 9V11C15.2 11.2652 15.3054 11.5196 15.4929 11.7071C15.6804 11.8946 15.9348 12 16.2 12Z" fill="#0B1A48"/>
<path d="M15.2 17C15.2 17.2652 15.3054 17.5196 15.4929 17.7071C15.6804 17.8946 15.9348 18 16.2 18C16.4652 18 16.7196 17.8946 16.9071 17.7071C17.0947 17.5196 17.2 17.2652 17.2 17V15C17.2 14.7348 17.0947 14.4804 16.9071 14.2929C16.7196 14.1054 16.4652 14 16.2 14C15.9348 14 15.6804 14.1054 15.4929 14.2929C15.3054 14.4804 15.2 14.7348 15.2 15V17Z" fill="#0B1A48"/>
<path d="M20.2 24C19.7569 24.0029 19.3199 24.104 18.9205 24.2959C18.5211 24.4878 18.1692 24.7658 17.89 25.11L17.37 24.24L22.05 16.52C22.1344 16.2991 22.1379 16.0554 22.0597 15.8323C21.9815 15.6091 21.8268 15.4209 21.623 15.301C21.4191 15.1811 21.1794 15.1373 20.9464 15.1774C20.7133 15.2175 20.502 15.3389 20.35 15.52L16.2 22.31L12.05 15.48C11.9981 15.3442 11.9172 15.2214 11.813 15.12C11.7088 15.0187 11.5837 14.9413 11.4466 14.8933C11.3094 14.8452 11.1634 14.8276 11.0187 14.8418C10.874 14.8559 10.7342 14.9014 10.6089 14.9751C10.4836 15.0488 10.3759 15.1489 10.2933 15.2685C10.2106 15.3881 10.1551 15.5242 10.1304 15.6675C10.1058 15.8107 10.1126 15.9576 10.1506 16.098C10.1885 16.2383 10.2566 16.3686 10.35 16.48L15.03 24.2L14.51 25.07C14.1153 24.6028 13.5873 24.2675 12.9967 24.1088C12.4061 23.9502 11.7812 23.9758 11.2055 24.1823C10.6299 24.3888 10.1311 24.7662 9.77604 25.2641C9.42093 25.762 9.22647 26.3565 9.21869 26.968C9.21091 27.5795 9.39019 28.1787 9.73251 28.6855C10.0748 29.1922 10.5638 29.5822 11.134 29.8033C11.7042 30.0243 12.3283 30.0659 12.9228 29.9223C13.5172 29.7787 14.0536 29.4569 14.46 29L14.75 28.61L16.2 26.17L17.65 28.56L17.94 28.95C18.2195 29.2767 18.5659 29.5396 18.9558 29.7207C19.3458 29.9019 19.7701 29.9971 20.2 30C20.9957 30 21.7587 29.6839 22.3213 29.1213C22.8839 28.5587 23.2 27.7956 23.2 27C23.2 26.2043 22.8839 25.4413 22.3213 24.8787C21.7587 24.316 20.9957 24 20.2 24ZM12.2 28C12.0022 28 11.8089 27.9413 11.6444 27.8314C11.48 27.7216 11.3518 27.5654 11.2761 27.3827C11.2004 27.1999 11.1806 26.9989 11.2192 26.8049C11.2578 26.6109 11.3531 26.4327 11.4929 26.2929C11.6328 26.153 11.8109 26.0578 12.0049 26.0192C12.1989 25.9806 12.4 26.0004 12.5827 26.0761C12.7654 26.1518 12.9216 26.28 13.0315 26.4444C13.1414 26.6088 13.2 26.8022 13.2 27C13.2 27.2652 13.0947 27.5195 12.9071 27.7071C12.7196 27.8946 12.4652 28 12.2 28ZM20.2 28C20.0022 28 19.8089 27.9413 19.6444 27.8314C19.48 27.7216 19.3518 27.5654 19.2761 27.3827C19.2004 27.1999 19.1806 26.9989 19.2192 26.8049C19.2578 26.6109 19.3531 26.4327 19.4929 26.2929C19.6328 26.153 19.8109 26.0578 20.0049 26.0192C20.1989 25.9806 20.4 26.0004 20.5827 26.0761C20.7654 26.1518 20.9216 26.28 21.0315 26.4444C21.1414 26.6088 21.2 26.8022 21.2 27C21.2 27.2652 21.0947 27.5195 20.9071 27.7071C20.7196 27.8946 20.4652 28 20.2 28Z" fill="#0B1A48"/>
</svg>
